SplineFontDB: 3.0
FontName: ORI-AsikaNormal
FullName: ORI Asika Normal
FamilyName: ORI Asika
Weight: Book
Copyright: Copyright (c) 2009-2015, NLCI (http://www.nlci.in/fonts/)
Version: 1.0 Thu Sep 12 14:47:21 1996
ItalicAngle: 0
UnderlinePosition: -269
UnderlineWidth: 19
Ascent: 800
Descent: 200
LayerCount: 2
Layer: 0 0 "Back"  1
Layer: 1 0 "Fore"  0
XUID: [1021 952 137685758 15238446]
FSType: 0
OS2Version: 1
OS2_WeightWidthSlopeOnly: 0
OS2_UseTypoMetrics: 1
CreationTime: 1257818330
ModificationTime: 1258692429
PfmFamily: 81
TTFWeight: 400
TTFWidth: 5
LineGap: 0
VLineGap: 0
Panose: 5 0 0 0 0 0 0 0 0 0
OS2TypoAscent: 181
OS2TypoAOffset: 1
OS2TypoDescent: -231
OS2TypoDOffset: 1
OS2TypoLinegap: 0
OS2WinAscent: -391
OS2WinAOffset: 1
OS2WinDescent: -30
OS2WinDOffset: 1
HheadAscent: -391
HheadAOffset: 1
HheadDescent: 30
HheadDOffset: 1
OS2SubXSize: 700
OS2SubYSize: 650
OS2SubXOff: 0
OS2SubYOff: 143
OS2SupXSize: 700
OS2SupYSize: 650
OS2SupXOff: 0
OS2SupYOff: 453
OS2StrikeYSize: 50
OS2StrikeYPos: 259
OS2Vendor: 'Alts'
OS2CodePages: 80000001.00000000
OS2UnicodeRanges: 00000000.00000000.00000000.00000000
Lookup: 4 0 0 "'akhn' Akhand in Oriya lookup 1"  {"'akhn' Akhand in Oriya lookup 1 subtable"  } ['akhn' ('orya' <'dflt' > ) ]
Lookup: 4 0 0 "'rphf' Reph Form in Oriya lookup 2"  {"'rphf' Reph Form in Oriya lookup 2 subtable"  } ['rphf' ('orya' <'dflt' > ) ]
Lookup: 4 0 0 "'blwf' Below Base Forms in Oriya lookup 3"  {"'blwf' Below Base Forms in Oriya lookup 3 subtable"  } ['blwf' ('orya' <'dflt' > ) ]
Lookup: 4 0 0 "'pstf' Post Base Forms in Oriya lookup 4"  {"'pstf' Post Base Forms in Oriya lookup 4 subtable"  } ['pstf' ('orya' <'dflt' > ) ]
Lookup: 4 0 0 "'abvs' Above Base Substitutions in Oriya lookup 6"  {"'abvs' Above Base Substitutions in Oriya lookup 6 subtable"  } ['abvs' ('orya' <'dflt' > ) ]
Lookup: 4 0 0 "'abvs' Above Base Substitutions in Oriya lookup 7"  {"'abvs' Above Base Substitutions in Oriya lookup 7 subtable"  } ['abvs' ('orya' <'dflt' > ) ]

StartChar: exclam
Encoding: 4 -1 4
Width: 405
Flags: HW
LayerCount: 2
Fore
SplineSet
255 722 m 1
 232 169 l 1
 172 169 l 1
 149 722 l 1
 255 722 l 1
249 0 m 1
 149 0 l 1
 149 95 l 1
 249 95 l 1
 249 0 l 1
EndSplineSet
EndChar

StartChar: quotedbl
Encoding: 5 34 5
Width: 472
Flags: HW
LayerCount: 2
Fore
SplineSet
392 722 m 1
 369 434 l 1
 309 434 l 1
 286 722 l 1
 392 722 l 1
186 722 m 1
 163 434 l 1
 103 434 l 1
 80 722 l 1
 186 722 l 1
EndSplineSet
EndChar

StartChar: numbersign
Encoding: 6 35 6
Width: 760
Flags: HW
LayerCount: 2
Fore
SplineSet
703 513 m 1
 682 444 l 1
 540 444 l 1
 498 308 l 1
 639 308 l 1
 618 239 l 1
 477 239 l 1
 406 0 l 1
 332 0 l 1
 403 239 l 1
 273 239 l 1
 201 0 l 1
 127 0 l 1
 199 239 l 1
 57 239 l 1
 78 308 l 1
 220 308 l 1
 262 444 l 1
 121 444 l 1
 142 513 l 1
 283 513 l 1
 347 722 l 1
 422 722 l 1
 357 513 l 1
 488 513 l 1
 552 722 l 1
 626 722 l 1
 562 513 l 1
 703 513 l 1
467 444 m 1
 336 444 l 1
 293 308 l 1
 425 308 l 1
 467 444 l 1
EndSplineSet
EndChar

StartChar: dollar
Encoding: 7 36 7
Width: 569
Flags: HW
LayerCount: 2
Fore
SplineSet
49 522 m 0
 49 610.311 100.475 714 261 714 c 1
 261 795 l 1
 312 795 l 1
 312 715 l 1
 433.964 715 500 640 500 524 c 1
 399 524 l 1
 399 601.438 378.14 627 312 627 c 1
 312 408 l 1
 379.333 393.333 424 379.333 446 366 c 0
 501.333 332 529 275 529 195 c 0
 529 64.3333 456.667 -5 312 -13 c 1
 312 -104 l 1
 261 -104 l 1
 261 -14 l 1
 120.034 -14 40 64.3728 40 209 c 1
 141 209 l 1
 141 118.333 181 73 261 73 c 1
 261 322 l 1
 139.643 352.339 49 378.724 49 522 c 0
261 627 m 1
 160.254 627 151 583.585 151 519 c 0
 151 482.333 160.333 458 179 446 c 0
 184.333 442.667 211.667 434 261 420 c 1
 261 627 l 1
312 74 m 1
 402.5 75.4836 427 113.313 427 187 c 0
 427 235 416 268 394 286 c 0
 382.667 295.333 355.333 305.667 312 317 c 1
 312 74 l 1
EndSplineSet
EndChar

StartChar: percent
Encoding: 8 37 8
Width: 942
Flags: HW
LayerCount: 2
Fore
SplineSet
706 380 m 256
 811.184 380 885 312.014 885 188 c 256
 885 36.148 780.975 -4 706 -4 c 256
 595.483 -4 528 70.4776 528 188 c 256
 528 305.426 595.389 380 706 380 c 256
723 736 m 1
 297 -14 l 1
 228 -14 l 1
 654 736 l 1
 723 736 l 1
235 726 m 256
 340.184 726 414 658.014 414 534 c 256
 414 382.148 309.975 342 235 342 c 256
 124.483 342 57 416.478 57 534 c 256
 57 651.426 124.389 726 235 726 c 256
799 188 m 0
 799 272.667 768 315 706 315 c 256
 644 315 613 272.667 613 188 c 0
 613 104 644 62 706 62 c 256
 768 62 799 104 799 188 c 0
328 534 m 0
 328 618.667 297 661 235 661 c 256
 173 661 142 618.667 142 534 c 0
 142 450 173 408 235 408 c 256
 297 408 328 450 328 534 c 0
EndSplineSet
EndChar

StartChar: ampersand
Encoding: 9 38 9
Width: 777
Flags: HW
LayerCount: 2
Fore
SplineSet
660 422 m 1
 660 325.108 655.394 242.117 606 146 c 1
 638 108.667 689.333 60 760 0 c 1
 626 0 l 1
 614 9.33333 588 33 548 71 c 1
 479.333 15 401.333 -13 314 -13 c 0
 173.334 -13 69 79.3438 69 207 c 0
 69 335.4 149.571 384.867 227 421 c 1
 187.954 467.238 148 515.2 148 578 c 0
 148 672.8 228.023 736 328 736 c 0
 435.906 736 510 680.8 510 598 c 0
 510 499.235 426.421 451.675 354 411 c 1
 383.333 374.333 446.333 307 543 209 c 1
 555.667 251 562 286 562 314 c 0
 562 320.667 559.333 356.667 554 422 c 1
 660 422 l 1
428 589 m 0
 428 630.367 387.3 661 340 661 c 0
 278 661 247 635.667 247 585 c 0
 247 551.667 266.333 511.333 305 464 c 1
 364.043 489.979 398.611 510.024 421 559 c 0
 425.667 569 428 579 428 589 c 0
168 210 m 0
 168 152.635 234.274 72 317 72 c 0
 391.667 72 451.333 92 496 132 c 1
 425.333 193.333 351.333 270.667 274 364 c 1
 219.551 351.036 168 279.956 168 210 c 0
EndSplineSet
EndChar

StartChar: quotesingle
Encoding: 10 -1 10
Width: 405
Flags: HW
LayerCount: 2
Fore
SplineSet
255 722 m 1
 232 434 l 1
 172 434 l 1
 149 722 l 1
 255 722 l 1
EndSplineSet
EndChar

StartChar: parenleft
Encoding: 11 -1 11
Width: 384
Flags: HW
LayerCount: 2
Fore
SplineSet
280 -132 m 1
 216 -132 l 1
 140.667 5.33333 103 150 103 302 c 0
 103 454.667 140.667 599.333 216 736 c 1
 280 736 l 1
 225.333 582 198 437.333 198 302 c 0
 198 167.333 225.333 22.6667 280 -132 c 1
EndSplineSet
EndChar

StartChar: parenright
Encoding: 12 -1 12
Width: 384
Flags: HW
LayerCount: 2
Fore
SplineSet
281 302 m 0
 281 150 243.333 5.33333 168 -132 c 1
 104 -132 l 1
 158.667 22.6667 186 167.333 186 302 c 0
 186 437.333 158.667 582 104 736 c 1
 168 736 l 1
 243.333 599.333 281 454.667 281 302 c 0
EndSplineSet
EndChar

StartChar: asterisk
Encoding: 13 42 13
Width: 689
Flags: HW
LayerCount: 2
Fore
SplineSet
545 488 m 1
 380 509 l 1
 481 375 l 1
 409 335 l 1
 345 482 l 1
 281 335 l 1
 208 375 l 1
 309 509 l 1
 144 488 l 1
 144 570 l 1
 309 549 l 1
 208 683 l 1
 281 722 l 1
 345 576 l 1
 409 722 l 1
 481 683 l 1
 380 549 l 1
 545 570 l 1
 545 488 l 1
EndSplineSet
EndChar

StartChar: plus
Encoding: 14 43 14
Width: 1054
Flags: HW
LayerCount: 2
Fore
SplineSet
827 269 m 1
 558 269 l 1
 558 0 l 1
 496 0 l 1
 496 269 l 1
 227 269 l 1
 227 331 l 1
 496 331 l 1
 496 600 l 1
 558 600 l 1
 558 331 l 1
 827 331 l 1
 827 269 l 1
EndSplineSet
EndChar

StartChar: comma
Encoding: 15 -1 15
Width: 288
Flags: HW
LayerCount: 2
Fore
SplineSet
234 123 m 1
 124 -127 l 1
 54 -127 l 1
 114 123 l 1
 234 123 l 1
EndSplineSet
EndChar

StartChar: hyphen
Encoding: 16 -1 16
Width: 332
Flags: HW
LayerCount: 2
Fore
SplineSet
286 203 m 1
 46 203 l 1
 46 285 l 1
 286 285 l 1
 286 203 l 1
EndSplineSet
EndChar

StartChar: period
Encoding: 17 -1 17
Width: 299
Flags: HW
LayerCount: 2
Fore
SplineSet
219 0 m 1
 111 0 l 1
 111 123 l 1
 219 123 l 1
 219 0 l 1
EndSplineSet
EndChar

StartChar: slash
Encoding: 18 -1 18
Width: 407
Flags: HW
LayerCount: 2
Fore
SplineSet
356 736 m 1
 120 -52 l 1
 51 -52 l 1
 287 736 l 1
 356 736 l 1
EndSplineSet
EndChar

StartChar: zero
Encoding: 19 -1 19
Width: 573
Flags: HW
LayerCount: 2
Fore
SplineSet
287 736 m 256
 471.764 736 516 588.716 516 375 c 0
 516 156.397 470.989 -14 287 -14 c 256
 103 -14 57 158.85 57 375 c 0
 57 588.366 103 736 287 736 c 256
287 70 m 0
 407.036 70 419 230.369 419 375 c 0
 419 514.483 409.343 652 287 652 c 0
 164.024 652 154 516.491 154 375 c 0
 154 231.685 165.293 70 287 70 c 0
EndSplineSet
EndChar

StartChar: one
Encoding: 20 -1 20
Width: 602
Flags: HW
LayerCount: 2
Fore
SplineSet
397 0 m 1
 304 0 l 1
 304 602 l 1
 233.962 543.635 181.115 524.961 148 519 c 1
 148 602 l 1
 208.667 622 258.333 662 297 722 c 1
 397 722 l 1
 397 0 l 1
EndSplineSet
EndChar

StartChar: two
Encoding: 21 -1 21
Width: 577
Flags: HW
LayerCount: 2
Fore
SplineSet
506 540 m 0
 506 413.723 467.706 306.278 181 78 c 1
 506 78 l 1
 506 0 l 1
 71 0 l 1
 71 93 l 1
 381.797 330 406 439.4 406 526 c 0
 406 627.6 362 653 296 653 c 0
 230 653 192.333 610.667 183 526 c 1
 81 526 l 1
 91.6667 666 163.333 736 296 736 c 0
 430.881 736 506 639.799 506 540 c 0
EndSplineSet
EndChar

StartChar: three
Encoding: 22 -1 22
Width: 569
Flags: HW
LayerCount: 2
Fore
SplineSet
431 379 m 1
 480.28 345.764 518 316.261 518 193 c 0
 518 71.0104 416.95 -14 281 -14 c 0
 132.481 -14 51 75.7758 51 190 c 1
 157 190 l 1
 165 105.333 207.333 63 284 63 c 0
 351.962 63 418 118.037 418 185 c 0
 418 291.99 379.699 336 271 336 c 1
 271 416 l 1
 369.821 416 406 452.207 406 553 c 0
 406 619.645 356.073 659 281 659 c 0
 219.667 659 181.667 617.333 167 534 c 1
 66 534 l 1
 82.6667 668.667 153.667 736 279 736 c 0
 425.346 736 506 646.828 506 546 c 0
 506 467.333 481 411.667 431 379 c 1
EndSplineSet
EndChar

StartChar: four
Encoding: 23 -1 23
Width: 567
Flags: HW
LayerCount: 2
Fore
SplineSet
533 176 m 1
 444 176 l 1
 444 0 l 1
 351 0 l 1
 351 176 l 1
 34 176 l 1
 34 281 l 1
 334 722 l 1
 444 722 l 1
 444 259 l 1
 533 259 l 1
 533 176 l 1
351 259 m 1
 351 612 l 1
 114 259 l 1
 351 259 l 1
EndSplineSet
EndChar

StartChar: five
Encoding: 24 -1 24
Width: 573
Flags: HW
LayerCount: 2
Fore
SplineSet
316 480 m 1
 450.108 474.741 510.258 360.365 513 237 c 1
 507.553 114.449 417.225 -13 297 -13 c 0
 157.978 -13 60 47.2468 60 176 c 1
 165 176 l 1
 165 88.8 232.15 67 286 67 c 1
 373.428 69.6493 412 157.332 412 235 c 0
 412 349 372.667 406 294 406 c 0
 234 406 189.667 371.333 161 302 c 1
 71 302 l 1
 84 722 l 1
 467 722 l 1
 467 639 l 1
 182 639 l 1
 170 412 l 1
 189.52 437.579 228.4 480 316 480 c 1
EndSplineSet
EndChar

StartChar: six
Encoding: 25 -1 25
Width: 569
Flags: HW
LayerCount: 2
Fore
SplineSet
304 446 m 0
 442.935 446 517 363.3 517 216 c 0
 517 119.713 472.2 -14 293 -14 c 0
 191 -14 123.333 16.6667 90 78 c 0
 64.6667 124 52 212.333 52 343 c 0
 52 605 133.333 736 296 736 c 0
 428.492 736 481.682 671.269 497 550 c 1
 401 550 l 1
 395.667 622.667 360 659 294 659 c 0
 178.8 659 146.586 505.912 150 354 c 1
 189.383 405.82 215.875 446 304 446 c 0
415 216 m 256
 415 318 373 369 289 369 c 0
 204.333 369 162 318 162 216 c 256
 162 114 204.333 63 289 63 c 0
 373 63 415 114 415 216 c 256
EndSplineSet
EndChar

StartChar: seven
Encoding: 26 -1 26
Width: 573
Flags: HW
LayerCount: 2
Fore
SplineSet
509 622 m 1
 274 0 l 1
 164 0 l 1
 419 642 l 1
 64 642 l 1
 64 722 l 1
 509 722 l 1
 509 622 l 1
EndSplineSet
EndChar

StartChar: eight
Encoding: 27 -1 27
Width: 571
Flags: HW
LayerCount: 2
Fore
SplineSet
287 736 m 256
 407 736 502 667.225 502 559 c 0
 502 478.333 462.667 419.667 384 383 c 1
 476.667 342.333 523 276.333 523 185 c 0
 523 53.1094 413.595 -13 287 -13 c 0
 159.437 -13 49 53.3703 49 185 c 0
 49 276.333 94.6667 342.333 186 383 c 1
 109.333 419.667 71 478.333 71 559 c 0
 71 667.588 166.63 736 287 736 c 256
287 420 m 256
 354.706 420 411 465.663 411 539 c 0
 411 614.3 365.231 659 287 659 c 256
 208.717 659 163 614.325 163 539 c 0
 163 465.663 219.294 420 287 420 c 256
287 343 m 0
 198.307 343 144 288.231 144 205 c 0
 144 111 191.667 64 287 64 c 0
 379.667 64 426 111 426 205 c 0
 426 287.774 374.934 343 287 343 c 0
EndSplineSet
EndChar

StartChar: nine
Encoding: 28 -1 28
Width: 569
Flags: HW
LayerCount: 2
Fore
SplineSet
52 506 m 0
 52 602.287 96.8 736 276 736 c 0
 378 736 445.667 705.667 479 645 c 0
 504.333 598.333 517 509.667 517 379 c 0
 517 117 435.667 -14 273 -14 c 0
 140.508 -14 87.3182 50.7309 72 172 c 1
 168 172 l 1
 173.333 99.3333 209 63 275 63 c 0
 342.333 63 386.333 114 407 216 c 0
 416.333 258 420.333 308.667 419 368 c 1
 379.617 316.18 353.125 276 265 276 c 0
 126.065 276 52 358.7 52 506 c 0
407 506 m 256
 407 608 364.667 659 280 659 c 0
 196 659 154 608 154 506 c 256
 154 404 196 353 280 353 c 0
 364.667 353 407 404 407 506 c 256
EndSplineSet
EndChar

StartChar: colon
Encoding: 29 -1 29
Width: 299
Flags: HW
LayerCount: 2
Fore
SplineSet
219 377 m 1
 111 377 l 1
 111 500 l 1
 219 500 l 1
 219 377 l 1
219 0 m 1
 111 0 l 1
 111 123 l 1
 219 123 l 1
 219 0 l 1
EndSplineSet
EndChar

StartChar: semicolon
Encoding: 30 -1 30
Width: 288
Flags: HW
LayerCount: 2
Fore
SplineSet
212 377 m 1
 104 377 l 1
 104 500 l 1
 212 500 l 1
 212 377 l 1
234 123 m 1
 124 -127 l 1
 54 -127 l 1
 114 123 l 1
 234 123 l 1
EndSplineSet
EndChar

StartChar: less
Encoding: 31 60 31
Width: 1054
Flags: HW
LayerCount: 2
Fore
SplineSet
827 39 m 1
 227 269 l 1
 227 331 l 1
 827 561 l 1
 827 499 l 1
 291 300 l 1
 827 101 l 1
 827 39 l 1
EndSplineSet
EndChar

StartChar: equal
Encoding: 32 61 32
Width: 1054
Flags: HW
LayerCount: 2
Fore
SplineSet
827 360 m 1
 227 360 l 1
 227 422 l 1
 827 422 l 1
 827 360 l 1
827 178 m 1
 227 178 l 1
 227 240 l 1
 827 240 l 1
 827 178 l 1
EndSplineSet
EndChar

StartChar: greater
Encoding: 33 62 33
Width: 1054
Flags: HW
LayerCount: 2
Fore
SplineSet
827 269 m 1
 227 39 l 1
 227 101 l 1
 763 300 l 1
 227 499 l 1
 227 561 l 1
 827 331 l 1
 827 269 l 1
EndSplineSet
EndChar

StartChar: question
Encoding: 34 -1 34
Width: 527
Flags: HW
LayerCount: 2
Fore
SplineSet
237 736 m 0
 360.022 736 463 664.533 463 555 c 0
 463 514.333 445.667 474.667 411 436 c 0
 403.667 428 371.333 400 314 352 c 0
 279.333 322 262 297 262 277 c 2
 262 165 l 1
 182 165 l 1
 182 293 l 2
 182 339.249 270.517 391.941 317 442 c 1
 348.333 478 364 516.667 364 558 c 0
 364 608.4 311.593 644.792 239 642 c 0
 164.576 639.294 130.233 630.29 94 563 c 1
 28 605 l 1
 73.3333 692.333 143 736 237 736 c 0
272 0 m 1
 172 0 l 1
 172 95 l 1
 272 95 l 1
 272 0 l 1
EndSplineSet
EndChar

StartChar: at
Encoding: 35 64 35
Width: 1018
Flags: HW
LayerCount: 2
Fore
SplineSet
500 716 m 0
 780.102 716 949 566.177 949 298 c 0
 949 146.455 861.95 21 748 21 c 0
 688.667 21 644.333 52.6667 615 116 c 1
 581.667 56 531.667 26 465 26 c 0
 364.116 26 287 125.606 287 259 c 0
 287 405.043 362.126 492 465 492 c 0
 507.667 492 539.333 485 560 471 c 1
 606 426 l 1
 606 485 l 1
 696 485 l 1
 696 149 l 1
 704 119 723.333 105.333 754 108 c 1
 783.382 100.655 852 136.929 852 298 c 0
 852 516.667 737.333 626 508 626 c 0
 310.59 626 165 511.05 165 291 c 0
 165 50.7458 287.449 -88 519 -88 c 0
 585 -88 642 -81.6667 690 -69 c 1
 690 -152 l 1
 639.333 -169.333 585.333 -178 528 -178 c 0
 314.51 -178 69 -84.4 69 290 c 0
 69 420 113.667 525 203 605 c 0
 285 679 384 716 500 716 c 0
492 95 m 0
 558 95 602 166.837 602 266 c 0
 602 353.42 567.68 422 492 422 c 0
 416.148 422 382 352.255 382 266 c 0
 382 152 418.667 95 492 95 c 0
EndSplineSet
EndChar

StartChar: A
Encoding: 36 65 36
Width: 754
Flags: HW
LayerCount: 2
Fore
SplineSet
737 0 m 1
 631 0 l 1
 553 193 l 1
 199 193 l 1
 120 0 l 1
 17 0 l 1
 320 722 l 1
 430 722 l 1
 737 0 l 1
511 278 m 1
 373 611 l 1
 238 278 l 1
 511 278 l 1
EndSplineSet
EndChar

StartChar: B
Encoding: 37 66 37
Width: 694
Flags: HW
LayerCount: 2
Fore
SplineSet
382 722 m 2
 509.171 722 599 659.33 599 544 c 0
 599 468 558 415 476 385 c 1
 575.333 353.667 625 292.333 625 201 c 0
 625 85.9005 525.852 -3.48478e-18 408 0 c 2
 92 0 l 1
 92 722 l 1
 382 722 l 2
506 530 m 0
 506 600 454.667 635 352 635 c 2
 193 635 l 1
 193 420 l 1
 350 420 l 2
 454 420 506 456.667 506 530 c 0
350 87 m 2
 454.911 87 528 137.191 528 212 c 0
 528 295.333 467 337 345 337 c 2
 193 337 l 1
 193 87 l 1
 350 87 l 2
EndSplineSet
EndChar

StartChar: C
Encoding: 38 67 38
Width: 698
Flags: HW
LayerCount: 2
Fore
SplineSet
171 356 m 0
 171 131.999 248.6 67 365 67 c 0
 473.667 67 528 109 528 193 c 1
 629 193 l 1
 629 73.834 530.754 -14 366 -14 c 0
 160.664 -14 69 134.514 69 356 c 0
 69 583.367 161.585 736 368 736 c 0
 520.085 736 625 668.376 625 529 c 1
 524 529 l 1
 524 614.333 472.333 657 369 657 c 0
 237 657 171 556.667 171 356 c 0
EndSplineSet
EndChar

StartChar: D
Encoding: 39 68 39
Width: 741
Flags: HW
LayerCount: 2
Fore
SplineSet
317 722 m 2
 601 722 672 532.625 672 362 c 0
 672 198.895 600.152 -7.83813e-18 317 0 c 2
 92 0 l 1
 92 722 l 1
 317 722 l 2
319 87 m 2
 480.007 87 573 191.212 573 362 c 0
 573 533.675 481.669 635 319 635 c 2
 193 635 l 1
 193 87 l 1
 319 87 l 2
EndSplineSet
EndChar

StartChar: E
Encoding: 40 69 40
Width: 629
Flags: HW
LayerCount: 2
Fore
SplineSet
549 0 m 1
 92 0 l 1
 92 722 l 1
 539 722 l 1
 539 635 l 1
 193 635 l 1
 193 413 l 1
 529 413 l 1
 529 326 l 1
 193 326 l 1
 193 87 l 1
 549 87 l 1
 549 0 l 1
EndSplineSet
EndChar

StartChar: F
Encoding: 41 70 41
Width: 592
Flags: HW
LayerCount: 2
Fore
SplineSet
512 635 m 1
 193 635 l 1
 193 413 l 1
 492 413 l 1
 492 326 l 1
 193 326 l 1
 193 0 l 1
 92 0 l 1
 92 722 l 1
 512 722 l 1
 512 635 l 1
EndSplineSet
EndChar

StartChar: G
Encoding: 42 71 42
Width: 780
Flags: HW
LayerCount: 2
Fore
SplineSet
172 388 m 0
 172 203.636 246.155 74 415 74 c 0
 477 74 535 82 589 98 c 1
 589 298 l 1
 425 298 l 1
 425 385 l 1
 690 385 l 1
 690 36 l 1
 600 2.66667 512 -14 426 -14 c 0
 188 -14 69 120.667 69 390 c 0
 69 488.667 100 570.333 162 635 c 0
 226.667 702.333 312 736 418 736 c 0
 504.667 736 574.333 713.333 627 668 c 0
 671.667 630 694 588 694 542 c 1
 593 542 l 1
 593 584.8 528.564 649 427 649 c 0
 260.2 649 172 551.893 172 388 c 0
EndSplineSet
EndChar

StartChar: H
Encoding: 43 72 43
Width: 733
Flags: HW
LayerCount: 2
Fore
SplineSet
641 0 m 1
 540 0 l 1
 540 326 l 1
 193 326 l 1
 193 0 l 1
 92 0 l 1
 92 722 l 1
 193 722 l 1
 193 413 l 1
 540 413 l 1
 540 722 l 1
 641 722 l 1
 641 0 l 1
EndSplineSet
EndChar

StartChar: I
Encoding: 44 73 44
Width: 285
Flags: W
HStem: 0 21G<92 193> 0 21G<92 193> 702 20G<92 193>
VStem: 92 101<0 722>
LayerCount: 2
Fore
SplineSet
193 0 m 1xb0
 92 0 l 1
 92 722 l 1
 193 722 l 1
 193 0 l 1xb0
EndSplineSet
EndChar

StartChar: J
Encoding: 45 74 45
Width: 590
Flags: HW
LayerCount: 2
Fore
SplineSet
282 74 m 0
 351 74 397 128.918 397 215 c 2
 397 722 l 1
 498 722 l 1
 498 215 l 2
 498 76.672 407.233 -14 277 -14 c 0
 148.777 -14 69 72.5667 69 194 c 1
 167 194 l 1
 169 114 207.333 74 282 74 c 0
EndSplineSet
EndChar

StartChar: K
Encoding: 46 75 46
Width: 680
Flags: HW
LayerCount: 2
Fore
SplineSet
652 0 m 1
 517 0 l 1
 193 381 l 1
 193 0 l 1
 92 0 l 1
 92 722 l 1
 193 722 l 1
 193 415 l 1
 491 722 l 1
 615 722 l 1
 308 411 l 1
 652 0 l 1
EndSplineSet
EndChar

StartChar: L
Encoding: 47 76 47
Width: 546
Flags: HW
LayerCount: 2
Fore
SplineSet
512 0 m 1
 92 0 l 1
 92 722 l 1
 193 722 l 1
 193 87 l 1
 512 87 l 1
 512 0 l 1
EndSplineSet
EndChar

StartChar: M
Encoding: 48 77 48
Width: 922
Flags: HW
LayerCount: 2
Fore
SplineSet
830 0 m 1
 729 0 l 1
 729 627 l 1
 500 0 l 1
 420 0 l 1
 193 622 l 1
 193 0 l 1
 92 0 l 1
 92 722 l 1
 251 722 l 1
 460 140 l 1
 671 722 l 1
 830 722 l 1
 830 0 l 1
EndSplineSet
EndChar

StartChar: N
Encoding: 49 78 49
Width: 747
Flags: HW
LayerCount: 2
Fore
SplineSet
655 0 m 1
 511 0 l 1
 193 592 l 1
 193 0 l 1
 92 0 l 1
 92 722 l 1
 235 722 l 1
 554 130 l 1
 554 722 l 1
 655 722 l 1
 655 0 l 1
EndSplineSet
EndChar

StartChar: O
Encoding: 50 79 50
Width: 792
Flags: W
HStem: -14 88<298.967 494.679> 649 87<288.328 504.929>
VStem: 69 103<227.178 518.293> 620 103<224.214 518.001>
LayerCount: 2
Fore
SplineSet
397 736 m 0
 606.983 736 723 596.552 723 375 c 0
 723 149.357 604.135 -14 397 -14 c 0
 189.225 -14 69 147.563 69 375 c 0
 69 597.967 186.114 736 397 736 c 0
397 74 m 256
 555.979 74 620 198.282 620 375 c 0
 620 557.667 545.667 649 397 649 c 0
 247 649 172 557.667 172 375 c 0
 172 198.965 237.906 74 397 74 c 256
EndSplineSet
EndChar

StartChar: P
Encoding: 51 80 51
Width: 644
Flags: HW
LayerCount: 2
Fore
SplineSet
296 722 m 2
 459.581 722 575 680.4 575 514 c 256
 575 347.6 459.581 306 296 306 c 2
 193 306 l 1
 193 0 l 1
 92 0 l 1
 92 722 l 1
 296 722 l 2
299 394 m 2
 444.075 394 478 442 478 514 c 256
 478 586.6 442.956 635 299 635 c 2
 193 635 l 1
 193 394 l 1
 299 394 l 2
EndSplineSet
EndChar

StartChar: Q
Encoding: 52 81 52
Width: 798
Flags: HW
LayerCount: 2
Fore
SplineSet
397 736 m 0
 606.983 736 723 596.552 723 375 c 0
 723 237 687 135 615 69 c 1
 764 69 l 1
 764 0 l 1
 493 0 l 1
 456.333 -9.33333 424.333 -14 397 -14 c 0
 189.225 -14 69 147.563 69 375 c 0
 69 597.967 186.114 736 397 736 c 0
397 74 m 256
 555.979 74 620 198.282 620 375 c 0
 620 557.667 545.667 649 397 649 c 0
 247 649 172 557.667 172 375 c 0
 172 198.965 237.906 74 397 74 c 256
EndSplineSet
EndChar

StartChar: R
Encoding: 53 82 53
Width: 647
Flags: HW
LayerCount: 2
Fore
SplineSet
321 722 m 2
 481.705 722 581 677.051 581 525 c 0
 581 463.667 536 411.667 446 369 c 1
 492.388 353.537 525.517 325.707 539 292 c 0
 556.299 247.791 559.797 111.077 599 0 c 1
 497 0 l 1
 491 36 480 94 464 174 c 0
 448.667 246.667 431 291 411 307 c 0
 393 321 349.667 328 281 328 c 2
 193 328 l 1
 193 0 l 1
 92 0 l 1
 92 722 l 1
 321 722 l 2
480 525 m 256
 480 598.333 426 635 318 635 c 2
 193 635 l 1
 193 415 l 1
 318 415 l 2
 426 415 480 451.667 480 525 c 256
EndSplineSet
EndChar

StartChar: S
Encoding: 54 83 54
Width: 680
Flags: HW
LayerCount: 2
Fore
SplineSet
481 540 m 1
 482.3 627.093 418.798 649 319 649 c 0
 226.333 649 180 611 180 535 c 0
 180 485 217.333 450.333 292 431 c 2
 499 377 l 1
 573.667 343 611 284.333 611 201 c 0
 611 51.0866 480.841 -14 308 -14 c 0
 167.015 -14 69 75.4527 69 215 c 1
 171 215 l 1
 171 138.147 224.6 74 305 74 c 0
 441.667 74 510 113.667 510 193 c 0
 510 255 472.667 296 398 316 c 1
 191 363 l 1
 116.333 393 79 451.333 79 538 c 0
 79 656.8 198.051 736 325 736 c 0
 439.744 736 582 696.8 582 540 c 1
 481 540 l 1
EndSplineSet
EndChar

StartChar: T
Encoding: 55 84 55
Width: 619
Flags: HW
LayerCount: 2
Fore
SplineSet
596 635 m 1
 360 635 l 1
 360 0 l 1
 259 0 l 1
 259 635 l 1
 23 635 l 1
 23 722 l 1
 596 722 l 1
 596 635 l 1
EndSplineSet
EndChar

StartChar: U
Encoding: 56 85 56
Width: 761
Flags: HW
LayerCount: 2
Fore
SplineSet
380 74 m 256
 492.8 74 568 120.148 568 322 c 2
 568 722 l 1
 669 722 l 1
 669 322 l 2
 669 101.132 596.707 -14 380 -14 c 256
 163.461 -14 92 101.05 92 322 c 2
 92 722 l 1
 193 722 l 1
 193 322 l 2
 193 120.678 267.8 74 380 74 c 256
EndSplineSet
EndChar

StartChar: V
Encoding: 57 86 57
Width: 658
Flags: HW
LayerCount: 2
Fore
SplineSet
641 722 m 1
 384 0 l 1
 274 0 l 1
 17 722 l 1
 130 722 l 1
 329 130 l 1
 528 722 l 1
 641 722 l 1
EndSplineSet
EndChar

StartChar: W
Encoding: 58 87 58
Width: 976
Flags: HW
LayerCount: 2
Fore
SplineSet
959 722 m 1
 745 0 l 1
 655 0 l 1
 488 602 l 1
 321 0 l 1
 231 0 l 1
 17 722 l 1
 123 722 l 1
 276 150 l 1
 428 722 l 1
 548 722 l 1
 700 150 l 1
 853 722 l 1
 959 722 l 1
EndSplineSet
EndChar

StartChar: X
Encoding: 59 88 59
Width: 710
Flags: HW
LayerCount: 2
Fore
SplineSet
682 0 m 1
 554 0 l 1
 348 314 l 1
 146 0 l 1
 28 0 l 1
 293 385 l 1
 62 722 l 1
 190 722 l 1
 362 456 l 1
 529 722 l 1
 647 722 l 1
 416 385 l 1
 682 0 l 1
EndSplineSet
EndChar

StartChar: Y
Encoding: 60 89 60
Width: 670
Flags: HW
LayerCount: 2
Fore
SplineSet
653 722 m 1
 385 287 l 1
 385 0 l 1
 284 0 l 1
 284 287 l 1
 17 722 l 1
 140 722 l 1
 341 375 l 1
 539 722 l 1
 653 722 l 1
EndSplineSet
EndChar

StartChar: Z
Encoding: 61 90 61
Width: 628
Flags: HW
LayerCount: 2
Fore
SplineSet
577 0 m 1
 51 0 l 1
 51 110 l 1
 457 635 l 1
 71 635 l 1
 71 722 l 1
 567 722 l 1
 567 612 l 1
 161 87 l 1
 577 87 l 1
 577 0 l 1
EndSplineSet
EndChar

StartChar: bracketleft
Encoding: 62 91 62
Width: 425
Flags: HW
LayerCount: 2
Fore
SplineSet
306 -198 m 1
 120 -198 l 1
 120 722 l 1
 306 722 l 1
 306 671 l 1
 206 671 l 1
 206 -147 l 1
 306 -147 l 1
 306 -198 l 1
EndSplineSet
EndChar

StartChar: backslash
Encoding: 63 92 63
Width: 407
Flags: HW
LayerCount: 2
Fore
SplineSet
356 -52 m 1
 287 -52 l 1
 51 736 l 1
 120 736 l 1
 356 -52 l 1
EndSplineSet
EndChar

StartChar: bracketright
Encoding: 64 93 64
Width: 425
Flags: HW
LayerCount: 2
Fore
SplineSet
306 -198 m 1
 120 -198 l 1
 120 -147 l 1
 219 -147 l 1
 219 671 l 1
 120 671 l 1
 120 722 l 1
 306 722 l 1
 306 -198 l 1
EndSplineSet
EndChar

StartChar: asciicircum
Encoding: 65 94 65
Width: 490
Flags: HW
LayerCount: 2
Fore
SplineSet
433 415 m 1
 388 415 l 1
 245 737 l 1
 102 415 l 1
 57 415 l 1
 223 775 l 1
 267 775 l 1
 433 415 l 1
EndSplineSet
EndChar

StartChar: underscore
Encoding: 66 95 66
Width: 557
Flags: HW
LayerCount: 2
Fore
SplineSet
557 -365 m 1
 0 -365 l 1
 0 -288 l 1
 557 -288 l 1
 557 -365 l 1
EndSplineSet
EndChar

StartChar: grave
Encoding: 67 96 67
Width: 235
Flags: HW
LayerCount: 2
Fore
SplineSet
173 600 m 1
 112 600 l 1
 -28 771 l 1
 73 771 l 1
 173 600 l 1
EndSplineSet
EndChar

StartChar: a
Encoding: 68 97 68
Width: 565
Flags: HW
LayerCount: 2
Fore
SplineSet
287 446 m 0
 223.492 446 175 420.641 175 365 c 1
 82 365 l 1
 82 463.667 149 513 283 513 c 0
 389.667 513 454 484.667 476 428 c 0
 483.333 409.333 487 356.667 487 270 c 2
 487 183 l 2
 487 85 491.333 24 500 0 c 1
 410 0 l 1
 406.667 15.3333 403 39.6667 399 73 c 1
 355.789 20.4457 323.049 -13 246 -13 c 0
 146.102 -13 55 43.8348 55 132 c 0
 55 263.836 170.545 316 326 316 c 0
 346.7 316 381.2 314 395 314 c 1
 397.667 326 399 337.333 399 348 c 0
 399 413.333 361.667 446 287 446 c 0
148 144 m 0
 148 90.977 189.804 54 247 54 c 0
 304.333 54 344.333 73 367 111 c 0
 385 139.667 394 184.667 394 246 c 1
 367.333 248 350 249 342 249 c 0
 248.062 249 148 218.98 148 144 c 0
EndSplineSet
EndChar

StartChar: b
Encoding: 69 98 69
Width: 607
Flags: HW
LayerCount: 2
Fore
SplineSet
336 513 m 0
 482.834 513 550 389.868 550 271 c 0
 550 183.667 527.333 113.333 482 60 c 1
 442 11.3333 394.333 -13 339 -13 c 0
 274.333 -13 218 11 170 59 c 1
 170 0 l 1
 80 0 l 1
 80 722 l 1
 167 722 l 1
 167 431 l 1
 203 485.667 259.333 513 336 513 c 0
311 54 m 0
 396.8 54 454 139.267 454 262 c 0
 454 372.729 411.311 455 314 455 c 0
 220.31 455 168 368.121 168 262 c 0
 168 123.333 215.667 54 311 54 c 0
EndSplineSet
EndChar

StartChar: c
Encoding: 70 99 70
Width: 535
Flags: HW
LayerCount: 2
Fore
SplineSet
279 55 m 0
 348.847 55 389 104.188 389 169 c 1
 478 169 l 1
 478 52.379 402.632 -13 278 -13 c 0
 130.667 -13 57 74.6667 57 250 c 0
 57 451.125 141.8 513 269 513 c 0
 384.158 513 474 469.238 474 364 c 0
 474 357.333 473.667 350.333 473 343 c 1
 384 343 l 1
 385.333 349.667 386 356 386 362 c 0
 386 417.333 344.667 445 262 445 c 0
 185.333 445 147 380 147 250 c 256
 147 120 191 55 279 55 c 0
EndSplineSet
EndChar

StartChar: d
Encoding: 71 100 71
Width: 608
Flags: HW
LayerCount: 2
Fore
SplineSet
57 240 m 0
 57 391.289 128.64 513 264 513 c 0
 346.667 513 404.667 487 438 435 c 1
 438 722 l 1
 528 722 l 1
 528 0 l 1
 438 0 l 1
 438 57 l 1
 393.333 10.3333 343.667 -13 289 -13 c 0
 229 -13 176 11 130 59 c 0
 81.3333 109 57 169.333 57 240 c 0
293 59 m 0
 382.554 59 435 141.699 435 246 c 0
 435 354.499 373.238 453 281 453 c 0
 191.007 453 149 356.812 149 252 c 256
 149 150.466 202.621 59 293 59 c 0
EndSplineSet
EndChar

StartChar: e
Encoding: 72 101 72
Width: 571
Flags: HW
LayerCount: 2
Fore
SplineSet
292 513 m 0
 469.6 513 514 388.875 514 283 c 0
 514 265.667 513 250 511 236 c 1
 154 236 l 1
 154 131.611 192.95 52 287 52 c 0
 388.6 52 410.288 128.558 414 159 c 1
 511 159 l 1
 502.354 117.098 466 -13 286 -13 c 0
 132.984 -13 57 113.132 57 250 c 0
 57 370.255 110.575 513 292 513 c 0
416 325 m 0
 416 402.813 369.317 449 288 449 c 0
 212 449 167.333 399.667 154 301 c 1
 414 301 l 1
 415.333 309 416 317 416 325 c 0
EndSplineSet
EndChar

StartChar: f
Encoding: 73 102 73
Width: 331
Flags: HW
LayerCount: 2
Fore
SplineSet
111 575 m 2
 111 708.434 173.277 732 266 732 c 0
 290 732 311.667 728.667 331 722 c 1
 331 648 l 1
 305.838 660.581 246.178 669.009 220.5 647 c 128
 218.167 645 214.667 639.667 210 631 c 0
 204 617.667 201 598.333 201 573 c 2
 201 500 l 1
 321 500 l 1
 321 435 l 1
 201 435 l 1
 201 0 l 1
 111 0 l 1
 111 435 l 1
 11 435 l 1
 11 500 l 1
 111 500 l 1
 111 575 l 2
EndSplineSet
EndChar

StartChar: g
Encoding: 74 103 74
Width: 607
Flags: HW
LayerCount: 2
Fore
SplineSet
269 513 m 0
 387.728 513 411.565 479.592 437 445 c 1
 437 500 l 1
 527 500 l 1
 527 30 l 2
 527 -110.047 434.359 -198 283 -198 c 0
 131.458 -198 82 -103.2 82 -40 c 1
 176 -40 l 1
 176 -101.074 231.662 -136 300 -136 c 0
 382.2 -136 437 -94.9629 437 93 c 1
 392.333 40.3333 339.333 14 278 14 c 0
 130.667 14 57 98.3333 57 267 c 0
 57 406.898 141.8 513 269 513 c 0
290 78 m 0
 389.097 78 435 154.458 435 265 c 0
 435 387.667 385 449 285 449 c 0
 195 449 150 388.333 150 267 c 0
 150 161.412 191.714 78 290 78 c 0
EndSplineSet
EndChar

StartChar: h
Encoding: 75 104 75
Width: 593
Flags: HW
LayerCount: 2
Fore
SplineSet
327 513 m 0
 441.125 513 513 468.241 513 311 c 2
 513 0 l 1
 423 0 l 1
 423 315 l 2
 423 395.456 380.273 448 318 448 c 0
 221.711 448 170 386.566 170 341 c 2
 170 0 l 1
 80 0 l 1
 80 722 l 1
 170 722 l 1
 170 437 l 1
 200.667 487.667 253 513 327 513 c 0
EndSplineSet
EndChar

StartChar: i
Encoding: 76 105 76
Width: 246
Flags: HW
LayerCount: 2
Fore
SplineSet
171 630 m 1
 75 630 l 1
 75 722 l 1
 171 722 l 1
 171 630 l 1
168 0 m 1
 78 0 l 1
 78 500 l 1
 168 500 l 1
 168 0 l 1
EndSplineSet
EndChar

StartChar: j
Encoding: 77 106 77
Width: 291
Flags: HW
LayerCount: 2
Fore
SplineSet
216 630 m 1
 120 630 l 1
 120 722 l 1
 216 722 l 1
 216 630 l 1
213 -80 m 2
 213 -167.333 174.333 -211 97 -211 c 0
 64.2946 -211 2.8 -194.8 -34 -158 c 1
 23 -101 l 1
 39.6667 -121.667 59.6667 -132 83 -132 c 0
 109.667 -132 123 -104.667 123 -50 c 2
 123 500 l 1
 213 500 l 1
 213 -80 l 2
EndSplineSet
EndChar

StartChar: k
Encoding: 78 107 78
Width: 512
Flags: HW
LayerCount: 2
Fore
SplineSet
489 0 m 1
 370 0 l 1
 170 267 l 1
 170 0 l 1
 80 0 l 1
 80 722 l 1
 170 722 l 1
 170 292 l 1
 360 500 l 1
 473 500 l 1
 273 282 l 1
 489 0 l 1
EndSplineSet
EndChar

StartChar: l
Encoding: 79 108 79
Width: 250
Flags: HW
LayerCount: 2
Fore
SplineSet
170 0 m 1
 80 0 l 1
 80 722 l 1
 170 722 l 1
 170 0 l 1
EndSplineSet
EndChar

StartChar: m
Encoding: 80 109 80
Width: 916
Flags: HW
LayerCount: 2
Fore
SplineSet
319 513 m 0
 421 513 455.491 478.307 489 424 c 1
 531 483.333 585 513 651 513 c 0
 774.333 513 836 449.667 836 323 c 2
 836 0 l 1
 746 0 l 1
 746 323 l 2
 746 407 708.333 449 633 449 c 0
 561.62 449 505 379.8 505 323 c 2
 505 0 l 1
 415 0 l 1
 415 323 l 2
 415 388.398 373.853 449 304 449 c 0
 223.312 449 170 374.67 170 323 c 2
 170 0 l 1
 80 0 l 1
 80 500 l 1
 170 500 l 1
 170 431 l 1
 210 485.667 259.667 513 319 513 c 0
EndSplineSet
EndChar

StartChar: n
Encoding: 81 110 81
Width: 594
Flags: HW
LayerCount: 2
Fore
SplineSet
302 453 m 0
 231.799 453 170 403.27 170 323 c 2
 170 0 l 1
 80 0 l 1
 80 500 l 1
 170 500 l 1
 170 436 l 1
 213 481 l 1
 239 502.333 275.333 513 322 513 c 0
 450 513 514 451.667 514 329 c 2
 514 0 l 1
 425 0 l 1
 425 331 l 2
 425 401.958 367.059 453 302 453 c 0
EndSplineSet
EndChar

StartChar: o
Encoding: 82 111 82
Width: 606
Flags: W
HStem: -13 65<230.027 375.7> 449 64<229.138 376.883>
VStem: 57 94<140.517 356.001> 455 94<143.336 355.886>
LayerCount: 2
Fore
SplineSet
303 513 m 0
 454.566 513 549 414.76 549 250 c 256
 549 80.6118 448.549 -13 303 -13 c 0
 149.788 -13 57 88.1326 57 250 c 256
 57 415.119 151.37 513 303 513 c 0
303 52 m 0
 399.28 52 455 140.142 455 250 c 256
 455 359.988 399.822 449 303 449 c 256
 206.323 449 151 360.175 151 250 c 256
 151 143.194 203.988 52 303 52 c 0
EndSplineSet
EndChar

StartChar: p
Encoding: 83 112 83
Width: 616
Flags: HW
LayerCount: 2
Fore
SplineSet
328 513 m 0
 484.14 513 559 414.265 559 250 c 256
 559 85.5245 483.874 -14 328 -14 c 0
 278.667 -14 226 8 170 52 c 1
 170 -198 l 1
 80 -198 l 1
 80 500 l 1
 170 500 l 1
 170 437 l 1
 225.333 487.667 278 513 328 513 c 0
316 51 m 256
 415.558 51 463 137.464 463 250 c 256
 463 362.889 415.752 449 316 449 c 256
 216.442 449 169 362.536 169 250 c 256
 169 137.111 216.249 51 316 51 c 256
EndSplineSet
EndChar

StartChar: q
Encoding: 84 113 84
Width: 616
Flags: HW
LayerCount: 2
Fore
SplineSet
57 250 m 256
 57 414.409 131.711 513 288 513 c 0
 338 513 390.667 487.667 446 437 c 1
 446 500 l 1
 536 500 l 1
 536 -198 l 1
 446 -198 l 1
 446 52 l 1
 390 8 337.333 -14 288 -14 c 0
 132.264 -14 57 85.6957 57 250 c 256
300 51 m 256
 399.558 51 447 137.464 447 250 c 256
 447 362.889 399.752 449 300 449 c 256
 200.442 449 153 362.536 153 250 c 256
 153 137.111 200.249 51 300 51 c 256
EndSplineSet
EndChar

StartChar: r
Encoding: 85 114 85
Width: 376
Flags: HW
LayerCount: 2
Fore
SplineSet
353 420 m 1
 231 420 170 373.333 170 280 c 2
 170 0 l 1
 80 0 l 1
 80 500 l 1
 170 500 l 1
 170 432 l 1
 200.423 484.153 245.087 500 353 500 c 1
 353 420 l 1
EndSplineSet
EndChar

StartChar: s
Encoding: 86 115 86
Width: 517
Flags: HW
LayerCount: 2
Fore
SplineSet
255 449 m 0
 204.437 449 161 420.767 161 375 c 0
 161 341 187 317 239 303 c 2
 382 266 l 1
 434 242.667 460 203 460 147 c 256
 460 36.5016 367.452 -13 242 -13 c 0
 118.667 -13 57 39.6667 57 145 c 1
 149 145 l 1
 149.667 83 184.333 52 253 52 c 0
 314.691 52 368 84.8455 368 140 c 0
 368 173.333 342 196.333 290 209 c 0
 199.333 231.667 151.667 244 147 246 c 0
 95 270.667 69 313.667 69 375 c 0
 69 430.2 101.425 513 257 513 c 0
 375.685 513 446 477.296 446 366 c 1
 354 366 l 1
 354 421.333 321 449 255 449 c 0
EndSplineSet
EndChar

StartChar: t
Encoding: 87 116 87
Width: 358
Flags: HW
LayerCount: 2
Fore
SplineSet
265 56 m 0
 276.8 56 295.277 56.8192 324 64 c 1
 324 0 l 1
 299.385 -8.20492 268.578 -14 235 -14 c 0
 168.4 -14 124 7.75898 124 131 c 2
 124 436 l 1
 34 436 l 1
 34 500 l 1
 124 500 l 1
 124 599 l 1
 214 636 l 1
 214 500 l 1
 324 500 l 1
 324 436 l 1
 214 436 l 1
 214 131 l 2
 214 81 231 56 265 56 c 0
EndSplineSet
EndChar

StartChar: u
Encoding: 88 117 88
Width: 593
Flags: HW
LayerCount: 2
Fore
SplineSet
291 48 m 0
 361.201 48 423 97.7296 423 178 c 2
 423 500 l 1
 513 500 l 1
 513 0 l 1
 423 0 l 1
 423 64 l 1
 390.333 12.6667 339.667 -13 271 -13 c 0
 143.667 -13 80 48.3333 80 171 c 2
 80 500 l 1
 170 500 l 1
 170 169 l 2
 170 97.4779 227.864 48 291 48 c 0
EndSplineSet
EndChar

StartChar: v
Encoding: 89 118 89
Width: 539
Flags: HW
LayerCount: 2
Fore
SplineSet
522 500 m 1
 316 0 l 1
 224 0 l 1
 17 500 l 1
 122 500 l 1
 275 110 l 1
 427 500 l 1
 522 500 l 1
EndSplineSet
EndChar

StartChar: w
Encoding: 90 119 90
Width: 818
Flags: HW
LayerCount: 2
Fore
SplineSet
801 500 m 1
 632 0 l 1
 542 0 l 1
 409 415 l 1
 276 0 l 1
 186 0 l 1
 17 500 l 1
 113 500 l 1
 231 110 l 1
 349 500 l 1
 469 500 l 1
 587 110 l 1
 705 500 l 1
 801 500 l 1
EndSplineSet
EndChar

StartChar: x
Encoding: 91 120 91
Width: 553
Flags: W
HStem: 0 21G<23 142.416 401.178 530> 0 21G<23 142.416 401.178 530> 480 20G<38 166.749 397.698 517>
LayerCount: 2
Fore
SplineSet
530 0 m 1xa0
 416 0 l 1
 270 197 l 1
 128 0 l 1
 23 0 l 1
 222 259 l 1
 38 500 l 1
 152 500 l 1
 284 321 l 1
 412 500 l 1
 517 500 l 1
 331 259 l 1
 530 0 l 1xa0
EndSplineSet
EndChar

StartChar: y
Encoding: 92 121 92
Width: 539
Flags: HW
LayerCount: 2
Fore
SplineSet
522 500 m 1
 283 -111 l 2
 262.785 -162.661 234.2 -204 161 -204 c 0
 100.333 -204 56 -173.667 28 -113 c 1
 99 -76 l 1
 109.684 -101.375 136.761 -126.291 160 -125 c 0
 176 -124.333 192.667 -101.333 210 -56 c 2
 231 0 l 1
 17 500 l 1
 122 500 l 1
 279 123 l 1
 425 500 l 1
 522 500 l 1
EndSplineSet
EndChar

StartChar: z
Encoding: 93 122 93
Width: 482
Flags: HW
LayerCount: 2
Fore
SplineSet
425 0 m 1
 57 0 l 1
 57 83 l 1
 323 430 l 1
 77 430 l 1
 77 500 l 1
 425 500 l 1
 425 417 l 1
 157 70 l 1
 425 70 l 1
 425 0 l 1
EndSplineSet
EndChar

StartChar: braceleft
Encoding: 94 123 94
Width: 512
Flags: HW
LayerCount: 2
Fore
SplineSet
302 -32 m 1
 300.667 -118.666 325.6 -166 420 -166 c 1
 420 -240 l 1
 275.331 -240 214.977 -208.67 213 -7 c 0
 213 65 208.667 113.333 200 138 c 0
 184 183.333 148 211.667 92 223 c 1
 92 296 l 1
 191.221 319.5 212 381.296 212 490 c 0
 212 504 212 518 212 532 c 0
 212 733.9 289.5 760 420 760 c 1
 420 686 l 1
 324.8 686 301 636.862 301 552 c 0
 301.667 482 302 446 302 444 c 0
 292.758 354.223 277.218 319.218 217 259 c 1
 276.004 201.307 292.615 164.828 302 75 c 1
 302 -32 l 1
EndSplineSet
EndChar

StartChar: bar
Encoding: 95 124 95
Width: 383
Flags: HW
LayerCount: 2
Fore
SplineSet
217 -258 m 1
 166 -258 l 1
 166 796 l 1
 217 796 l 1
 217 -258 l 1
EndSplineSet
EndChar

StartChar: braceright
Encoding: 96 125 96
Width: 512
Flags: HW
LayerCount: 2
Fore
SplineSet
92 760 m 1
 236.669 760 297.023 728.67 299 527 c 0
 299 455 303.333 406.667 312 382 c 0
 328 336.667 364 308.333 420 297 c 1
 420 224 l 1
 320.779 200.5 300 138.704 300 30 c 0
 300 16 300 2 300 -12 c 0
 300 -213.9 222.5 -240 92 -240 c 1
 92 -166 l 1
 187.2 -166 211 -116.863 211 -32 c 0
 210.333 38 210 74 210 76 c 0
 219.242 165.777 234.782 200.782 295 261 c 1
 235.996 318.693 219.385 355.172 210 445 c 1
 210 552 l 1
 211.333 638.666 186.4 686 92 686 c 1
 92 760 l 1
EndSplineSet
EndChar

StartChar: quotedblright
Encoding: 101 8221 101
Width: 534
Flags: HW
LayerCount: 2
Fore
SplineSet
154 313 m 0
 250.3 313 330.55 273 368 273 c 0
 395.333 273 420.333 287 443 315 c 1
 534 315 l 1
 525.13 264.313 449.486 198 378 198 c 0
 279.95 198 208.4 238 166 238 c 0
 138 238 113 223.667 91 195 c 1
 0 195 l 1
 9.04652 246.694 86.2649 313 154 313 c 0
EndSplineSet
EndChar

StartChar: u0964
Encoding: 102 2404 102
Width: 618
Flags: W
AnchorPoint: "C" 444 819 basechar 0
LayerCount: 2
Fore
SplineSet
478 0 m 1
 420 0 l 1
 420 777 l 1
 478 777 l 1
 478 0 l 1
EndSplineSet
EndChar

StartChar: u0B01
Encoding: 103 2817 103
Width: 14
Flags: W
AnchorPoint: "C" -67 809 mark 0
LayerCount: 2
Fore
SplineSet
-44 1078 m 1
 -40 1056 l 1
 -40 1032.67 -48.6667 1015.67 -66 1005 c 1
 -84 1000 l 1
 -101.333 1000 -114 1011 -122 1033 c 1
 -126 1055 l 1
 -126 1077.67 -117.667 1094.33 -101 1105 c 1
 -83 1110 l 1
 -65 1110 -52 1099.33 -44 1078 c 1
-77 899 m 0
 -20.6 899 34.112 956.819 64 1042 c 1
 120 1025 l 1
 93.0888 938.884 12.3561 841 -75 841 c 0
 -163.749 841 -246.966 939.264 -277 1028 c 1
 -223 1046 l 1
 -201.629 979.216 -145.285 899 -77 899 c 0
EndSplineSet
EndChar

StartChar: u0B02
Encoding: 104 2818 104
Width: 371
Flags: W
HStem: 412 58<116.839 214.57> 717 58<118.284 216.702>
VStem: 18 60<510.712 669.211> 256 59<516.334 673.989>
LayerCount: 2
Fore
SplineSet
167 775 m 0
 254.081 775 313.596 698.299 315 593 c 1
 315 503.719 245.124 412 167 412 c 0
 98.1012 412 18 484.111 18 593 c 0
 18 676.998 82.9437 775 167 775 c 0
168 470 m 0
 217.301 470 257.33 534.486 256 593 c 0
 256 621.678 248.211 707.658 166 717 c 1
 112.153 717 78 645.394 78 592 c 0
 78 526.675 114 470 168 470 c 0
EndSplineSet
EndChar

StartChar: u0B03
Encoding: 105 2819 105
Width: 380
Flags: HW
LayerCount: 2
Fore
SplineSet
267 620 m 0
 267 530.45 244.002 466.527 185 409 c 1
 239.667 356.333 267 294 267 222 c 0
 267 106.349 211.333 33 133 33 c 0
 80.6 33 2 74.5312 2 212 c 0
 2 306.732 37.8072 358.188 84 409 c 1
 39.1626 459.175 1 511.552 1 611 c 0
 1 684.565 50.1688 779 132 779 c 0
 207.162 779 267 691.457 267 620 c 0
133 459 m 256
 161.465 459 204.652 503.107 216 602 c 1
 216 668.487 182.8 718 133 718 c 0
 99.6043 718 54 676.177 54 601 c 0
 54 526.919 101.973 459 133 459 c 256
135 97 m 0
 166.882 97 217.61 131.038 216 218 c 1
 216 313.139 166.2 367 133 367 c 0
 104.611 367 54 301.31 54 230 c 0
 54 169.229 78.7985 97 135 97 c 0
EndSplineSet
EndChar

StartChar: u0B05
Encoding: 106 2821 106
Width: 620
Flags: HMW
LayerCount: 2
Fore
SplineSet
510 0 m 1
 452 0 l 1
 452 84 l 1
 412.382 48.7842 339.8 1 265 1 c 0
 119.113 1 0 81.9619 0 230 c 0
 0 284 19.333 330.333 58 369 c 0
 113.56 426.194 233.294 469.491 287 517 c 0
 318.333 546.333 333.722 582.668 334 626 c 0
 334.333 678 313 712.667 283 713 c 0
 256.333 713.296 227.678 698.66 228 669 c 2
 229 577 l 1
 171 577 l 1
 171 672 l 2
 171 693.333 156.992 712.115 116 713 c 0
 69.667 714 57 657.65 57 625 c 0
 57 567.112 77.8213 558.236 100 548 c 1
 80.002 500.002 l 1
 34.0225 518.642 0 562.211 0 625 c 0
 0 710.637 55.6641 769.881 112 770 c 0
 163.667 770.109 189 755.333 203 733 c 1
 217.667 755.333 249.667 770 286 770 c 0
 340.992 770 395 709.717 395 626 c 0
 395 570 376.333 523 339 485 c 0
 281.171 425.519 191.155 398.696 108 337 c 0
 77 314 58 272.667 58 228 c 0
 58 121.973 151.296 58 265 58 c 0
 337.516 58 403.425 105.317 452 163 c 1
 452 770 l 1
 510 770 l 1
 510 0 l 1
EndSplineSet
EndChar

StartChar: u0B06
Encoding: 107 2822 107
Width: 748
Flags: HW
LayerCount: 2
Fore
SplineSet
510 0 m 1
 452 0 l 1
 452 84 l 1
 412.382 48.7842 339.8 1 265 1 c 0
 119.113 1 0 81.9619 0 230 c 0
 0 284 19.333 330.333 58 369 c 0
 113.56 426.194 233.294 469.491 287 517 c 0
 318.333 546.333 333.722 582.668 334 626 c 0
 334.333 678 313 712.667 283 713 c 0
 256.333 713.296 227.678 698.66 228 669 c 2
 229 577 l 1
 171 577 l 1
 171 672 l 2
 171 693.333 156.992 712.115 116 713 c 0
 69.667 714 57 657.65 57 625 c 0
 57 567.112 77.8213 558.236 100 548 c 1
 80.002 500.002 l 1
 34.0225 518.642 0 562.211 0 625 c 0
 0 710.637 55.6641 769.881 112 770 c 0
 163.667 770.109 189 755.333 203 733 c 1
 217.667 755.333 249.667 770 286 770 c 0
 340.992 770 395 709.717 395 626 c 0
 395 570 376.333 523 339 485 c 0
 281.171 425.519 191.155 398.696 108 337 c 0
 77 314 58 272.667 58 228 c 0
 58 121.973 151.296 58 265 58 c 0
 337.516 58 403.425 105.317 452 163 c 1
 452 770 l 1
 510 770 l 1
 510 0 l 1
638 0 m 1
 580 0 l 1
 580 770 l 1
 638 770 l 1
 638 0 l 1
EndSplineSet
EndChar

StartChar: u0B07
Encoding: 108 2823 108
Width: 706
Flags: MW
LayerCount: 2
Fore
SplineSet
596 406 m 4
 596.333 276 562.808 175.575 540 133 c 5
 626 -18 l 5
 575 -46 l 5
 476 131 l 5
 500.031 180.778 540.333 275.333 540 407 c 4
 539.345 665.749 377.883 712 277 712 c 4
 147.4 712 61 603.016 61 484 c 4
 61 390.188 105.882 347.33 127 333 c 1
 139.667 341 153 345.333 167 346 c 0
 196.333 346 228 329 247 289 c 1
 265 330 294.667 346 324 346 c 0
 393 346 433 271.707 433 174 c 0
 433 68.874 388 0 323 0 c 0
 295 0 268 19 245 58 c 1
 226 20.5 194.333 0 165 0 c 0
 113.772 0 58 68.7637 58 174 c 0
 58 216.667 67 255 85 289 c 1
 60.5674 307.51 0 366.6 0 483 c 4
 0 637.179 116.705 770 275 770 c 4
 413.122 770 595.255 696.668 596 406 c 4
327 57 m 0
 364.419 57 380 126.535 380 172 c 0
 380 217.6 367.8 286 327 286 c 0
 307.8 286 279 260.8 279 172 c 0
 279 129.316 289.435 57 327 57 c 0
169 56 m 0
 199 56 219 103 219 171 c 0
 219 216.6 208.8 285 168 285 c 0
 148.4 285 116 262.2 116 171 c 0
 116 112.5 135.5 56 169 56 c 0
EndSplineSet
EndChar

StartChar: u0B08
Encoding: 109 2824 109
Width: 706
Flags: HMW
LayerCount: 2
Fore
SplineSet
277 712 m 0
 377.883 712 539.345 665.749 540 407 c 0
 540.333 275.333 500.031 180.778 476 131 c 1
 575 -46 l 1
 626 -18 l 1
 540 133 l 1
 562.808 175.575 596.333 276 596 406 c 0
 595.255 696.668 413.122 770 275 770 c 0
 198.5 770 78 727.667 77.8701 629.333 c 0
 77.8481 612.696 78.6667 594.667 80.3271 577.994 c 1
 32.3333 557 -1 512.667 0 450 c 0
 1.38379 363.312 43.667 311.333 85 289 c 1
 67 255 58 216.667 58 174 c 0
 58 68.7637 113.772 0 165 0 c 0
 194.333 0 226 20.5 245 58 c 1
 268 19 295 0 323 0 c 0
 388 0 433 68.874 433 174 c 0
 433 271.707 393 346 324 346 c 0
 294.667 346 265 330 247 289 c 1
 228 329 196.333 346 167 346 c 0
 153 345.333 139.667 341 127 333 c 1
 91 352 61 388.663 61 450 c 0
 61 490 91.876 532.923 142 533.132 c 0
 173.323 533.263 204.021 513.315 220 500 c 1
 255 547 l 1
 219.667 573 179.5 587 139 587 c 1
 136.673 598.006 137 605.333 137 618 c 0
 137 685.333 205.432 712 277 712 c 0
327 57 m 0
 289.435 57 279 129.316 279 172 c 0
 279 260.8 307.8 286 327 286 c 0
 367.8 286 380 217.6 380 172 c 0
 380 126.535 364.419 57 327 57 c 0
169 56 m 0
 135.5 56 116 112.5 116 171 c 0
 116 262.2 148.4 285 168 285 c 0
 208.8 285 219 216.6 219 171 c 0
 219 103 199 56 169 56 c 0
EndSplineSet
EndChar

StartChar: u0B09
Encoding: 110 2825 110
Width: 676
Flags: HMW
LayerCount: 2
Fore
SplineSet
262 711.999 m 0
 380 712 510 659 510 407 c 0
 510 275.333 470.031 180.778 446 131 c 1
 545 -46 l 1
 596 -18 l 1
 510 133 l 1
 532.808 175.575 566 276 566 406 c 0
 566 690 416 770 260 769.998 c 0
 110 769.996 0 638.179 0 484 c 0
 0 396.524 36.0225 326.831 82 292 c 1
 66.667 252 59 215 59 181 c 0
 59 36.2002 160.439 0 224 0 c 0
 327.716 0 386 73.2217 386 181 c 0
 386 232.548 347.736 292.698 318 315 c 1
 371 392 l 1
 321 425 l 1
 184 224 l 1
 233 191 l 1
 286 269 l 1
 313.223 247.509 327 207.529 327 181 c 0
 327 110.106 290.995 59 224 59 c 0
 183.85 59 116 83.4004 116 181 c 0
 116 224.6 134.333 299.688 210 399 c 1
 210 399 162.5 434.5 163 435 c 1
 141 409 122 376.667 108 346 c 1
 68.6667 395.333 59 429.692 59 482 c 0
 59 601.016 139 711.998 262 711.999 c 0
EndSplineSet
EndChar

StartChar: u0B0A
Encoding: 111 2826 111
Width: 758
Flags: HMW
LayerCount: 2
Fore
SplineSet
537.002 473.996 m 0
 536.775 424 534 381 528 345 c 1
 606.667 358 658 316.031 658 226 c 0
 658 205.667 644.667 140.667 598 109 c 1
 670 -18 l 1
 619 -46 l 1
 522 124 l 1
 586 162 599.115 204.8 599 225 c 0
 598.667 283.333 566.667 298.667 518.666 284.667 c 1
 518.666 284.667 508.667 246 502 229 c 1
 501.667 228.667 448.333 247.333 448 247 c 1
 466.667 306 480.413 365.752 480.002 470.999 c 0
 479.333 642 376 711.333 261.999 711.992 c 0
 139.001 712.703 58.999 601.009 58.999 481.993 c 0
 59 429.692 68.6667 395.333 108 346 c 1
 122 376.667 142 408 163 435 c 1
 162.5 434.5 210 399 210 399 c 1
 134.333 299.688 116 224.6 116 181 c 0
 116 83.4004 183.85 59 224 59 c 0
 290.995 59 327 110.106 327 181 c 0
 327 207.529 313.223 247.509 286 269 c 1
 233 191 l 1
 184 224 l 1
 321 425 l 1
 371 392 l 1
 318 315 l 1
 347.736 292.698 386 232.548 386 181 c 0
 386 73.2217 327.716 0 224 0 c 0
 160.439 0 59 36.2002 59 181 c 0
 59 215 66.667 252 82 292 c 1
 36.0225 326.831 0 396.524 -0.000976562 483.993 c 0
 -0.000976562 638.172 109.999 769.982 259.999 769.991 c 0
 402.667 770 538 694 537.002 473.996 c 0
EndSplineSet
EndChar

StartChar: u0B0B
Encoding: 112 2827 112
Width: 748
Flags: HMW
LayerCount: 2
Fore
SplineSet
58.9951 481.986 m 0
 58.9796 601.009 134.001 712.703 256.999 711.992 c 0
 371 711.333 469.333 642 470.002 470.999 c 0
 470.413 365.752 456.667 306 438 247 c 1
 438.333 247.333 491.667 228.667 492 229 c 1
 498.667 246 508.666 284.667 508.666 284.667 c 1
 556.667 298.667 588.667 283.333 589 225 c 0
 589.115 204.8 576 162 512 124 c 1
 609 -46 l 1
 660 -18 l 1
 588 109 l 1
 634.667 140.667 648 205.667 648 226 c 0
 648 316.031 596.667 358 518 345 c 1
 524 381 526.775 424 527.002 473.996 c 0
 528 694 397.667 770 254.999 769.991 c 0
 104.999 769.982 -0.007316 638.172 -0.00292969 483.984 c 0
 0 381 68.5 301.5 111 281 c 1
 93.667 251.667 85 217 85 177 c 0
 85 106.625 112.2 0 221 0 c 0
 313.582 0 366 72.541 366 170 c 0
 366 266.471 316.893 347 228 347 c 0
 198.667 347 173.333 340 152 326 c 1
 73 361.5 59 444.5 58.9951 481.986 c 0
223 57 m 0
 158.2 57 142 121.944 142 177 c 0
 142 242.721 172.826 286 229 286 c 0
 293.046 286 309 229.137 309 169 c 0
 309.998 121.073 291.8 57 223 57 c 0
EndSplineSet
EndChar

StartChar: u0B0C
Encoding: 113 2828 113
Width: 462
Flags: HMW
LayerCount: 2
Fore
SplineSet
274.6 235.6 m 0
 317.997 236.257 355.993 209.513 356.2 143.8 c 0
 356.4 80.4 299.601 42.9004 199 43 c 0
 112.724 43.0859 -0.200195 110.002 -0.200195 250.9 c 0
 -0.200195 340.854 79.0127 398.977 161.35 448.9 c 0
 261.214 509.451 299.6 530.4 299.801 603.001 c 0
 299.92 646 273.85 679.3 212.2 679.3 c 0
 167.2 679.3 144.7 661.3 144.7 625.3 c 0
 144.7 594.924 182.95 580.3 191.5 575.35 c 1
 172.6 530.8 l 1
 154.254 538.562 91.5996 568.6 91.5996 625.3 c 0
 91.5996 673.811 115.72 731.5 212.2 731.5 c 0
 302.65 731.5 350.693 679.598 352 601.201 c 0
 353.6 505.2 270.25 459.35 196 413 c 0
 128.373 370.784 53.7998 325.746 53.7998 250.9 c 0
 53.7998 160.775 108.772 86.3584 221.65 90.7002 c 1
 209.05 108.1 201.4 130 201.4 151 c 0
 201.4 199.669 235 235 274.6 235.6 c 0
304.9 145.6 m 0
 304.9 171.4 296.35 184.3 277 184.3 c 0
 262.6 184.3 253.6 173.05 253.6 151 c 0
 253.6 136.15 258.815 118.375 271.15 103.3 c 1
 294.1 109.6 304.383 131.006 304.9 145.6 c 0
EndSplineSet
EndChar

StartChar: u0B0F
Encoding: 114 2831 114
Width: 629
Flags: HW
LayerCount: 2
Fore
SplineSet
519 -47 m 5
 -15 487 l 1
 27 527 l 1
 460 93 l 5
 460 671 l 5
 249 460 l 5
 207 502 l 5
 519 812 l 5
 519 -47 l 5
EndSplineSet
EndChar

StartChar: u0B10
Encoding: 115 2832 115
Width: 757
Flags: HW
LayerCount: 2
Fore
SplineSet
519 358.999 m 1
 588 359 l 1
 588 0 l 1
 647 0 l 1
 647 744 l 1
 664.5 774 673 803.096 673 830 c 0
 674.136 875.442 646.874 950 531 950 c 0
 448.523 950 379 878 301 878 c 0
 244.113 878 213.691 922.844 201 937 c 1
 152 907 l 1
 205.064 829.818 269.95 820 301 820 c 0
 379.883 820 436 894 531 894 c 0
 592.5 894 615 858 615 828 c 0
 615 799.5 597.5 770 588 755 c 1
 588 417 l 1
 519 417.001 l 1
 519 812 l 1
 207 502 l 1
 249 460 l 1
 460 671 l 1
 460 93 l 1
 27 527 l 1
 -15 487 l 1
 519 -47 l 1
 519 358.999 l 1
EndSplineSet
EndChar

StartChar: u0B13
Encoding: 116 2835 116
Width: 634
Flags: W
HStem: 0 59<177.072 358.7> 713 57<309.834 425.202>
VStem: 0 59<194.176 474.258> 224 58<614 684.129> 457 58<529.348 679.447> 469 55<168.959 364.782>
LayerCount: 2
Fore
SplineSet
454 454 m 5xf8
 506.71 401.29 524.219 341.068 524 261 c 4
 523.5 78 369.557 0 262 0 c 4
 96.2285 0 0 142.961 0 318 c 4
 0 505.6 114.64 741.626 135 787 c 5
 186 761 l 5
 144.996 668.742 59 482.209 59 319 c 4
 59 103.152 196.219 59 264 59 c 4
 369.03 59 469 132.375 469 262 c 4xf4
 469 353.2 432.059 396.256 412 414 c 5
 358 372 l 5
 323 422 l 5
 346.056 436.966 457 498.8 457 614 c 4
 457 672.237 419.8 713 364 713 c 4
 314.8 713 282 673.4 282 614 c 5
 224 614 l 5
 224 692.67 270.677 770 364 770 c 4
 453.625 770 515 709.487 515 614 c 4
 515 544.289 489.874 491.111 454 454 c 5xf8
EndSplineSet
EndChar

StartChar: u0B14
Encoding: 117 2836 117
Width: 757
Flags: HW
LayerCount: 2
Fore
SplineSet
511.682 359.001 m 1
 520.539 329.659 524.099 297.378 524 261 c 0
 523.5 78 369.557 0 262 0 c 0
 96.2285 0 0 142.961 0 318 c 0
 0 505.6 114.64 741.626 135 787 c 1
 186 761 l 1
 144.996 668.742 59 482.209 59 319 c 0
 59 103.152 196.219 59 264 59 c 0
 369.03 59 469 132.375 469 262 c 0
 469 353.2 432.059 396.256 412 414 c 1
 358 372 l 1
 323 422 l 1
 346.056 436.966 457 498.8 457 614 c 0
 457 672.237 419.8 713 364 713 c 0
 314.8 713 282 673.4 282 614 c 1
 224 614 l 1
 224 692.67 270.677 770 364 770 c 0
 453.625 770 515 709.487 515 614 c 0
 515 544.289 489.874 491.111 454 454 c 1
 465.903 442.097 476.011 429.811 484.524 417.001 c 1
 588 417 l 1
 588 755 l 1
 597.5 770 615 799.5 615 828 c 0
 615 858 592.5 894 531 894 c 0
 436 894 379.883 820 301 820 c 0
 269.95 820 205.064 829.818 152 907 c 1
 201 937 l 1
 213.691 922.844 244.113 878 301 878 c 0
 379 878 448.523 950 531 950 c 0
 646.874 950 674.136 875.442 673 830 c 0
 673 803.096 664.5 774 647 744 c 1
 647 0 l 1
 588 0 l 1
 588 359 l 1
 511.682 359.001 l 1
EndSplineSet
EndChar

StartChar: u0B15
Encoding: 118 2837 118
Width: 698
Flags: W
HStem: 0 54<174.116 281.478> 283 64<174.071 284.717 371.316 459.896> 715 55<194.36 407.829>
VStem: 0 58<397.41 588.43> 85 59<85.7385 251.637> 310 58<0 29 84.0744 256.663> 464 58<0 282.328> 530 58<400.098 600.33>
LayerCount: 2
Fore
SplineSet
304 770 m 0
 486.688 770 590.604 641.476 588 510 c 0
 588 454.4 568.159 398.027 560 371 c 1
 506 392 l 1
 517.959 435.351 530 474.807 530 509 c 0
 530 617.203 448.791 715 303 715 c 0
 152.604 715 58 611.625 58 499 c 0
 58 460.49 66.3252 364.28 152 326 c 1
 173.333 340 198.667 347 228 347 c 0
 268 347 300 333 324 305 c 1
 341.667 331.333 370.333 347.333 415 347 c 0
 494.332 346.408 522 290.825 522 240 c 2
 522 0 l 1
 464 0 l 1
 464 240 l 2
 464 272 447.667 288 415 288 c 0
 383.667 288 368 272 368 240 c 2
 368 0 l 1
 310 0 l 1
 310 29 l 1
 286 9.66699 256.333 0 221 0 c 0
 112.2 0 85 106.625 85 177 c 0
 85 217 93.667 251.667 111 281 c 1
 69.9297 305.307 0 367 0 496 c 0
 0 639.616 120.016 770 304 770 c 0
225 54 m 0
 293.8 54 311.998 118.073 311 166 c 0
 311 226.137 295.046 283 231 283 c 0
 174.826 283 144 239.721 144 174 c 0
 144 118.944 160.2 54 225 54 c 0
EndSplineSet
EndChar

StartChar: u0B16
Encoding: 119 2838 119
Width: 638
Flags: HW
LayerCount: 2
Fore
SplineSet
469 561.997 m 1
 436.872 505.777 401.2 491 356 491 c 0
 267.192 491 227 575.2 227 642 c 0
 227 663.333 231 687 239 711 c 1
 120 688.667 58 599.912 58 499 c 0
 58 460.49 66.3252 364.28 152 326 c 1
 173.333 340 198.667 346.901 228 347 c 0
 326.667 347.333 369.789 256.141 367.997 167.326 c 24
 366.245 80.4814 327.333 0 221 0 c 0
 112.2 0 85 106.625 85 177 c 0
 85 217 93.667 251.667 111 281 c 1
 69.9297 305.307 0 367 0 496 c 0
 0 639.616 105.016 769.997 289.006 769.999 c 0
 311.173 769.999 320.667 770 334.658 766.002 c 1
 288.667 725.333 284.373 668.998 284 639 c 0
 283.333 585.333 312.335 547.551 357 548 c 0
 423.333 548.667 462 633.333 470 676.989 c 9
 470 770 l 1
 528 770 l 1
 528 0 l 1
 469 0 l 1
 469 561.997 l 1
225 54 m 0
 293.8 54 311.998 118.073 311 166 c 0
 311 226.137 295.046 283 231 283 c 0
 174.826 283 144 239.721 144 174 c 0
 144 118.944 160.2 54 225 54 c 0
EndSplineSet
EndChar

StartChar: u0B17
Encoding: 120 2839 120
Width: 638
Flags: HW
LayerCount: 2
Fore
SplineSet
225 54 m 0
 293.8 54 311.998 118.073 311 166 c 0
 311 226.137 295.046 283 231 283 c 0
 174.826 283 144 239.721 144 174 c 0
 144 118.944 160.2 54 225 54 c 0
288.002 714.999 m 0
 137.403 715.974 58 611.625 58 499 c 0
 58 460.49 66.3252 364.28 152 326 c 1
 173.333 340 198.667 346.901 228 347 c 0
 326.667 347.333 369.789 256.141 367.997 167.326 c 24
 366.245 80.4814 327.333 0 221 0 c 0
 112.2 0 85 106.625 85 177 c 0
 85 217 93.667 251.667 111 281 c 1
 69.9297 305.307 0 367 0 496 c 0
 0 639.616 105.016 769.997 289.006 769.999 c 0
 367.333 770 424.667 739.333 470 699 c 1
 470 770 l 1
 528 770 l 1
 528 0 l 1
 469 0 l 1
 469 626 l 1
 400.095 699.713 339.333 714.667 288.002 714.999 c 0
EndSplineSet
EndChar

StartChar: u0B18
Encoding: 121 2840 121
Width: 638
Flags: HW
LayerCount: 2
Fore
SplineSet
138.667 332 m 1
 150.67 353.332 166.333 376.333 185 395 c 1
 225 353 l 1
 196.004 324.004 160 264.8 160 206 c 0
 160 171.678 173.4 127 227 127 c 0
 258.333 127 309 157.667 309 188 c 2
 309 325 l 1
 367 325 l 1
 367 188 l 2
 367 155.667 398.563 127.41 424 127 c 0
 444.667 126.667 466 143.333 469 157.329 c 1
 469 626 l 1
 400.095 699.713 339.333 714.667 288.002 714.999 c 0
 137.403 715.974 58 611.625 58 499 c 0
 58 460.49 68 371.333 138.667 332 c 1
114.667 279.331 m 1
 73.3333 302 0 367 0 496 c 0
 0 639.616 105.016 769.997 289.006 769.999 c 0
 367.333 770 424.667 739.333 470 699 c 1
 470 770 l 1
 528 770 l 1
 528 0 l 1
 469 0 l 1
 469 87 l 1
 456.667 76 438.667 70 424 70 c 0
 382.626 70 347.333 101.333 337 121 c 1
 324.667 101.333 283.333 70 227 70 c 0
 143.665 70 102 131.076 102 208 c 0
 102 232.667 104.667 252.664 114.667 279.331 c 1
EndSplineSet
EndChar

StartChar: u0B19
Encoding: 122 2841 122
Width: 754
Flags: HW
LayerCount: 2
Fore
SplineSet
260 769.998 m 0
 110 769.996 0 638.179 0 484 c 0
 0 396.524 36.0225 326.831 82 292 c 1
 66.667 252 59 215 59 181 c 0
 59 36.2002 160.439 0 224 0 c 0
 327.716 0 386 73.2217 386 181 c 0
 386 232.548 347.736 292.698 318 315 c 1
 371 392 l 1
 321 425 l 1
 184 224 l 1
 233 191 l 1
 286 269 l 1
 313.223 247.509 327 207.529 327 181 c 0
 327 110.106 290.995 59 224 59 c 0
 183.85 59 116 83.4004 116 181 c 0
 116 224.6 134.333 299.688 210 399 c 1
 210 399 162.5 434.5 163 435 c 1
 141 409 122 376.667 108 346 c 1
 68.6667 395.333 59 429.692 59 482 c 0
 59 601.016 139 711.998 262 711.999 c 0
 367 712 435 606.768 435 519 c 1
 433 491 l 0
 430 438 453.407 356.98 535 358 c 0
 615 359 644 418.318 644 483 c 24
 644 548.846 610 616 540 616 c 0
 516.667 616 496.667 610.667 480 600 c 1
 436 730 348.709 769.998 260 769.998 c 0
536 419 m 256
 499.2 419 490 457.722 490 493 c 0
 490 521.95 497.2 559 538 559 c 0
 574.38 559 588 519.109 588 488 c 0
 589.27 449.91 571.043 419 536 419 c 256
EndSplineSet
EndChar

StartChar: u0B1A
Encoding: 123 2842 123
Width: 651
Flags: HW
LayerCount: 2
Fore
SplineSet
58 499 m 0
 58 460.487 66.3252 364.28 152 326 c 1
 173.333 340 198.667 346.901 228 347 c 0
 326.667 347.333 369.789 256.141 367.997 167.326 c 24
 366.245 80.4814 327.333 0 221 0 c 0
 112.2 0 85 106.625 85 177 c 0
 85 217 93.667 251.667 111 281 c 1
 69.9297 305.307 0 366.998 0 496 c 0
 0 615.998 92 770 274.006 769.999 c 0
 417 769.998 541 656 541 512 c 0
 541 450.858 527 414 514 370 c 1
 460 388 l 1
 475.333 437.333 483 478.667 483 512 c 0
 483 635 368 715 273.002 714.999 c 256
 136 714.998 58 611.622 58 499 c 0
225 54 m 0
 293.8 54 311.998 118.073 311 166 c 0
 311 226.137 295.046 283 231 283 c 0
 174.826 283 144 239.721 144 174 c 0
 144 118.944 160.2 54 225 54 c 0
EndSplineSet
EndChar

StartChar: u0B1B
Encoding: 124 2843 124
Width: 617
Flags: HW
LayerCount: 2
Fore
SplineSet
388 244 m 0
 475.633 244 507 171.855 507 123 c 0
 507 81.2373 483.2 0 388 0 c 0
 350 0 304.667 26.333 252 79 c 1
 219.813 45.0732 170.4 0 116 0 c 0
 23.2002 0 0 84.7998 0 122 c 0
 0 162.38 23.2002 243 116 243 c 0
 132 242 l 1
 130 253.333 128 274 128 293 c 0
 128 322.333 133.333 349 144 373 c 1
 76.417 408.199 24 472.881 24 557 c 0
 24 699.36 148.737 770 262 770 c 0
 356 770 498 702.805 498 555 c 0
 498 521 490.667 484.667 476 444 c 1
 422 465 l 1
 434.667 502.333 441 532 441 556 c 0
 441 662.449 341.5 711.5 263 712 c 0
 182.08 712.515 83 668.744 83 559 c 0
 83 499.132 122.9 442.367 184 422 c 1
 205.333 436 229.333 443 256 443 c 0
 336.88 443 378 373.785 378 287 c 0
 378 275 376.333 260.333 373 243 c 1
 388 244 l 0
253 172 m 1
 302.667 210.667 320.667 247.333 320 294 c 0
 319.477 330.663 307 384 255 384 c 256
 198.2 384 184 329.518 184 295 c 0
 184 255.4 206 206 253 172 c 1
389 59 m 0
 433.333 58.667 449.333 95.333 449 123 c 0
 448.635 153.333 431.333 185.333 389 185 c 0
 357.412 184.751 327.291 157.852 294 122 c 1
 324.227 87.1221 355.979 59.248 389 59 c 0
57 123 m 0
 57 83.1006 78.1064 60 114 60 c 0
 152.8 60 179.536 90.6621 211 123 c 1
 187.908 146.092 155.932 185 115 185 c 0
 80.2002 185 57 160.2 57 123 c 0
EndSplineSet
EndChar

StartChar: u0B1C
Encoding: 125 2844 125
Width: 651
Flags: W
HStem: 714.999 55<176.674 357.912>
VStem: 0 58<386.163 594.399> 37 60<103.178 304.665> 171 58<123.561 318.339> 483 58<392.408 597.776>
LayerCount: 2
Fore
SplineSet
57.7773 313.556 m 1xd8
 43.3652 280.516 37 247.257 37 212 c 0
 37 35.4873 131.8 0 195 0 c 0
 270.823 0 296.369 53.9971 302 73 c 1
 266.011 94.3984 229 131 229 218 c 0
 229 346.475 298 375 344 375 c 1
 344 0 l 1
 402 0 l 1
 402 427 l 1
 274 445 171 387.44 171 217 c 0
 171 137.35 204.055 80.8965 225 59 c 1
 165 47.5 97 65 97 211 c 0xb8
 97 291 145.544 363.192 195 411 c 1
 156 455 l 1
 133.778 434.444 105.556 402 87.7031 373.105 c 1
 64 406.667 58 446.072 58 499.003 c 0
 58 611.625 136 714.998 273.002 714.999 c 256
 368 715 483 635 483 512 c 0
 483 478.667 475.333 437.333 460 388 c 1
 514 370 l 1
 527 414 541 450.858 541 512 c 0
 541 656 417 769.998 274.006 769.999 c 0
 92 770 0 616 0 496.002 c 0
 -2.54313e-06 413.917 21.1035 353.546 57.7773 313.556 c 1xd8
EndSplineSet
EndChar

StartChar: u0B1D
Encoding: 126 2845 126
Width: 613
Flags: HW
LayerCount: 2
Fore
SplineSet
357 548 m 0
 312.345 549.063 283.333 585.333 284 639 c 0
 284.373 668.998 288.667 725.333 334.658 766.002 c 1
 320.667 770 311.173 769.999 289.006 769.999 c 0
 105.016 769.997 0 639.616 0 496 c 0
 0 366.998 69.9297 305.307 111 281 c 1
 93.667 251.667 85 217 85 177 c 0
 85 106.625 112.2 0 221 0 c 0
 279.227 -1.27157e-06 317.237 24.1327 340 60.2285 c 1
 399 -46 l 1
 450 -18 l 1
 365.004 131.5 l 1
 366.782 143.183 367.752 155.193 367.997 167.326 c 8
 369.789 256.141 326.667 347.333 228 347 c 0
 198.667 346.901 173.333 340 152 326 c 1
 66.3252 364.28 58 460.487 58 499 c 0
 58 599.912 120 688.667 239 711 c 1
 231 687 227 663.333 227 642 c 0
 227 575.2 267.192 491 356 491 c 0
 424.4 491 494 524 523 708 c 1
 469 721 l 1
 460.199 679.931 441 546 357 548 c 0
225 54 m 0
 160.2 54 144 118.944 144 174 c 0
 144 239.721 174.826 283 231 283 c 0
 295.046 283 311 226.137 311 166 c 0
 311.998 118.073 293.8 54 225 54 c 0
EndSplineSet
EndChar

StartChar: u0B1E
Encoding: 127 2846 127
Width: 678
Flags: W
HStem: 0 58<183.534 398.472> 710 60<401.034 492.729>
VStem: 0 58<169.066 395.881> 45 56<548.913 723.615> 158 59<629.254 701.439> 292 57<251 389.543> 336 57<605 700.109> 501 61<158.801 364.961>
LayerCount: 2
Fore
SplineSet
445 770 m 0xdb
 543.441 769.969 573.012 683.47 568 611 c 0
 563.296 542.974 524 488.333 480 449 c 1
 526.092 419.524 561.489 372.534 562 261 c 0
 562.667 115.333 462 0 293 0 c 0
 126 0 0 107.333 0 254 c 0
 0 368 21.3333 417.333 31.9932 435.996 c 1
 86 413 l 1
 73.3333 394 58 348.667 58 252 c 0
 58 135.333 170.667 58 291 58 c 0
 420.002 58 500.667 126.667 501 261 c 0
 501.297 380.753 446.013 407.045 424 413 c 1
 405.637 404.363 385.646 397.354 364 392 c 1
 356 384.333 349 366.612 349 351 c 2
 349 251 l 1
 292 251 l 1
 292 350 l 2xed
 292 364.736 283.333 380.333 271 390 c 1
 249.333 393 223.333 402.333 209 410 c 1
 183.871 402.4 157.714 380.2 158 336 c 0
 158.129 316.112 164.112 300.859 172 288 c 1
 124 259 l 1
 118.61 270.976 92.8809 314.627 103.685 365.744 c 0
 108.926 390.54 124.894 422.046 152 441.667 c 1
 106 470.333 45 539.333 45 615 c 1
 46 707.333 75.6 754.4 91 770 c 1
 141 750 l 1
 122.4 730.4 100.667 691.333 101 616 c 0
 101.416 522.001 217.14 440.042 325 444 c 0
 430.618 447.876 506.532 538.523 510 613 c 0
 512.181 659.824 499.489 710.673 446 710 c 0
 421.684 709.694 393 693.267 393 668 c 2
 393 605 l 1
 336 605 l 1
 336 668 l 2
 336 694.405 302.05 712.885 267 711 c 0
 225.229 708.754 217.558 678.861 217 667 c 0
 217.16 644.154 223.256 634.34 228 629 c 1
 190 586.6 l 1
 166.925 608.166 156.648 640.077 158 668 c 0
 160.835 726.568 216.058 768.574 267 770 c 0
 295.113 770.787 336.205 760.418 361 734 c 1
 367.096 743.234 386.975 770.019 445 770 c 0xdb
EndSplineSet
EndChar

StartChar: u0B1F
Encoding: 128 2847 128
Width: 638
Flags: W
HStem: 0 54<174.116 281.223> 283 64<174.292 284.458> 714.999 55<170.83 364.225>
VStem: 0 58<397.41 601.582> 85 59<85.7385 251.637> 311 56.997<86.5121 254.836> 469 58<376 622.924 698 770>
LayerCount: 2
Fore
SplineSet
225 54 m 4
 293.8 54 311.998 118.073 311 166 c 4
 311 226.137 295.046 283 231 283 c 4
 174.826 283 144 239.721 144 174 c 4
 144 118.944 160.2 54 225 54 c 4
469 583.796 m 5
 440 665.333 352.162 714.999 273.002 714.999 c 260
 122.403 715.974 58 611.625 58 499 c 4
 58 460.49 66.3252 364.28 152 326 c 5
 173.333 340 198.667 346.901 228 347 c 4
 326.667 347.333 369.789 256.141 367.997 167.326 c 28
 366.245 80.4814 327.333 0 221 0 c 4
 112.2 0 85 106.625 85 177 c 4
 85 217 93.667 251.667 111 281 c 5
 69.9297 305.307 0 367 0 496 c 4
 0 639.616 90.0156 769.997 274.006 769.999 c 4
 341.291 769.999 416 748 470 698 c 5
 470 770 l 5
 528 770 l 5
 527 376 l 5
 469 376 l 5
 469 583.796 l 5
EndSplineSet
EndChar

StartChar: u0B20
Encoding: 129 2848 129
Width: 717
Flags: HW
LayerCount: 2
Fore
SplineSet
607 387 m 0
 607 176.438 477.022 0 303 0 c 0
 141.264 0 -3.61532e-18 167.476 0 387 c 256
 0 598.203 131.891 770 303 770 c 256
 469.792 770 608.371 607.575 607 387 c 0
551 387 m 0
 551 568.241 443.639 711 304 711 c 0
 182.3 711 60 584.056 60 387 c 0
 60 215.161 157.6 58 304 58 c 0
 436.427 58 551 202.837 551 387 c 0
EndSplineSet
EndChar

StartChar: u0B21
Encoding: 130 2849 130
Width: 651
Flags: W
HStem: 0 59<160.071 286.716> 714.999 55<176.674 357.912>
VStem: 0 58<387.243 594.849> 59 57<103.735 276.6> 327 59<101.442 247.268> 483 58<392.408 597.776>
LayerCount: 2
Fore
SplineSet
0 496.002 m 4
 0 616 92 770 274.006 769.999 c 4
 417 769.998 541 656 541 512 c 4
 541 450.858 527 414 514 370 c 5
 460 388 l 5
 475.333 437.333 483 478.667 483 512 c 4
 483 635 368 715 273.002 714.999 c 260
 136 714.998 58 611.625 58 499.003 c 4
 58 434 65.3333 396.667 108 346 c 5
 122 376.667 141 409 163 435 c 5
 162.5 434.5 210 399 210 399 c 5
 134.333 299.688 116 224.6 116 181 c 4
 116 83.4004 183.85 59 224 59 c 4
 290.995 59 327 110.106 327 181 c 4
 327 207.529 313.223 247.509 286 269 c 5
 233 191 l 5
 184 224 l 5
 321 425 l 5
 371 392 l 5
 318 315 l 5
 347.736 292.698 386 232.548 386 181 c 4
 386 73.2217 327.716 0 224 0 c 4
 160.439 0 59 36.2002 59 181 c 4
 59 215 66.667 252 82 292 c 5
 32 330 0 398 0 496.002 c 4
EndSplineSet
EndChar

StartChar: u0B22
Encoding: 131 2850 131
Width: 651
Flags: HW
LayerCount: 2
Fore
SplineSet
116.001 181.999 m 0
 116 84.4004 208.875 60 253 60 c 0
 283.667 60 311 70 335 90 c 1
 297 116 245 171.333 245 238 c 0
 245 331 278 388 345 388 c 0
 424 388 452 323.483 452 236 c 0
 452 175 438 132 416 101 c 1
 448.667 84.333 480.333 73.333 511 68 c 1
 504 11 l 1
 462 16.333 421.667 31.333 383 56 c 1
 347.667 18.667 304.333 0 253 0 c 0
 190.884 0 59 36.2002 59 181 c 0
 59 215 66.667 252 82 292 c 1
 32 330 0 398 0 496.002 c 0
 0 616 92 770 274.006 769.999 c 0
 417 769.998 541 656 541 512 c 0
 541 450.858 527 414 514 370 c 1
 460 388 l 1
 475.333 437.333 483 478.667 483 512 c 0
 483 635 368 715 273.002 714.999 c 256
 136 714.998 58 611.625 58 499.003 c 0
 58 434 65.333 396.667 108 346 c 1
 122 376.667 142 406 163 435 c 1
 162.5 434.5 210 399 210 399 c 1
 134.333 299.688 116.001 225.599 116.001 181.999 c 0
351 329 m 0
 323 329 304 300 304 236 c 0
 304 191.333 339 151 371 130 c 1
 386 154 398 190 397.455 238 c 0
 396.9 286.808 393 329 351 329 c 0
EndSplineSet
EndChar

StartChar: u0B23
Encoding: 132 2851 132
Width: 621
Flags: HW
LayerCount: 2
Fore
SplineSet
282 770 m 0
 307.451 770 374.532 767.749 453 698 c 1
 453 770 l 1
 511 770 l 1
 510 0 l 1
 452 0 l 1
 452 610 l 1
 419.348 660.938 360.967 711 281 711 c 0
 216.41 711 177 671.234 177 604 c 0
 177 577.333 182 560.333 192 553 c 1
 226.272 533.809 265.629 498.932 294 474 c 1
 252 432 l 1
 235.66 447.173 202.36 480.321 163 500 c 1
 95.1367 500 70.4688 442.127 61 379 c 1
 242.566 379 393 333.4 393 151 c 0
 393 55.375 330.885 0 249 0 c 0
 112.396 0 0 136.836 0 317 c 0
 0 441.007 33.9844 525.286 131 552 c 1
 128.369 569.702 123.855 585.521 125 607 c 0
 125 675.725 156.4 770 282 770 c 0
249 53 m 0
 290.496 53 335.473 83.1133 334 145 c 0
 334 285 208.667 320 101 320 c 0
 78.6567 320 65.3333 318.667 59 318 c 1
 59 162.043 138.934 53 249 53 c 0
EndSplineSet
EndChar

StartChar: u0B24
Encoding: 133 2852 133
Width: 651
Flags: W
HStem: 0 57.001<164.766 337.432> 714.999 55<176.674 357.912>
VStem: 0 58<387.243 594.849> 59 57<105.652 276.6> 388 58<108.296 272.742> 483 58<392.408 597.776>
LayerCount: 2
Fore
SplineSet
261 0 m 0
 373.333 0 446 75.4 446 184 c 0
 446 289.333 394 350 346 377 c 1
 318 324 l 1
 352 308 388 253.333 388 185 c 0
 388 105.7 338.667 57.001 260 57.001 c 0
 172.667 57.001 116 91.3333 116 181 c 0
 116 224.6 134.333 299.688 210 399 c 1
 210 399 162.5 434.5 163 435 c 1
 141 409 122 376.667 108 346 c 1
 65.3333 396.667 58 434 58 499.003 c 4
 58 611.625 136 714.998 273.002 714.999 c 260
 368 715 483 635 483 512 c 4
 483 478.667 475.333 437.333 460 388 c 5
 514 370 l 5
 527 414 541 450.858 541 512 c 4
 541 656 417 769.998 274.006 769.999 c 4
 92 770 0 616 0 496.002 c 4
 0 398 32 330 82 292 c 1
 66.667 252 59 215 59 181 c 0
 59 61.3333 128.667 0 261 0 c 0
EndSplineSet
EndChar

StartChar: u0B25
Encoding: 134 2853 134
Width: 620
Flags: W
HStem: 1 57<159.993 349.598> 706 59<169.986 300.9>
VStem: 0 58<148.608 305.523> 70.0078 58.0002<576 662.875> 325 61.008<546.37 680.962> 452 58<139.383 163>
LayerCount: 2
Fore
SplineSet
325 619 m 0
 325 575.667 309.333 546.333 278 517 c 0
 224.294 469.491 113.56 426.194 58 369 c 0
 19.333 330.333 0 284 0 230 c 0
 0 81.9619 119.113 1 265 1 c 0
 339.8 1 412.382 48.7842 452 84 c 1
 452 0 l 1
 510 0 l 1
 510 770 l 1
 452 770 l 1
 452 163 l 1
 403.425 105.317 337.516 58 265 58 c 0
 151.296 58 58 121.973 58 228 c 0
 58 272.667 77 314 108 337 c 0
 191.155 398.696 272.171 425.519 330 485 c 0
 367.333 523 386.266 563.001 386.008 619 c 256
 385.5 729 303.5 765 227.008 765 c 0
 123.069 765 70.0078 683.302 70.0078 576 c 1
 128.008 576 l 1
 128.008 658.267 167.61 705.488 227.008 706 c 0
 285 706.5 325 683.5 325 619 c 0
EndSplineSet
EndChar

StartChar: u0B26
Encoding: 135 2854 135
Width: 651
Flags: HW
LayerCount: 2
Fore
SplineSet
116 181 m 0
 116 224.6 134.333 299.688 210 399 c 1
 210 399 162.5 434.5 163 435 c 1
 141 409 122 376.667 108 346 c 1
 65.3333 396.667 58 434 58 499.003 c 0
 58 611.625 136 714.998 273.002 714.999 c 256
 368 715 483 635 483 512 c 0
 483 478.667 475.333 437.333 460 388 c 1
 514 370 l 1
 527 414 541 450.858 541 512 c 0
 541 656 417 769.998 274.006 769.999 c 0
 92 770 0 616 0 496.002 c 0
 0 398 32 330 82 292 c 1
 66.667 252 59 215 59 181 c 0
 59 -0.4 203.2 0 242 0 c 0
 286.8 0 330 12.8 356 26 c 1
 356 0 l 1
 413 0 l 1
 413 350 l 1
 356 350 l 1
 356 94 l 1
 332.571 72.2857 283.6 58.4 244.8 58.4 c 0
 185.6 58.4 116 88.4 116 181 c 0
EndSplineSet
EndChar

StartChar: u0B27
Encoding: 136 2855 136
Width: 625
Flags: HW
LayerCount: 2
Fore
SplineSet
248 62 m 0
 336.029 62 413 113 458 166 c 1
 458 770 l 1
 515 770 l 1
 514 0 l 1
 457 0 l 1
 457 82 l 1
 410.574 43.6982 334.786 0 247 0 c 0
 118.359 0 0 114.098 0 281 c 0
 0 443.575 100.55 490 185 490 c 1
 -5 728 l 1
 41 764 l 1
 285 461 l 1
 245 420 l 1
 233 429.333 214.667 434 190 434 c 0
 138 434 60 407.05 60 283 c 0
 60 153.641 145.222 62 248 62 c 0
EndSplineSet
EndChar

StartChar: u0B28
Encoding: 137 2856 137
Width: 651
Flags: W
HStem: 0 21G<364.897 423> 0 21G<364.897 423> 714.999 55<176.674 357.912>
VStem: 0 58<400.779 594.849> 53 58<73 180.781> 365 58<0 389> 483 58<392.408 597.776>
LayerCount: 2
Fore
SplineSet
0 496.002 m 0xb6
 0 616 92 770 274.006 769.999 c 0
 417 769.998 541 656 541 512 c 0
 541 450.858 527 414 514 370 c 1
 460 388 l 1
 475.333 437.333 483 478.667 483 512 c 0
 483 635 368 715 273.002 714.999 c 256
 136 714.998 58 611.625 58 499.003 c 0xb6
 58 410.336 91.6 362.8 160 327 c 1
 216.551 391.63 300.891 447 421 447 c 1
 423 0 l 1
 365 0 l 1
 363 389 l 1
 217.793 368.644 111 204.716 111 73 c 1
 53 73 l 1xae
 53 142.333 77 212.333 125 283 c 1
 49.6 328.8 0 388 0 496.002 c 0xb6
EndSplineSet
EndChar

StartChar: u0B2A
Encoding: 138 2858 138
Width: 620
Flags: HW
LayerCount: 2
Fore
SplineSet
241 770 m 4
 371.2 770 434.799 706.94 451 693 c 5
 451 770 l 5
 509 770 l 5
 510 0 l 5
 452 0 l 5
 452 75 l 5
 405.859 37.1406 338.084 0 259 0 c 4
 151.137 0 71 83.2471 71 200 c 4
 71 260.879 79.7988 286.598 102 331 c 5
 60.3008 353.935 0 412.2 0 534 c 4
 0 668.667 120 770 241 770 c 4
128 199 m 4
 128 117.932 179.6 57 257 57 c 4
 367.499 57 436.628 140.022 451 154 c 5
 451 614 l 5
 390.039 677.864 327.8 711 241 711 c 4
 132 711 58 612.667 58 534 c 4
 58 442.2 102.701 398.915 130 381 c 5
 130 381 149.556 410.444 156 417 c 5
 199 378 l 5
 179.793 348.915 128 282.954 128 199 c 4
EndSplineSet
EndChar

StartChar: u0B2B
Encoding: 139 2859 139
Width: 775
Flags: HW
LayerCount: 2
Fore
SplineSet
0 534 m 0
 0 412.2 60.3008 353.935 102 331 c 1
 79.7988 286.598 71 260.879 71 200 c 0
 71 83.2471 151.137 0 259 0 c 0
 338.084 0 405.859 37.1406 452 75 c 1
 452 0 l 1
 510 0 l 1
 509 546 l 1
 531.724 525.342 557.001 505.264 589 505 c 0
 649.5 504.5 685.401 560.877 685 619 c 0
 684.5 691.5 643.5 743 577 743 c 0
 546.65 743 526.5 729.5 509 710.5 c 1
 509 770 l 1
 451 770 l 1
 451 693 l 1
 434.799 706.94 371.2 770 241 770 c 0
 120 770 0 668.667 0 534 c 0
58 534 m 0
 58 612.667 132 711 241 711 c 0
 327.8 711 390.039 677.864 451 614 c 1
 451 154 l 1
 436.628 140.022 367.499 57 257 57 c 0
 179.6 57 128 117.932 128 199 c 0
 128 282.954 179.793 348.915 199 378 c 1
 156 417 l 1
 149.556 410.444 130 381 130 381 c 1
 102.701 398.915 58 442.2 58 534 c 0
578 561 m 0
 557 561 533.801 591.845 512 617 c 1
 521.368 636.321 537.086 685.456 573 686 c 0
 606 686.5 625 653.674 625 622 c 0
 625 592 614.503 561 578 561 c 0
EndSplineSet
EndChar

StartChar: u0B2C
Encoding: 140 2860 140
Width: 651
Flags: W
HStem: 0 54<174.116 281.381> 283 64<174.292 284.458> 714.999 55<176.674 357.912>
VStem: 0 58<397.409 594.847> 85 59<85.7385 251.637> 311 58<86.0035 254.271> 483 58<392.408 597.776>
LayerCount: 2
Fore
SplineSet
367.997 167.326 m 2
 367.437 260.794 326.667 347.333 228 347 c 0
 198.667 346.901 173.333 340 152 326 c 1
 66.3252 364.28 58 460.487 58 499 c 0
 58 611.622 136 714.998 273.002 714.999 c 256
 368 715 483 635 483 512 c 0
 483 478.667 475.333 437.333 460 388 c 1
 514 370 l 1
 527 414 541 450.858 541 512 c 0
 541 656 417 769.998 274.006 769.999 c 0
 92 770 0 615.998 0 496 c 0
 0 366.998 69.9297 305.307 111 281 c 1
 93.667 251.667 85 217 85 177 c 0
 85 106.625 112.2 0 221 0 c 0
 260.272 1.90735e-06 288.597 9.77832 311 28 c 1
 311 0 l 1
 369 0 l 1
 367.997 167.326 l 2
225 54 m 0
 160.2 54 144 118.944 144 174 c 0
 144 239.721 174.826 283 231 283 c 0
 295.046 283 311 226.137 311 166 c 0
 311.998 118.073 293.8 54 225 54 c 0
EndSplineSet
EndChar

StartChar: u0B2D
Encoding: 141 2861 141
Width: 706
Flags: HW
LayerCount: 2
Fore
SplineSet
224 58.999 m 0
 183.85 58.9986 116 83.4004 116 181 c 0
 116 256.5 158.062 338.999 208.728 399.999 c 1
 208.728 399.999 162.5 434.5 163 435 c 1
 147 415 122 376.667 108 346 c 1
 68.6667 395.333 59 429.692 59 482 c 0
 59 601.016 155 711.998 282 711.999 c 0
 404 712 540 632 540 407 c 0
 540 275.333 500.031 180.778 476 131 c 1
 575 -46 l 1
 626 -18 l 1
 540 133 l 1
 562.808 175.575 596 276 596 406 c 0
 596 666 443 770 280 769.998 c 0
 127.667 769.996 0 638.179 0 484 c 0
 0 396.524 36.0225 326.831 82 292 c 1
 66.667 252 59 215 59 181 c 0
 59 36.2002 160.439 0 224 0 c 0
 372 0 419.229 116.661 420 215 c 0
 420.667 300 413.333 344.667 407 374 c 1
 350 360 l 1
 355.333 336.667 360.861 293.344 360 246 c 0
 359.333 209.333 333.6 176.8 292 177 c 0
 259.6 177.156 238 201.333 238 239 c 0
 238 293.104 259.611 327.409 279.168 361.75 c 1
 279.25 362 238.25 392.5 238.335 392.666 c 1
 222.5 371.75 178.837 304.25 179 234 c 0
 179.2 148 242.006 118.281 283 119 c 0
 317.2 119.6 344 136.4 350.804 145.199 c 1
 339 108 312 59 224 58.999 c 0
EndSplineSet
EndChar

StartChar: u0B2E
Encoding: 142 2862 142
Width: 624
Flags: W
HStem: 0 21G<457 514> 0 21G<457 514> 711 59<179.135 366.63>
VStem: 0 60<380.707 584.932> 457 57<0 642.053 703 770>
LayerCount: 2
Fore
SplineSet
259 770 m 4xb8
 341.625 770 407.509 743.409 456 703 c 5
 456 770 l 5
 513 770 l 5
 514 0 l 5
 457 0 l 5
 457 617 l 5
 437.952 646.074 378.6 711 261 711 c 4
 180.904 711 60 644.472 60 482 c 4
 60 374 118.5 308.5 197 281 c 5
 326.994 391.401 l 5
 365.998 347.333 l 5
 50.5 80.75 l 5
 14.5 126 l 5
 149.5 239.5 l 5
 58.04 277.608 0 360.5 0 482 c 4
 0 683.87 153.2 770 259 770 c 4xb8
EndSplineSet
EndChar

StartChar: u0B2F
Encoding: 143 2863 143
Width: 677
Flags: HMW
LayerCount: 2
Back
SplineSet
57 534 m 0
 57 668.667 177 770 298 770 c 0
298 711 m 0
 189 711 115 612.667 115 534 c 0
EndSplineSet
Fore
SplineSet
57 534 m 0
 57 428.638 102.123 370.819 141.295 342.286 c 1
 0 221.75 l 1
 36 176.5 l 1
 133.535 259.714 l 1
 129.667 245.333 128 224.396 128 200 c 0
 128 83.2471 208.137 0 316 0 c 0
 395.084 0 462.859 37.1406 509 75 c 1
 509 0 l 1
 567 0 l 1
 566 770 l 1
 508 770 l 1
 508 693 l 1
 491.799 706.904 428.2 770.326 298 770 c 0
 177 770 57 668.667 57 534 c 0
115 534 m 0
 115 612.667 189 711 298 711 c 0
 384.8 711 447.039 677.864 508 614 c 1
 508 154 l 1
 493.628 140.022 424.499 57 314 57 c 0
 236.6 57 185 117.932 185 199 c 0
 185 258.365 210.896 308.733 232.86 343.431 c 1
 261.428 367.354 l 1
 222.424 411.422 l 1
 187 381 l 1
 159.701 398.915 115 442.2 115 534 c 0
EndSplineSet
EndChar

StartChar: u0B30
Encoding: 144 2864 144
Width: 676
Flags: W
HStem: 0 54<174.116 281.223> 283 64<174.292 284.458> 711.999 57.999<183.061 369.023>
VStem: -0.000976562 58.9258<395.274 577.725> 85 59<85.7385 251.637> 311 56.997<86.5121 254.836> 510 56<245.595 549.014>
LayerCount: 2
Fore
SplineSet
58.9248 481.383 m 0
 58.9229 600.4 149 711.998 272 711.999 c 0
 378 712 509.333 648.667 510 407 c 0
 510.363 275.333 470.031 180.778 446 131 c 1
 545 -46 l 1
 596 -18 l 1
 510 133 l 1
 532.808 175.575 566 276 566 406 c 0
 566 678 410.667 770 270 769.998 c 0
 120 769.996 -0.00227921 638.179 -0.000976562 483.991 c 0
 0 368.4 75.2 301.2 111 281 c 1
 93.667 251.667 85 217 85 177 c 0
 85 106.625 112.2 0 221 0 c 0
 327.333 0 366.245 80.4814 367.997 167.326 c 24
 369.789 256.141 326.667 347.333 228 347 c 0
 198.667 346.901 173.333 340 152 326 c 1
 73.6 364 58.9248 442.87 58.9248 481.383 c 0
225 54 m 0
 160.2 54 144 118.944 144 174 c 0
 144 239.721 174.826 283 231 283 c 0
 295.046 283 311 226.137 311 166 c 0
 311.998 118.073 293.8 54 225 54 c 0
EndSplineSet
EndChar

StartChar: u0B32
Encoding: 145 2866 145
Width: 696
Flags: HW
LayerCount: 2
Fore
SplineSet
586.002 406 m 0
 586 678 421.333 769.996 270 769.998 c 0
 114 770 0 638.179 0 484 c 0
 0 377.488 78.1918 291.687 130 270 c 1
 130 0 l 1
 187 0 l 1
 187 262 l 2
 187 277.333 197.8 290 214 290 c 0
 232 290.667 242 278 242 262 c 2
 242 0 l 1
 299 0 l 1
 299 262 l 18
 299 277.333 309.987 290 327 290 c 0
 344 290 355 278.667 355 262 c 2
 355 0 l 1
 412 0 l 1
 412 262 l 2
 412 308 388.667 348.667 327 349 c 0
 303 349.13 283.667 343 269 331 c 1
 253.667 343 235 349 213 349 c 0
 183.667 349 162 340.667 148 324 c 1
 99.909 346.631 59 409.832 59 482 c 0
 59 601.016 145.333 711.333 272 711.999 c 0
 387.332 712.605 530 645.333 529.999 407 c 0
 530.362 275.334 490.031 180.778 466 131 c 1
 565 -46 l 1
 616 -18 l 1
 530 133 l 1
 552.808 175.575 586.002 276 586.002 406 c 0
EndSplineSet
EndChar

StartChar: u0B33
Encoding: 146 2867 146
Width: 651
Flags: W
HStem: 290 59<187.746 240.853 300.061 353.156> 714.999 55<174.254 357.912>
VStem: 0 58.001<401.007 594.077> 130 57<262 281.268> 242 57<262 289.374> 355 57<262 289.078> 483 58<392.408 597.776>
LayerCount: 2
Fore
SplineSet
58.001 491.999 m 0
 58 618 136 714.998 273.002 714.999 c 256
 368 715 483 635 483 512 c 0
 483 478.667 475.333 437.333 460 388 c 1
 514 370 l 1
 527 414 541 450.858 541 512 c 0
 541 656 417 769.998 274.006 769.999 c 0
 92 770 0 634 0 488.998 c 0
 0 382.486 78.1918 291.687 130 270 c 1
 130 0 l 1
 187 0 l 1
 187 262 l 2
 187 277.333 197.8 290 214 290 c 0
 232 290.667 242 278 242 262 c 2
 242 0 l 1
 299 0 l 1
 299 262 l 18
 299 277.333 309.987 290 327 290 c 0
 344 290 355 278.667 355 262 c 2
 355 0 l 1
 412 0 l 1
 412 262 l 2
 412 308 388.667 348.667 327 349 c 0
 303 349.13 283.667 343 269 331 c 1
 253.667 343 235 349 213 349 c 0
 183.667 349 162 340.667 148 324 c 1
 99.909 346.631 58.0015 419.831 58.001 491.999 c 0
EndSplineSet
EndChar

StartChar: u0B36
Encoding: 147 2870 147
Width: 659
Flags: HW
LayerCount: 2
Fore
SplineSet
244 54 m 0
 179.2 54 163 119.944 163 175 c 0
 163 240.721 193.826 286 250 286 c 0
 314.046 286 330 227.137 330 167 c 0
 330.998 119.073 312.8 54 244 54 c 0
171 329 m 1
 65.0605 364.592 55 432 55 457 c 0
 55 488.844 71.4326 548 138 548 c 0
 156.667 548 173.333 543 188 533 c 1
 302 444 l 1
 338 490 l 1
 229 576 l 1
 219.667 588 215 602.333 215 619 c 0
 215 679 257.667 711 319 711 c 0
 398.967 711 456.5 661.5 490 613 c 1
 490 0 l 1
 548 0 l 1
 549 770 l 1
 491 770 l 1
 491 698 l 1
 449 736 389 770 320 770 c 0
 196.333 770 163 683 163 622 c 0
 163 615.745 163.285 609.975 163.754 604.5 c 1
 145 606 l 0
 47 606.5 0 536.806 0 456 c 0
 0 383.5 49.4971 319.935 130 284 c 1
 112.667 254.667 104 218 104 178 c 0
 104 107.625 131.2 0 240 0 c 0
 346.333 0 385.254 81.1875 386.997 168.326 c 24
 388.786 257.758 345.667 350.333 247 350 c 0
 217.667 349.901 192.333 343 171 329 c 1
EndSplineSet
EndChar

StartChar: u0B37
Encoding: 148 2871 148
Width: 620
Flags: W
HStem: 0 57<186.575 352.107> 711 59<157.072 348.801>
VStem: 0 58<437.253 611.962> 71 57<118.97 294.607> 451 59<0 75 132.947 186 279.5 633.849 693 770>
AnchorPoint: "C" 266 800 basechar 0
LayerCount: 2
Back
SplineSet
0 534 m 0
 0 668.667 120 770 241 770 c 0
241 711 m 0
 132 711 58 612.667 58 534 c 0
EndSplineSet
Fore
SplineSet
241 770 m 0
 371.2 770 434.799 706.94 451 693 c 1
 451 770 l 1
 509 770 l 1
 510 0 l 1
 452 0 l 1
 452 75 l 1
 405.859 37.1406 338.084 0 259 0 c 0
 151.137 0 71 83.2471 71 200 c 0
 71 260.879 79.7988 286.598 102 331 c 1
 60.3008 353.935 0 412.2 0 534 c 0
 0 668.667 120 770 241 770 c 0
58 534 m 0
 58 442.2 102.701 398.915 130 381 c 1
 130 381 149.556 410.444 156 417 c 1
 199 378 l 1
 179.793 348.915 128 282.954 128 199 c 0
 128 117.932 179.6 57 257 57 c 0
 367.499 57 436.628 140.022 451 154 c 1
 451 186 l 1
 93.3242 633.5 l 1
 70.6988 602.551 58 566.588 58 534 c 0
241 711 m 0
 200.032 711 164.009 697.109 135 675.592 c 1
 451 279.5 l 1
 451 614 l 1
 390.039 677.864 327.8 711 241 711 c 0
EndSplineSet
EndChar

StartChar: u0B38
Encoding: 149 2872 149
Width: 623
Flags: HW
AnchorPoint: "C" 266 800 basechar 0
LayerCount: 2
Fore
SplineSet
457 54 m 1
 457 55 287.32 151.251 127.339 249.104 c 1
 344.998 433.333 l 1
 305.994 477.401 l 1
 147 343 l 1
 103 360 60 417 60 482 c 0
 60 644.472 180.904 711 261 711 c 0
 378.6 711 437.952 646.074 457 617 c 1
 457 54 l 1
513 -47 m 1
 513 770 l 1
 456 770 l 1
 456 703 l 1
 407.509 743.409 341.625 770 259 770 c 0
 153.2 770 0 683.87 0 482 c 0
 0 399 49 330 99.5 301.5 c 1
 28.5 241 l 1
 188.481 143.147 513 -46 513 -47 c 1
EndSplineSet
EndChar

StartChar: u0B39
Encoding: 150 2873 150
Width: 651
Flags: HW
AnchorPoint: "C" 266 800 basechar 0
LayerCount: 2
Fore
SplineSet
144.183 18.2568 m 1
 182.83 -0.0871131 223.893 4.45048e-06 242 0 c 0
 286.8 0 330 12.8 356 26 c 1
 356 0 l 1
 413 0 l 1
 413 350 l 1
 356 350 l 1
 356 94 l 1
 332.571 72.2857 283.6 58.4 244.8 58.4 c 0
 185.6 58.4 116 88.4 116 181 c 0
 116 224.6 134.333 299.688 210 399 c 1
 210 399 162.5 434.5 163 435 c 1
 141 409 122 376.667 108 346 c 1
 65.3333 396.667 58 434 58 499.003 c 0
 58 611.625 136 714.998 273.002 714.999 c 256
 368 715 483 635 483 512 c 0
 483 478.667 475.333 437.333 460 388 c 1
 514 370 l 1
 527 414 541 450.858 541 512 c 0
 541 656 417 769.998 274.006 769.999 c 0
 92 770 0 616 0 496.002 c 0
 0 398 32 330 82 292 c 1
 66.667 252 59 215 59 181 c 0
 59 122.649 73.9208 83.1088 95.457 56.3184 c 1
 27 -110 l 1
 235 -151 l 1
 247 -96 l 1
 109 -67 l 1
 144.183 18.2568 l 1
EndSplineSet
EndChar

StartChar: u0B3C
Encoding: 151 2876 151
Width: 14
Flags: W
HStem: -175 115<-317.062 -245.695>
VStem: -329 94<-164.243 -69.2516>
LayerCount: 2
Fore
SplineSet
-281 -60 m 0
 -259.4 -60 -235 -81.2002 -235 -116 c 256
 -235 -146.4 -254.046 -175 -281 -175 c 0
 -307.043 -175 -329.184 -146.004 -329 -116 c 256
 -328.8 -83.4 -307.059 -60 -281 -60 c 0
EndSplineSet
EndChar

StartChar: u0B3D
Encoding: 152 2877 152
Width: 285
Flags: HW
LayerCount: 2
Fore
SplineSet
128 385 m 1
 22 557 l 1
 164 789 l 1
 217 764 l 1
 94 557 l 1
 197 385 l 1
 94 213 l 1
 217 6 l 1
 164 -19 l 1
 22 213 l 1
 128 385 l 1
EndSplineSet
EndChar

StartChar: u0B3E
Encoding: 153 2878 153
Width: 258
Flags: W
HStem: 0 21G<90 147.026> 0 21G<90 147.026>
VStem: 90 57<0 770>
LayerCount: 2
Fore
SplineSet
147 0 m 1xa0
 90 0 l 1
 90 770 l 1
 148 770 l 1
 147 0 l 1xa0
EndSplineSet
EndChar

StartChar: u0B3F
Encoding: 154 2879 154
Width: 14
Flags: W
HStem: 953 58<-462.933 -288.078>
AnchorPoint: "A" -364 794 mark 0
LayerCount: 2
Fore
SplineSet
-113 826 m 1
 -159 793 l 1
 -200.667 858.667 -262 953 -371 953 c 0
 -492.41 953 -550.667 862 -600 791 c 1
 -647 827 l 1
 -594.667 899.333 -515.819 1011 -370 1011 c 0
 -238 1011 -155.333 892.667 -113 826 c 1
EndSplineSet
EndChar

StartChar: u0B40
Encoding: 155 2880 155
Width: 295
Flags: HW
LayerCount: 2
Fore
SplineSet
185 0 m 1
 184 776 l 1
 -17.5 575.5 l 1
 24.5 533.5 l 1
 125 635 l 1
 125 0 l 1
 185 0 l 1
EndSplineSet
EndChar

StartChar: u0B43
Encoding: 156 2883 156
Width: 14
Flags: HW
LayerCount: 2
Fore
SplineSet
-82 -224 m 0
 -14.8 -224 0.00150782 -290.032 2 -333 c 1
 2 -374.158 -23 -455 -123 -455 c 0
 -170.333 -455 -207.333 -438.667 -234 -406 c 1
 -262 -375.333 -276 -334.333 -276 -283 c 0
 -276 -216.446 -218.163 -133 -159 -133 c 2
 -115 -133 l 1
 -189.704 -167.942 -233 -223 -233 -283 c 0
 -233 -353.703 -190.562 -408 -123 -408 c 0
 -70.65 -408 -42 -367.875 -42 -333 c 0
 -42 -277.719 -58 -268 -82 -268 c 0
 -110 -268 -128 -280 -136 -304 c 1
 -179 -292 l 1
 -168.94 -251.758 -132.256 -224 -82 -224 c 0
EndSplineSet
EndChar

StartChar: u0B47
Encoding: 157 2887 157
Width: 501
Flags: HW
LayerCount: 2
Fore
SplineSet
425 182 m 0
 425 68.225 332.036 1.72266e-18 242 0 c 0
 82.6667 0 3 129 3 387 c 0
 3 514.333 26.3333 612.333 73 681 c 0
 115.667 743 172 774 242 774 c 0
 347.125 774 394.608 726.385 432 656 c 1
 393 620 l 1
 353.163 678.427 328.531 708 242 708 c 0
 133.68 708 56 566.158 56 385 c 1
 146 407 l 2
 176.22 414.051 211.096 419 241 419 c 0
 348.51 419 425 321.528 425 182 c 0
243 66 m 0
 305.144 66 377.419 113.328 376 180 c 1
 376 289.321 305.287 344.598 243 354 c 1
 216.176 356.439 148.078 343.442 116 335 c 1
 92.6667 327.667 75 322.333 63 319 c 1
 63 178.516 119.086 66 243 66 c 0
EndSplineSet
EndChar

StartChar: u0B41
Encoding: 158 -1 158
Width: 14
Flags: HW
LayerCount: 2
Fore
SplineSet
-145 -164 m 1
 -109.28 -218.196 -69.4 -255 44 -255 c 1
 47 -305 l 1
 11.1445 -305 -99.6433 -309.908 -165 -213 c 1
 -190.171 -254.951 -226.2 -287 -267 -287 c 0
 -338.35 -287 -377 -230.858 -377 -180 c 0
 -377 -119.19 -336.888 -77 -273 -77 c 0
 -251.161 -77 -222.218 -70.3986 -174 -123 c 1
 -165 -65 l 1
 -161 -1 l 1
 -117 -1 l 1
 -117 -53 l 1
 -124.206 -98.039 -123.336 -125.486 -145 -164 c 1
-335 -176 m 0
 -335 -203.65 -314.375 -237 -270 -237 c 0
 -239.2 -237 -209.705 -207.99 -193 -171 c 1
 -210.532 -145.676 -231.511 -118 -275 -118 c 0
 -312.536 -118 -335 -140.96 -335 -176 c 0
EndSplineSet
EndChar

StartChar: u0B4D
Encoding: 162 2893 162
Width: 14
Flags: W
HStem: -338 294
VStem: -146 195
LayerCount: 2
Fore
SplineSet
49 -315 m 1
 9 -338 l 1
 -146 -66 l 1
 -104 -44 l 1
 49 -315 l 1
EndSplineSet
EndChar

StartChar: u0B56
Encoding: 163 2902 163
Width: 14
Flags: W
HStem: 847 59<-494.478 -354.062> 921 59<-289.763 -137.099>
VStem: -117 57<791.531 900.805>
AnchorPoint: "A" -298 796 mark 0
LayerCount: 2
Fore
SplineSet
-200 980 m 0
 -88.8087 980 -58.7291 910.919 -60 855 c 0
 -60 840.333 -65 821 -75 797 c 2
 -90 762 l 1
 -141 787 l 1
 -129 812 l 2
 -121 830.667 -117 845 -117 855 c 0
 -117 907.8 -172.427 921 -201 921 c 0
 -299.109 921 -352.117 847 -431 847 c 0
 -471.667 847 -509 861.333 -543 890 c 0
 -553.667 898 -566.333 912.667 -581 934 c 1
 -531 966 l 1
 -495.739 913.108 -450.2 906 -430 906 c 0
 -344.289 906 -299.367 980 -200 980 c 0
3 -1 m 1
 1 1 l 1
 3 -1 l 1
3 -1 m 1
 1 1 l 1
 3 -1 l 1
EndSplineSet
EndChar

StartChar: u0B57
Encoding: 164 2903 164
Width: 285
Flags: HW
LayerCount: 2
Fore
SplineSet
63 979 m 0
 176.6 979 203.816 905.893 205 855 c 0
 205 840.333 200 821 190 797 c 2
 175 762 l 1
 175 1 l 1
 117 1 l 1
 117 777 l 1
 124 786 l 1
 136 811 l 2
 144 829.667 148 844 148 854 c 0
 148 893.6 109.05 920 63 920 c 0
 -35.1094 920 -88.1172 846 -167 846 c 0
 -207.667 846 -245 860.333 -279 889 c 0
 -289.667 897 -302.333 911.667 -317 933 c 1
 -267 965 l 1
 -231.738 912.108 -186.2 905 -166 905 c 0
 -80.4381 905 -36.2482 979 63 979 c 0
EndSplineSet
EndChar

StartChar: u0B5F
Encoding: 167 2911 167
Width: 655
Flags: W
HStem: 0 62<264.953 371> 717 56<213.561 421.569>
VStem: 78 59<443.308 640.43> 147 60<123.102 193> 530 58<159 638.883 695 776> 590 60<-45.7741 64.4576>
AnchorPoint: "C" 266 800 basechar 0
LayerCount: 2
Fore
SplineSet
650 7 m 0
 650 -15.0355 644.1 -57.9 591 -111 c 1
 660 -236 l 1
 609 -263 l 1
 514 -96 l 1
 558.596 -62.2152 590 -28.96 590 6 c 256
 590 59.5573 568.312 68.2586 552 69 c 0
 529.2 69 521.417 70.8365 495 49.5 c 0
 486.333 42.5 478 25.3333 470 -2 c 1
 462 -38 l 1
 405 -30 l 1
 414 10 l 1
 371 2 l 1
 336 0 l 1
 237.592 0 147 74.812 147 193 c 1
 47 48 l 1
 0 81 l 1
 176 335 l 1
 115.337 371.109 78 435.129 78 536 c 0
 78 725.6 201.225 773 313 773 c 0
 443.2 773 513.799 708.94 530 695 c 1
 530 776 l 1
 588 776 l 1
 588 120 l 1
 625.71 104.916 650 59.8983 650 7 c 0
207 204 m 256
 207 122.152 259 62 337 62 c 0
 419.381 62 487.268 116.268 494.5 123.5 c 2
 530 159 l 1
 530 619 l 1
 469.039 682.864 399.8 717 313 717 c 0
 196.519 717 137 656.571 137 539 c 0
 137 447.2 181.701 403.915 209 386 c 1
 227 412 l 1
 235 421 l 1
 278 382 l 1
 209.554 295.699 207 225.831 207 204 c 256
EndSplineSet
EndChar

StartChar: u0B60
Encoding: 168 2912 168
Width: 684
Flags: HW
AnchorPoint: "C" 266 800 basechar 0
LayerCount: 2
Fore
SplineSet
656 220 m 0
 656 199.667 650.907 152.024 596 103 c 1
 666 -16 l 1
 615 -44 l 1
 519 124 l 1
 588.435 165.286 596 204.8 596 225 c 0
 596 278.557 574.312 287.259 558 288 c 0
 542.72 288 533.049 289.281 507 273 c 1
 468 317 l 1
 479 324 l 1
 509 339 l 1
 521.667 347 532.667 358.333 542 373 c 0
 547.298 379.812 557 394.485 557 416 c 0
 557 469.557 535.312 478.259 519 479 c 0
 495.667 479 475.667 472 459 458 c 1
 424 419 l 1
 382 459 l 1
 419 499 l 1
 433.667 511.667 450.667 521.667 470 529 c 1
 441.378 696.64 315.572 710 267 710 c 0
 145.2 710 64 610.12 64 494 c 0
 64 455.49 72.3252 359.28 158 321 c 1
 179.333 335 204.667 342 234 342 c 0
 322.893 342 372 261.471 372 165 c 0
 372 67.5409 319.582 -5 227 -5 c 0
 118.2 -5 91 101.625 91 172 c 0
 91 212 99.6667 246.667 117 276 c 1
 75.9295 300.307 6 362 6 491 c 0
 6 566.333 30.6667 631 80 685 c 128
 129.333 739 192 766 268 766 c 0
 417.083 766 507.122 674.837 529 534 c 1
 589.221 528.265 615 468.89 615 412 c 0
 615 364.505 591.33 337.773 590 336 c 1
 629.035 324.29 656 273.83 656 220 c 0
229 55 m 0
 297.8 55 315.998 119.073 315 167 c 0
 315 227.137 299.046 284 235 284 c 0
 178.826 284 148 240.721 148 175 c 0
 148 119.944 164.2 55 229 55 c 0
EndSplineSet
EndChar

StartChar: u0B61
Encoding: 169 2913 169
Width: 613
Flags: HW
AnchorPoint: "C" 266 800 basechar 0
LayerCount: 2
Fore
SplineSet
316 219 m 0
 343.048 219 397 206.689 397 119 c 0
 397 87.6667 379.333 60 344 36 c 1
 366 18.6667 398.333 -1.66667 441 -25 c 1
 496 -51 l 1
 470 -102 l 1
 412 -69 l 1
 365.333 -40.3333 327.667 -13.6667 299 11 c 1
 270.117 2.97708 246.494 1 224 1 c 0
 172.667 1 125.333 20 82 58 c 0
 30 102.667 4 162.333 4 237 c 0
 4 336.949 92.0135 401.529 183.5 457 c 128
 257.167 501.667 299.333 529.333 310 540 c 0
 328.667 560 338 583 338 609 c 0
 338 677.951 311.481 714 240 714 c 0
 190 714 165 694 165 654 c 0
 165 641.333 173.667 628 191 614 c 1
 217 602 l 1
 196 549 l 1
 175.615 557.625 106 591 106 654 c 0
 106 707.9 132.8 772 240 772 c 0
 344 772 396 717 396 607 c 0
 396 516.722 305.186 461.936 222 409 c 1
 154.11 369.128 64 320.162 64 237 c 0
 64 115.578 154.762 61 223 61 c 1
 253 62 l 1
 236.333 84 228 105 228 125 c 0
 228 179.076 266.594 219 316 219 c 0
306 76 m 1
 324.667 82.6667 335.333 97.3333 338 120 c 1
 338 148.667 330.333 163 315 163 c 0
 295 163 285 150.667 285 126 c 0
 285 112 292 95.3333 306 76 c 1
EndSplineSet
EndChar

StartChar: u0B66
Encoding: 170 2918 170
Width: 470
Flags: W
LayerCount: 2
Fore
SplineSet
235 770 m 0
 376.054 770 400 549.642 400 387 c 0
 400 178 359.333 0 234 0 c 0
 107.117 0 70 220.48 70 388 c 0
 70 537.155 103 770 235 770 c 0
237 67 m 0
 328.2 67 351 194.75 351 389 c 0
 351 590.225 328 703 236 703 c 0
 146.4 703 119 546 119 390 c 0
 119 198 146.6 67 237 67 c 0
EndSplineSet
EndChar

StartChar: u0B67
Encoding: 171 2919 171
Width: 532
Flags: HMW
LayerCount: 2
Fore
SplineSet
273 770 m 0
 407.802 770 462 648.464 462 496 c 0
 462 339.5 383.821 233 220 233 c 1
 220 300 l 1
 323.831 300 413 376.861 413 496 c 0
 413 607.676 374.815 703 273 703 c 0
 182.4 703 119 585.352 119 425 c 0
 119 223.558 235.6 67 406 67 c 1
 406 0 l 1
 208.375 0 70 186.25 70 427 c 0
 70 621.865 151.2 770 273 770 c 0
EndSplineSet
EndChar

StartChar: u0B68
Encoding: 172 2920 172
Width: 532
Flags: HW
LayerCount: 2
Fore
SplineSet
259 770 m 0
 124.198 770 70 648.464 70 496 c 0
 70 339.5 148.179 233 312 233 c 1
 312 300 l 1
 208.169 300 119 376.861 119 496 c 0
 119 607.676 157.185 703 259 703 c 0
 349.6 703 413 585.352 413 425 c 0
 413 223.558 296.4 67 126 67 c 1
 126 0 l 1
 323.625 0 462 186.25 462 427 c 0
 462 621.865 380.8 770 259 770 c 0
EndSplineSet
EndChar

StartChar: u0B69
Encoding: 173 2921 173
Width: 700
Flags: HW
LayerCount: 2
Fore
SplineSet
465 679 m 0
 570.52 679 630 579.559 630 459 c 0
 630 315.4 586.18 170.061 556 100 c 1
 506 123 l 1
 536.869 192.189 581 325.2 581 460 c 0
 581 563.333 543 612 475 612 c 0
 443.733 612 373 601.2 373 538 c 2
 373 163 l 1
 324 163 l 1
 324 538 l 2
 324 599.6 255.744 613 222 613 c 0
 181.6 613 119 588.3 119 460 c 0
 119 338.967 153.973 209.725 194 123 c 1
 143 100 l 1
 102.459 192.666 70 334.746 70 458 c 0
 70 578.036 119.561 679 227 679 c 0
 306.5 679 336 639 348 619 c 1
 356.5 638 388.333 679 465 679 c 0
EndSplineSet
EndChar

StartChar: u0B6A
Encoding: 174 2922 174
Width: 631
Flags: HMW
LayerCount: 2
Fore
SplineSet
313 534 m 1
 405.373 573.428 512 641.4 512 713 c 1
 561 712 l 1
 561 611.268 442.297 537.601 372 500 c 1
 411.5 470 482 407.5 482 296 c 0
 482 143.5 412.5 66 313 66 c 0
 203.5 66 159 163 159 310 c 0
 159 416 233 476 263 498 c 1
 190.617 532.851 70 606.268 70 713 c 1
 119 713 l 1
 119 641.4 209.202 585.341 313 534 c 1
313 133 m 0
 387 133 433 182 433 292 c 0
 433 377 374 432.5 313 469 c 1
 274 446 208 378 208 307 c 0
 208 202 242 133 313 133 c 0
EndSplineSet
EndChar

StartChar: u0B6B
Encoding: 175 2923 175
Width: 610
Flags: HMW
LayerCount: 2
Fore
SplineSet
394 404 m 1
 463.408 380.255 516 358 555 308 c 1
 509 251 l 1
 488.5 289.5 442.192 314.03 391 325 c 1
 419 283 433 233.667 433 177 c 0
 433 80.9717 372.645 0 265 0 c 0
 184 0 130 68.667 130 193 c 0
 130 270.57 164.026 325.245 211 367 c 1
 133.302 387.38 89.2354 422.529 55 491 c 1
 101 537 l 1
 138 482 160.521 464.719 210 449 c 1
 185.105 492.912 174.742 543.442 178.834 599.961 c 0
 185.766 695.739 251.783 771.766 359.173 764.371 c 0
 432.333 759.333 489.994 701.764 479.888 562.129 c 0
 474.288 484.761 443.866 442.255 394 404 c 1
352.414 698.688 m 0
 276.131 704.447 231.965 655.271 228.066 601.411 c 0
 220.616 498.48 276.965 444.369 302.423 423.579 c 1
 361.498 436.348 425.394 478.849 431.16 567.661 c 0
 436.333 647.333 405.667 694.667 352.414 698.688 c 0
267 66 m 0
 343.5 66 384 118 384 172 c 0
 384 275.2 323.893 325.102 297 344 c 1
 239 327 179 280 179 191 c 0
 179 116.667 209 66 267 66 c 0
EndSplineSet
EndChar

StartChar: u0B6C
Encoding: 176 2924 176
Width: 375
Flags: HW
LayerCount: 2
Fore
SplineSet
256 388 m 4
 256 580.784 165.433 703 55 703 c 5
 55 770 l 5
 205 770 303.792 607.484 305 389 c 4
 305 139.056 177.002 0 55 0 c 5
 55 67 l 5
 149.572 67 256 180.397 256 388 c 4
EndSplineSet
EndChar

StartChar: u0B6D
Encoding: 177 2925 177
Width: 534
Flags: HW
LayerCount: 2
Fore
SplineSet
249 703 m 0
 364 703 415 579 415 388 c 0
 415 180.397 248.572 67 154 67 c 1
 154 0 l 1
 276.002 0 464 139.056 464 389 c 0
 464 622 402 770 249 770 c 0
 133 770 70 663.399 70 536 c 0
 70 431.967 111.368 320 205 320 c 0
 283.512 320 325 382.582 325 469 c 0
 325 580.481 260.8 608 218 608 c 1
 218 541 l 1
 240.8 541 277 527.2 277 468 c 256
 277 435.2 261.4 387 207 387 c 0
 140.555 387 119 465.299 119 535 c 256
 119 598.85 159 703 249 703 c 0
EndSplineSet
EndChar

StartChar: u0B6E
Encoding: 178 2926 178
Width: 547
Flags: HW
LayerCount: 2
Fore
SplineSet
70 576 m 6
 70 671.513 125.619 732 206 732 c 2
 477 732 l 1
 477 664 l 1
 204 664 l 2
 166.837 664 119 631.325 119 570 c 2
 119 44 l 1
 70 44 l 1
 70 576 l 6
EndSplineSet
EndChar

StartChar: u0B6F
Encoding: 179 2927 179
Width: 504
Flags: HMW
LayerCount: 2
Fore
SplineSet
114 388 m 0
 114 169 235 67 349 67 c 1
 349 0 l 1
 204 0 65 111.992 65 384 c 0
 65 584 136.915 770 248 770 c 0
 333.2 770 381.2 703.2 390 684 c 1
 390 770 l 1
 439 770 l 1
 439 574 l 1
 439 573 393.5 573.354 393.5 574 c 1
 382 607.5 331 703 247 703 c 0
 163.998 703 114 548 114 388 c 0
EndSplineSet
EndChar

StartChar: u0B70
Encoding: 180 2928 180
Width: 477
Flags: HW
AnchorPoint: "C" 266 800 basechar 0
LayerCount: 2
Fore
SplineSet
203.562 488.146 m 0
 203.562 455.084 187.29 435.936 152.538 435.936 c 0
 117.818 435.936 102.497 455.062 102.497 488.146 c 0
 102.497 518.868 117.215 539.351 152.538 539.351 c 0
 186.867 539.351 203.562 520.244 203.562 488.146 c 0
422 658 m 1
 114 -28 l 1
 0 232 l 1
 54 254 l 1
 114 119 l 1
 367 681 l 1
 422 658 l 1
EndSplineSet
EndChar

StartChar: u0B71
Encoding: 181 2929 181
Width: 549
Flags: HMW
AnchorPoint: "C" 266 800 basechar 0
LayerCount: 2
Fore
SplineSet
437.999 370 m 5
 439 0 l 5
 381 0 l 1
 381 75 l 1
 334.859 37.1406 267.084 0 188 0 c 0
 80.1367 0 0 83.2471 0 200 c 0
 0 244.595 11.2881 285.506 25.6367 319.494 c 5
 16.3555 349.069 11.4922 381.398 11.4922 415.162 c 4
 11.4922 563.488 102.731 750.025 118.809 785.977 c 5
 170.867 759.354 l 5
 137.252 683.471 71.3027 544.249 71.3027 415.931 c 4
 71.3027 254.815 177.085 223.088 226.288 223.088 c 4
 302.62 223.088 381.274 276.401 381.274 372.07 c 4
 381.274 433.223 359.342 464.508 344.375 479.496 c 5
 301.818 446.296 l 5
 266.318 497.166 l 5
 282.286 507.562 372.068 555.472 372.068 642.93 c 4
 372.068 683.903 346.441 711.886 308 711.886 c 4
 285.748 711.886 252.371 700.931 252.371 635.708 c 5
 193.328 635.708 l 5
 193.328 742.579 261.448 770.192 308 770.192 c 4
 381.867 770.192 431.111 719.287 431.111 642.93 c 4
 431.111 590.635 413.219 549.461 387.014 519.92 c 5
 425.035 479.235 437.986 429.623 437.999 370 c 5
379.999 227.798 m 5
 341.2 188 276.563 163.242 224.754 163.242 c 4
 154.801 163.242 99.1387 195.199 62.2432 245.746 c 5
 58.9541 230.936 57 215.307 57 199 c 0
 57 117.932 108.6 57 186 57 c 0
 296.499 57 365.628 140.022 380 154 c 5
 379.999 227.798 l 5
EndSplineSet
EndChar

StartChar: u0B1C_u0B1E.sub
Encoding: 182 -1 182
Width: 799
Flags: HMW
HStem: -28 58<152.125 343.714> 0 21G<532 589> 0 21G<532 589> 320 56<164.724 236.6 317.469 384.394> 326 59<464 532> 714 61<171.315 255.96 346.56 424.781>
VStem: 3 57<111.513 324.852 469.628 695.957> 92 57<117.258 306.598 478.093 692.764> 251 57<99 294> 270 57<461 695.207> 412 61<98.0469 295.445> 461 58<457.561 669.577> 532 57<0 326>
AnchorPoint: "C" 266 800 basechar 0
LayerCount: 2
Fore
SplineSet
486.024 445 m 1x2708
 687 445 l 1
 689 0 l 1
 632 0 l 1
 632 386 l 1
 537.979 386.003 l 1
 552.722 356.605 561.744 316.911 562 261 c 0
 562.667 115.333 462 0 293 0 c 0
 126 0 0 107.333 0 254 c 0
 0 342 18 406 31.9932 435.996 c 1
 86 413 l 1
 75.333 387.333 58 337.333 58 252 c 0
 58 135.333 170.667 58 291 58 c 0
 420.002 58 500.667 126.667 501 261 c 0
 501.297 380.753 446.013 407.045 424 413 c 1
 405.637 404.363 385.646 397.354 364 392 c 1
 356 384.333 349 366.612 349 351 c 2
 349 251 l 1
 292 251 l 1
 292 350 l 2
 292 364.736 283.333 380.333 271 390 c 1
 249.333 393 223.333 402.333 209 410 c 1
 183.871 402.4 157.714 380.2 158 336 c 0
 158.129 316.112 164.112 300.859 172 288 c 1
 124 259 l 1
 118.61 270.976 92.8809 314.627 103.685 365.744 c 0
 108.926 390.54 124.894 422.046 152 441.667 c 1
 106 470.333 45 539.333 45 615 c 0
 46 707.333 75.5996 754.4 91 770 c 1
 141 750 l 1
 122.4 730.4 100.667 691.333 101 616 c 0
 101.416 522.001 217.14 440.042 325 444 c 0
 430.618 447.876 506.532 538.523 510 613 c 0
 512.181 659.824 499.489 710.673 446 710 c 0
 421.684 709.694 393 693.267 393 668 c 2
 393 605 l 1
 336 605 l 1
 336 668 l 2
 336 694.405 302.05 712.885 267 711 c 0
 225.229 708.754 217.558 678.861 217 667 c 0
 217.16 644.154 223.256 634.34 228 629 c 1
 190 586.6 l 1
 166.925 608.166 156.648 640.077 158 668 c 0
 160.835 726.568 216.058 768.574 267 770 c 0
 295.113 770.787 336.205 760.418 361 734 c 1
 367.096 743.234 386.975 770 445 770 c 0
 543.441 770 573.012 683.47 568 611 c 0
 563.296 542.974 524 488.333 480 449 c 1
 486.024 445 l 1x2708
EndSplineSet
EndChar

StartChar: u0B19_u0B15.sub
Encoding: 183 -1 183
Width: 543
Flags: HW
AnchorPoint: "C" 266 800 basechar 0
LayerCount: 2
Fore
SplineSet
521 744 m 0
 578.782 744 632.901 705.171 630 637 c 1
 630 571.661 580.145 526 519 526 c 0
 454.2 526 411 575.8 411 637 c 1
 388.93 668.528 328.318 717 250 717 c 0
 136.206 717 64 627.312 64 505 c 0
 64 414.689 99.8838 368.27 122 350 c 1
 518 350 l 1
 518 322 l 1
 520 2 l 1
 463 2 l 1
 463 291 l 1
 436 291 l 1
 436 2 l 1
 379 2 l 1
 379 81 l 1
 357 74 l 1
 335 70 l 1
 288.2 70 269.136 88.4367 257 103 c 1
 240.681 85.5153 214.276 67 183 67 c 0
 124.675 67 68 111.466 68 206 c 2
 68 234 l 130
 68 242.667 68.6667 252 70 262 c 1
 82 308 l 1
 26.5999 357.669 7 438.951 7 503 c 0
 7 648.158 97.4016 774 251 774 c 0
 309.129 774 384.822 753.058 432 701 c 1
 453.333 729.667 483 744 521 744 c 0
522 584 m 1
 551.925 584 574 604.4 574 635 c 0
 574 656.244 559.341 686 522 686 c 0
 491.4 686 471 663.05 471 635 c 0
 471 594.2 499.993 585.914 522 584 c 1
288 162 m 1
 295.164 139.074 307.479 132.411 334 130 c 0
 344.667 130 354.667 134.333 364 143 c 1
 380 163 l 1
 380 290 l 1
 288 290 l 1
 288 162 l 1
124 207 m 1
 124 145.8 157.6 127 180 127 c 0
 190 127 200 131 210 139 c 1
 227 162 l 1
 227 290 l 1
 134 290 l 1
 126 246 l 1
 124 207 l 1
EndSplineSet
Ligature2: "'blws' Below Base Substitutions in Oriya lookup 8 subtable" u0B19 u0B15.sub
EndChar

StartChar: u0B19_u0B4D_u0B18
Encoding: 184 -1 184
Width: 627
Flags: HW
AnchorPoint: "C" 266 800 basechar 0
LayerCount: 2
Fore
SplineSet
589 750 m 1
 672.2 750 694.116 678.689 693 624 c 1
 693 572.175 659.543 510 597 510 c 0
 565 510 541.2 526.8 517 551 c 1
 517 -3 l 1
 459 -3 l 1
 459 86 l 1
 437 75 l 2
 431.667 72.3333 424.333 71 415 71 c 0
 375.341 71 342.096 102.156 325 124 c 1
 305.638 92.1907 274.508 71 228 71 c 0
 191.2 71 113 101.475 113 209 c 1
 117 263 l 1
 129 312 l 1
 108.924 319.397 8 356.8 8 536 c 0
 8 692.064 121.287 773 244 773 c 0
 320.126 773 397.53 752.123 461 695 c 1
 461 776 l 1
 519 776 l 1
 519 716 l 1
 538.884 737.209 560.036 747.481 589 750 c 1
600 568 m 0
 629.6 568 635.882 596.29 637 622 c 1
 637 662.983 622.915 691.458 589 693 c 0
 574.333 693 560.667 685.333 548 670 c 0
 539.333 658 531.333 643.333 524 626 c 1
 552 594 l 1
 569.333 576.667 585.333 568 600 568 c 0
349 200 m 2
 349 176.118 378.884 135.88 412 133 c 0
 422.667 133 432.667 139 442 151 c 2
 460 175 l 1
 460 613 l 1
 445 629 l 1
 420.333 653.667 394 673.333 366 688 c 1
 328 705.333 287.333 714 244 714 c 0
 154.642 714 67 660.319 67 536 c 0
 67 491.649 73.3917 394.878 151 366 c 1
 169 398 l 1
 177 409 l 1
 221 373 l 1
 206 348 l 1
 182 302.667 170 256.667 170 210 c 0
 170 170.088 191.437 133.819 226 132 c 1
 250 132 268 143.667 280 167 c 1
 291 203 l 1
 291 321 l 1
 349 321 l 1
 349 200 l 2
EndSplineSet
Ligature2: "'blws' Below Base Substitutions in Oriya lookup 9 subtable" u0B19 u0B18 u0B4D
EndChar

StartChar: u0B19_u0B4D_u0B16
Encoding: 185 -1 185
Width: 821
Flags: HW
AnchorPoint: "C" 266 800 basechar 0
LayerCount: 2
Fore
SplineSet
826 757 m 0
 919.718 757 976.161 683.408 971 606 c 1
 971 532.822 924.416 454 825 454 c 0
 780.2 454 750.102 470.617 713 512 c 1
 713 2 l 1
 656 2 l 1
 656 592 l 1
 602.642 552.87 547.529 540 489 540 c 0
 381.439 540 326.15 609.286 315 718 c 1
 192.616 718 67 638.35 67 484 c 0
 67 396.676 91.0644 349.144 110 326 c 1
 133.333 343.333 162 352 196 352 c 0
 218.4 352 271.04 347.412 308 291 c 1
 327.589 327.566 367.433 352 425 352 c 0
 516.904 352 564 269.2 564 175 c 0
 564 103.806 534.8 5 418 5 c 0
 362.056 5 330.635 31.2362 307 65 c 1
 293.553 40.6274 260.2 4 190 4 c 0
 96.6153 4 51 82.6079 51 182 c 0
 51 219.333 58.3333 251.333 73 278 c 1
 47.0027 306.258 10 369.089 10 482 c 0
 10 573.333 46.3333 647 119 703 c 1
 185 752.333 270 777 374 777 c 1
 374 672.69 397.58 597 491 597 c 0
 576.138 597 608.961 624.107 659 666 c 1
 659 778 l 1
 716 778 l 1
 716 717 l 1
 751 739 l 1
 775 751 800 757 826 757 c 0
828 513 m 0
 899.506 513 915.389 577.804 917 606 c 1
 917 641.112 899 698 827 698 c 0
 805.667 698 785.333 692.667 766 682 c 1
 717 640 l 1
 717 607 l 1
 736.237 562.114 777.158 513 828 513 c 0
419 62 m 0
 489.4 62 508.082 118.806 507 174 c 1
 507 235.056 490.8 291 426 291 c 256
 354.8 291 337 225.6 337 182 c 0
 337 127.85 353.4 62 419 62 c 0
190 62 m 0
 260.4 62 279.082 118.806 278 174 c 1
 278 235.056 261.8 291 197 291 c 0
 138.798 291 108 248.817 108 182 c 0
 108 127.85 124.4 62 190 62 c 0
EndSplineSet
Ligature2: "'blws' Below Base Substitutions in Oriya lookup 9 subtable" u0B19 u0B16 u0B4D
EndChar

StartChar: u0B19_u0B4D_u0B17
Encoding: 186 -1 186
Width: 821
Flags: HW
AnchorPoint: "C" 266 800 basechar 0
LayerCount: 2
Fore
SplineSet
825 755 m 0
 920.811 755 974.75 678.507 971 606 c 1
 971 526.204 922.58 454 827 454 c 0
 781.8 454 751.554 474.151 714 513 c 1
 714 1 l 1
 657 1 l 1
 657 589 l 1
 649 601 l 2
 620.534 645.478 527.231 718 342 718 c 0
 194.668 718 66 638.016 66 483 c 0
 66 395.676 90.0644 348.144 109 325 c 1
 132.333 342.333 161 351 195 351 c 0
 217.4 351 270.04 346.412 307 290 c 1
 326.589 326.566 366.433 351 424 351 c 0
 515.904 351 563 268.2 563 174 c 0
 563 102.806 533.8 4 417 4 c 0
 361.056 4 329.635 30.2362 306 64 c 1
 292.553 39.6274 259.2 3 189 3 c 0
 95.6153 3 50 81.6079 50 181 c 0
 50 218.333 57.3333 250.333 72 277 c 1
 46.0027 305.258 9 368.089 9 481 c 0
 9 658.462 148.846 775 343 775 c 0
 520.749 775 613.103 717.814 658 678 c 1
 658 777 l 1
 715 777 l 1
 715 710 l 1
 769.892 751.642 797.258 755 825 755 c 0
829 510 m 0
 893.058 510 915.061 572.068 916 604 c 0
 916 639.112 898 696 826 696 c 0
 782 696 735.1 653.137 716 627 c 1
 716 602 l 1
 751.009 551.297 783.8 510 829 510 c 0
419 60 m 0
 489.4 60 508.082 116.806 507 172 c 1
 507 233.056 490.8 289 426 289 c 256
 354.8 289 337 223.6 337 180 c 0
 337 125.85 353.4 60 419 60 c 0
190 60 m 0
 260.4 60 279.082 116.806 278 172 c 1
 278 233.056 261.8 289 197 289 c 0
 138.798 289 108 246.817 108 180 c 0
 108 125.85 124.4 60 190 60 c 0
EndSplineSet
Ligature2: "'blws' Below Base Substitutions in Oriya lookup 9 subtable" u0B19 u0B17 u0B4D
EndChar

StartChar: u0B2B_u0B4D_u0B2E
Encoding: 187 -1 187
Width: 673
Flags: HW
AnchorPoint: "C" 266 800 basechar 0
LayerCount: 2
Fore
SplineSet
675 754 m 0
 762 754 818.581 686.552 820 600 c 1
 820 520.291 772.045 453 677 453 c 0
 663 453 653 453.667 647 455 c 2
 615 467 l 1
 755 246 l 1
 706 216 l 1
 561 445 l 1
 561 0 l 1
 503 0 l 1
 503 536 l 1
 501 541 l 1
 437.498 488.837 374.279 492 364 492 c 0
 232.1 492 215 575.33 215 619 c 0
 215 647.667 222.333 677.333 237 708 c 1
 154.692 691.538 68 582.902 68 455 c 0
 68 353.55 152.304 341.424 186 333 c 1
 185 321 l 1
 220 354 l 1
 257 380 l 1
 284 327 l 1
 212.937 288.239 111.663 138.45 76 2 c 1
 19 14 l 1
 38.0935 101.512 101.945 212.565 153 281 c 1
 77.1126 298.182 10 351 10 456 c 0
 10 613.8 97.3463 693.022 131 719 c 0
 155 737.667 185 752.333 221 763 c 1
 257.64 770.965 315.44 776 365 776 c 1
 309 717.333 281 664.333 281 617 c 0
 281 572.333 308.333 550 363 550 c 0
 404.6 550 435.948 563.648 467 592 c 1
 379 732 l 1
 429 762 l 1
 501 645 l 1
 501 778 l 1
 559 778 l 1
 559 693 l 1
 585.63 722.703 623.34 754 675 754 c 0
677 512 m 0
 744.2 512 761.941 569.959 761 601 c 0
 761 655.851 727.626 695 677 695 c 0
 655 695 633.333 685.667 612 667 c 1
 561 606 l 1
 576.658 567.834 620.566 512 677 512 c 0
EndSplineSet
Ligature2: "'blws' Below Base Substitutions in Oriya lookup 9 subtable" u0B2B u0B2E.sub
EndChar

StartChar: u0B15_u0B4D_u0B37
Encoding: 188 -1 188
Width: 695
Flags: W
HStem: 1 60<266.674 431.088> 716 58<212.178 420.569>
VStem: 77 61<442.111 596> 146 62<122.995 194> 529 57<-2 76 157 176 271 637.883 696 777>
AnchorPoint: "C" 266 800 basechar 0
LayerCount: 2
Fore
SplineSet
312 774 m 0
 442.2 774 512.799 709.94 529 696 c 1
 529 777 l 1
 587 777 l 1
 586 -2 l 1
 528 -2 l 1
 528 76 l 1
 481.859 38.1407 414.084 1 335 1 c 0
 236.592 1 146 75.812 146 194 c 1
 46 49 l 1
 -1 82 l 1
 175 336 l 1
 114.337 372.109 77 436.129 77 537 c 0
 77 726.6 200.225 774 312 774 c 0
529 618 m 1
 468.039 681.864 398.8 716 312 716 c 0
 264.667 716 226.333 706 197 686 c 1
 529 271 l 1
 529 618 l 1
208 203 m 256
 208 121.152 260 61 338 61 c 0
 428.947 61 494.917 121.917 495.5 122.5 c 2
 531 157 l 1
 531 176 l 1
 159 640 l 1
 151.667 625.333 146.333 610.667 143 596 c 1
 138 538 l 1
 138 446.2 182.701 402.915 210 385 c 1
 228 411 l 1
 236 420 l 1
 279 381 l 1
 210.554 294.699 208 224.831 208 203 c 256
EndSplineSet
Ligature2: "'akhn' Akhand in Oriya lookup 1 subtable" u0B15 u0B4D u0B37 
EndChar

StartChar: u0B1A_u0B4D_u0B1A
Encoding: 189 -1 189
Width: 693
Flags: HW
AnchorPoint: "C" 266 800 basechar 0
LayerCount: 2
Fore
SplineSet
364 777 m 0
 557.521 777 724.464 706.013 723 526 c 0
 723 444.053 713.608 432.038 709 409 c 1
 705.667 399 701 387 695 373 c 1
 641 391 l 1
 652 420 l 2
 662 448.667 667 484 667 526 c 0
 667 678.8 501.023 717 366 717 c 0
 227.355 717 64 679.4 64 529 c 0
 64 498.398 68.1805 454.508 94 425 c 1
 134.419 486.591 176.4 494 197 494 c 0
 243 494 285.599 455.002 312 395 c 1
 342.667 461.667 381.667 495 429 495 c 0
 467.667 495 502.333 471.5 533 424.5 c 128
 563.667 377.5 579 319.667 579 251 c 0
 579 113.747 506.597 6 428 6 c 0
 370.332 6 330.183 67.155 312 106 c 1
 286.508 52.589 241.8 6 195 6 c 0
 123.004 6 47 106.511 47 251 c 0
 47 297.901 52.2926 332.862 66 369 c 1
 42.5478 384.99 4 433.4 4 530 c 0
 4 702.619 171.619 777 364 777 c 0
433 63 m 0
 487 63 524.298 151.639 523 249 c 1
 523 325.776 496.502 434 432 434 c 0
 379.8 434 345 352.048 345 249 c 0
 345 143.45 380.2 63 433 63 c 0
199 62 m 0
 246.243 62 288.385 132.203 287 225 c 1
 286 248 l 1
 287 270 l 1
 287 364.087 245.152 433 199 433 c 0
 132.372 433 108 326.188 108 248 c 0
 108 168.338 131.064 62 199 62 c 0
EndSplineSet
Ligature2: "'blws' Below Base Substitutions in Oriya lookup 9 subtable" u0B1A u0B1A u0B4D
EndChar

StartChar: u0B1F_u0B4D_u0B1F
Encoding: 190 -1 190
Width: 831
Flags: HW
AnchorPoint: "C" 266 800 basechar 0
LayerCount: 2
Fore
SplineSet
364 776 m 0
 462.999 776 584.8 759.2 664 680 c 1
 664 778 l 1
 722 778 l 1
 722 378 l 1
 664 378 l 1
 664 550 l 1
 658.667 607.333 628.833 649.5 574.5 676.5 c 128
 520.167 703.5 450.333 717 365 717 c 0
 226.355 717 63 679.4 63 529 c 0
 63 481.358 69.7385 457.892 93 423 c 1
 121 470.333 155.333 494 196 494 c 0
 242 494 284.599 455.002 311 395 c 1
 341.667 461.667 380.667 495 428 495 c 0
 466.667 495 501.333 471.5 532 424.5 c 128
 562.667 377.5 578 319.667 578 251 c 0
 578 99.9789 517.6 5 427 5 c 0
 369.332 5 329.183 66.155 311 105 c 1
 285.508 51.589 240.8 5 194 5 c 0
 122.004 5 46 105.511 46 250 c 0
 46 296.901 51.2926 331.862 65 368 c 1
 18.3671 400.44 4 471.701 4 529 c 0
 4 701.619 171.619 776 364 776 c 0
432 62 m 0
 504 62 522.907 176.317 522 248 c 0
 522 324.776 495.502 433 431 433 c 0
 378.8 433 344 351.048 344 248 c 0
 344 142.45 379.2 62 432 62 c 0
197 62 m 0
 249.2 62 284 149.45 284 248 c 0
 284 326.022 265.499 433 197 433 c 0
 130.372 433 106 326.188 106 248 c 0
 106 168.338 129.064 62 197 62 c 0
EndSplineSet
Ligature2: "'blws' Below Base Substitutions in Oriya lookup 9 subtable" u0B1F u0B1F.sub
EndChar

StartChar: u0B13_u0B4D_u0B09
Encoding: 191 -1 191
Width: 810
Flags: HMW
AnchorPoint: "C" 266 800 basechar 0
LayerCount: 2
Fore
SplineSet
284.488 60.8994 m 0
 388 60.8994 464.976 128.5 464.976 242.13 c 0
 464.976 320.352 435.239 358.819 417.146 375.855 c 1
 368.091 337.172 l 1
 332.527 388.686 l 1
 350.952 400.814 454.205 458.191 454.205 562.449 c 0
 454.205 613.472 422.422 649.039 374.238 649.039 c 0
 346.2 649.039 304.143 631.706 304.143 558.949 c 1
 245.088 558.949 l 1
 245.088 649.082 297.795 707.909 374.238 707.909 c 0
 457.197 707.909 513.261 650.594 513.261 562.449 c 0
 513.261 499.695 491.402 451.161 459.853 416.896 c 1
 506.293 368.529 521.338 313.823 521.338 241.213 c 0
 521.338 79.5 418 0 283 0 c 0
 117 0 0 197.895 0 410 c 0
 0 639.125 136.395 851 344 851 c 0
 538 851 690 736 690 425 c 0
 690 269.55 646 167 629 120 c 1
 709 -10 l 1
 660 -40 l 1
 567 112 l 1
 593 187 631 286.296 631 427 c 0
 631 670 536 796 342 796 c 0
 172.961 796 56 621.598 56 412 c 0
 56 229.773 158 60.8994 284.488 60.8994 c 0
EndSplineSet
Ligature2: "'blws' Below Base Substitutions in Oriya lookup 9 subtable" u0B13 u0B09 u0B4D
EndChar

StartChar: u0B1C_u0B4D_u0B1E
Encoding: 192 -1 192
Width: 638
Flags: W
HStem: 0 21G<386 444 472 530.106> 0 21G<386 444 472 530.106> 59 60<145.886 227.777 303.882 381.62> 320 57<457 472> 714 59<181.938 273.627 352.354 436.202>
VStem: 9 57<466.393 707.965> 75 58<131.94 297.8> 238 57<168 292> 288 57<478 678> 387 57<0 67 123.739 317> 464 58<461.818 676.022> 472 58<0 320>
AnchorPoint: "C" 266 800 basechar 0
LayerCount: 2
Fore
SplineSet
522 549 m 0xbee0
 522 515.482 510.419 438.05 457 377 c 1
 532 377 l 1
 530 0 l 1
 472 0 l 1
 472 320 l 1xbe50
 444 320 l 1
 444 0 l 1
 386 0 l 1
 386 67 l 1
 373.333 61.6667 357.667 59 339 59 c 0
 312.333 59 289 71 269 95 c 1
 262.215 85.7483 235.8 59 186 59 c 0
 97.2 59 75 137.202 75 217 c 2
 75 248 l 2
 75 256.667 76.3333 268.833 79 284.5 c 2
 85.5 322.5 l 2
 87.1667 332.167 90.3333 344.333 95 359 c 1
 31.1304 416.319 9 502.365 9 545 c 0
 9 644.83 10.7326 685.45 46 764 c 1
 100 741 l 1
 69.0158 666.638 66 625.661 66 547 c 0
 66 467.845 138.452 348 278 348 c 0
 407.446 348 464 477.75 464 548 c 0
 464 629.488 455.649 713 398 713 c 0
 373.333 713 355.667 702 345 680 c 1
 345 478 l 1
 288 478 l 1
 288 678 l 1
 273 696 l 1
 258.333 708 241 714 221 714 c 0
 188.652 714 150 667.148 150 599 c 1
 154 549 l 1
 156.667 533.667 162.667 516.333 172 497 c 1
 119 475 l 1
 111 495 104.333 516 99 538 c 1
 92 599 l 1
 92 708.57 164.138 773 221 773 c 0
 253.774 773 292.867 760.775 314 737 c 1
 332.293 755.293 362.731 773 398 773 c 0
 484.568 773 522 642.837 522 549 c 0xbee0
341 118 m 256
 350.2 118 377.871 118.482 387 155 c 1
 387 317 l 1
 334.526 290.763 303.852 292 295 292 c 1
 295 162 l 1x3f40
 307.569 118.008 333.71 118 341 118 c 256
133 220 m 1
 133 135.784 154.2 119 186 119 c 0
 204.667 119 219.333 127.333 230 144 c 1
 238 168 l 1
 238 295 l 1
 202 300.333 172 310.333 148 325 c 1
 137 274 l 1
 133 220 l 1
EndSplineSet
Ligature2: "'akhn' Akhand in Oriya lookup 1 subtable" u0B1C u0B4D u0B1E
Ligature2: "'blws' Below Base Substitutions in Oriya lookup 9 subtable" u0B1C u0B1E u0B4D
EndChar

StartChar: u0B1A_u0B4D_u0B1B
Encoding: 193 -1 193
Width: 798
Flags: HW
AnchorPoint: "C" 266 800 basechar 0
LayerCount: 2
Fore
SplineSet
364 774 m 0
 556.188 774 724.95 703 722 526 c 1
 722 444.053 712.608 432.038 708 409 c 1
 704.667 399 700 387 694 373 c 1
 641 391 l 1
 659 448 l 1
 663.616 478.464 665 494.2 665 525 c 0
 665 677.8 499.023 716 364 716 c 0
 225.355 716 62 678.4 62 528 c 0
 62 497.398 66.1805 453.508 92 424 c 1
 132.419 485.591 174.4 493 195 493 c 0
 254.093 493 291.785 434.935 311 394 c 1
 337.676 452.433 381.2 493 428 493 c 0
 466.667 493 501.333 469.5 532 422.5 c 128
 562.667 375.5 578 317.667 578 249 c 0
 578 162 552.064 93.1622 510 46 c 1
 536.32 32.2136 567 -12.0072 567 -58 c 0
 567 -108.637 535.284 -180 449 -180 c 0
 411 -180 365.667 -153.667 313 -101 c 1
 263 -153.667 217.667 -180 177 -180 c 256
 84.2 -180 61 -99.55 61 -58 c 0
 61 -43.3333 64.3333 -25.8333 71 -5.5 c 128
 77.6667 14.8333 92 32 114 46 c 1
 61.1476 102.376 47 193.111 47 248 c 0
 47 294.901 52.2926 329.862 66 366 c 1
 42.5478 381.99 4 430.4 4 527 c 0
 4 699.619 171.619 774 364 774 c 0
431 60 m 0
 486.2 60 521.748 152.082 523 246 c 1
 523 322.776 496.502 431 432 431 c 0
 380.4 431 346 343.025 346 246 c 256
 346 171.448 365.586 60 431 60 c 0
196 60 m 0
 248.8 60 284 147.669 284 246 c 0
 284 321.902 260.569 431 196 431 c 0
 129.372 431 105 324.188 105 246 c 0
 105 166.338 128.064 60 196 60 c 0
451 -126 m 0
 484.659 -126 512 -100.297 512 -62 c 0
 512 -40.6 500 -1 452 -1 c 0
 437.333 -1 421.667 -6.33333 405 -17 c 1
 383 -36 l 2
 370.333 -48 361.667 -56.6667 357 -62 c 1
 391.666 -101.447 418.502 -126 451 -126 c 0
367 27 m 1
 345 46.3333 327 71.3333 313 102 c 1
 299 71.3333 281.333 46.6667 260 28 c 1
 285 7 l 1
 314 -21 l 1
 339 4 l 1
 367 27 l 1
120 -61 m 0
 120 -96.45 143.6 -125 179 -125 c 0
 211.007 -125 241.205 -95.845 274 -61 c 1
 241 -26 l 1
 219.667 -8 199 1 179 1 c 0
 145.15 1 120 -23.8 120 -61 c 0
EndSplineSet
Ligature2: "'blws' Below Base Substitutions in Oriya lookup 9 subtable" u0B1A u0B1B u0B4D
EndChar

StartChar: u0B1E_u0B4D_u0B1D
Encoding: 194 -1 194
Width: 593
Flags: HW
AnchorPoint: "C" 266 800 basechar 0
LayerCount: 2
Fore
SplineSet
393 772 m 0
 481.384 772 516 710.566 516 614 c 0
 516 583.333 504.333 549.333 481 512 c 1
 481 507 l 1
 573 634 l 1
 619 601 l 1
 491 422 l 1
 627 274 l 1
 584 237 l 1
 485 344 l 1
 485 0 l 1
 428 0 l 1
 428 58 l 1
 377.763 26.4226 307.666 0 227 0 c 0
 115.995 0 4 71.6678 4 199 c 0
 4 317.751 58.7028 354.277 97 383 c 1
 87.3846 406.077 87 423 87 433 c 2
 88 452 l 1
 37.681 493.513 4 557.905 4 608 c 0
 4 656 6.66667 687.667 12 703 c 1
 42 763 l 1
 96 740 l 1
 70 690 l 1
 64.6667 676 62 648.667 62 608 c 0
 62 574.667 79 540.333 113 505 c 1
 128.333 521.667 147.667 530 171 530 c 0
 218.355 530 257 493.811 257 439 c 1
 273 439 l 2
 388.131 439 459 549.387 459 612 c 0
 459 670.43 444.588 712 393 712 c 0
 369 712 351.667 701 341 679 c 1
 341 607 l 1
 283 607 l 1
 283 677 l 1
 268 695 l 1
 253.333 707 236 713 216 713 c 0
 201.91 713 167.09 698.359 164 669 c 1
 164 647.932 170.1 635.9 175 631 c 1
 136 587 l 1
 121 608 l 1
 110.333 627.333 105 648 105 670 c 0
 105 723.742 176.627 772 216 772 c 256
 248.774 772 287.867 759.775 309 736 c 1
 327.293 754.293 357.731 772 393 772 c 0
197 436 m 0
 197 462.667 187.333 476 168 476 c 0
 158.667 476 151.667 472.333 147 465 c 1
 142 436 l 1
 142 408 150.667 394 168 394 c 0
 187.333 394 197 408 197 436 c 0
224 58 m 0
 293.768 58 363.278 76.8094 423 128 c 1
 423 441 l 1
 379.569 404.808 332.4 383 272 383 c 1
 244 384 l 1
 230 352.667 205 337 169 337 c 0
 157 337 146 339.333 136 344 c 1
 90.8607 311.171 60 278.01 60 199 c 0
 60 101.908 154.571 58 224 58 c 0
EndSplineSet
Ligature2: "'blws' Below Base Substitutions in Oriya lookup 9 subtable" u0B1E u0B1D u0B4D
EndChar

StartChar: u0B21_u0B4D_u0B21
Encoding: 195 -1 195
Width: 616
Flags: HW
AnchorPoint: "C" 266 800 basechar 0
LayerCount: 2
Fore
SplineSet
559 254 m 0
 694.299 254 767.313 162.059 770 64 c 0
 770 54 768.333 42 765 28 c 1
 749 -22 l 1
 695 -4 l 1
 706 33 l 1
 713 63 l 1
 713 130.204 663.673 196 563 196 c 0
 481.674 196 428 136.92 428 57 c 0
 428 19.1102 438.904 -6.85933 460 -24 c 1
 490 25 l 1
 497 33 l 1
 540 -3 l 1
 512 -46 l 1
 492.667 -82 483 -113 483 -139 c 0
 483 -178.137 511.5 -208 559 -208 c 0
 599.35 -208 632 -182.225 632 -139 c 0
 632 -123.667 626.667 -109 616 -95 c 1
 584 -138 l 1
 537 -105 l 1
 636 26 l 1
 682 -7 l 1
 650 -49 l 1
 682.406 -83.2069 691 -121 691 -139 c 0
 691 -215.516 627.75 -267 559 -267 c 0
 481.126 -267 425 -210.545 425 -139 c 1
 427 -109 l 1
 432 -79 l 1
 412.551 -67.8862 378.604 -33.309 367 33 c 1
 335.667 9.66667 298.333 -2 255 -2 c 0
 183.247 -2 65 42.523 65 179 c 0
 65 213 72.6667 250 88 290 c 1
 42.0225 324.831 6 394.524 6 482 c 0
 6 560 30.6667 627.667 80 685 c 128
 129.333 742.333 192 771 268 771 c 0
 446.025 771 546 637.573 546 492 c 0
 546 454.776 534.595 395.17 520 362 c 1
 466 383 l 1
 480 437 l 2
 485.333 461 488 479.333 488 492 c 0
 488 602.215 412.117 712 268 712 c 0
 146.2 712 65 607.312 65 482 c 0
 65 452.667 69.3333 426 78 402 c 1
 88 380 100 361.333 114 346 c 1
 169 435 l 1
 216 399 l 1
 140.333 299.687 122 224.6 122 181 c 0
 122 83.4 211.712 59 255 59 c 0
 316.673 59 384 103.315 384 181 c 0
 384 207.529 370.223 247.509 343 269 c 1
 290 191 l 1
 241 224 l 1
 378 425 l 1
 428 392 l 1
 375 315 l 1
 392.129 300.318 423.715 268.799 437 214 c 1
 471 240.667 511.667 254 559 254 c 0
EndSplineSet
Ligature2: "'blws' Below Base Substitutions in Oriya lookup 9 subtable" u0B21 u0B21 u0B4D
EndChar

StartChar: u0B24_u0B4D_u0B28
Encoding: 196 -1 196
Width: 438
Flags: HW
AnchorPoint: "C" 266 800 basechar 0
LayerCount: 2
Back
SplineSet
261 0 m 0
 373.333 0 446 75.4 446 184 c 0
 446 289.333 394 350 346 377 c 1
 318 324 l 1
 352 308 388 253.333 388 185 c 0
 388 105.7 338.667 57.001 260 57.001 c 0
 172.667 57.001 116 91.3333 116 181 c 0
 116 224.6 134.333 299.688 210 399 c 1
 210 399 162.5 434.5 163 435 c 1
 141 409 122 376.667 108 346 c 1
 65.3333 396.667 58 434 58 499.003 c 0
 58 611.625 136 714.998 273.002 714.999 c 256
 368 715 483 635 483 512 c 0
 483 478.667 475.333 437.333 460 388 c 1
 514 370 l 1
 527 414 541 450.858 541 512 c 0
 541 656 417 769.998 274.006 769.999 c 0
 92 770 0 616 0 496.002 c 0
 0 398 32 330 82 292 c 1
 66.667 252 59 215 59 181 c 0
 59 61.3333 128.667 0 261 0 c 0
EndSplineSet
Ligature2: "'blws' Below Base Substitutions in Oriya lookup 9 subtable" u0B24 u0B28.sub
EndChar

StartChar: u0B26_u0B4D_u0B28
Encoding: 197 -1 197
Width: 544
Flags: HW
AnchorPoint: "C" 266 800 basechar 0
LayerCount: 2
Fore
SplineSet
271 59 m 0
 321.849 59 392 106.637 392 181 c 0
 392 224.333 384.333 258 369 282 c 1
 326 326 l 1
 368 368 l 1
 410 325 l 1
 426.667 305.667 438 279.667 444 247 c 1
 553 11 l 1
 499 -11 l 1
 441 122 l 1
 408.69 35.8412 326.386 1 273 1 c 0
 216.115 1 117.516 28.6071 92 125 c 1
 50 43 l 1
 -1 69 l 1
 105 280 l 1
 62.3331 306.819 5 380.713 5 484 c 0
 5 562 29.6667 629.667 79 687 c 128
 128.333 744.333 191 773 267 773 c 0
 445.025 773 545 639.573 545 494 c 0
 545 456.776 533.595 397.17 519 364 c 1
 465 385 l 1
 479 439 l 2
 484.333 463 487 481.333 487 494 c 0
 487 604.215 411.117 714 267 714 c 0
 145.2 714 64 609.312 64 484 c 0
 64 390.4 109.902 343.788 134 328 c 1
 191 414 l 1
 239 384 l 1
 177 289 l 1
 153.667 248.333 142 212.333 142 181 c 0
 142 83.4 225.5 59 271 59 c 0
EndSplineSet
Ligature2: "'blws' Below Base Substitutions in Oriya lookup 9 subtable" u0B26 u0B28.sub
EndChar

StartChar: u0B2C_u0B4D_u0B26
Encoding: 198 -1 198
Width: 666
Flags: HW
AnchorPoint: "C" 266 800 basechar 0
LayerCount: 2
Fore
SplineSet
1 527 m 0
 1 681.537 127.641 774 299 774 c 0
 383 774 459.5 750 528.5 702 c 128
 597.5 654 632.667 595.333 634 526 c 1
 634 444.053 624.608 432.038 620 409 c 1
 616.667 399 612 387 606 373 c 1
 553 391 l 1
 571 448 l 1
 575.616 478.464 577 494.2 577 525 c 0
 577 640.588 436.664 716 303 716 c 0
 207.22 716 63 678.4 63 528 c 0
 63 490.47 70.5743 453.745 83 432 c 1
 107 454 137.667 465 175 465 c 0
 263.576 465 308 377.541 308 275 c 1
 306 231 l 1
 306 145.8 333.377 61 404 61 c 0
 438 61 462.667 75.6667 478 105 c 1
 493 151 l 1
 493 330 l 1
 550 330 l 1
 550 1 l 1
 493 1 l 1
 493 31 l 1
 469.667 11 439.333 1 402 1 c 0
 319.8 1 285.181 75.3407 265 133 c 1
 241 104.333 208 90 166 90 c 256
 75.4398 90 29 180.842 29 282 c 0
 29 319.333 35 352 47 380 c 1
 36.9473 391.728 1 438.8 1 527 c 0
166 147 m 0
 233.2 147 250 213.15 250 273 c 256
 250 311.667 244.333 343.333 233 368 c 128
 221.667 392.667 201.667 405 173 405 c 0
 138.6 405 87 384.3 87 280 c 0
 87 221.863 102.8 147 166 147 c 0
EndSplineSet
Ligature2: "'blws' Below Base Substitutions in Oriya lookup 9 subtable" u0B2C u0B26 u0B4D
EndChar

StartChar: u0B26_u0B4D_u0B27
Encoding: 199 -1 199
Width: 632
Flags: HW
AnchorPoint: "C" 266 800 basechar 0
LayerCount: 2
Fore
SplineSet
122 284 m 1
 77.9038 304.698 11 368.8 11 496 c 0
 11 571.333 38.8333 636 94.5 690 c 128
 150.167 744 215.667 771 291 771 c 0
 370.333 771 442 747.667 506 701 c 0
 579.333 647 613.667 581 609 503 c 2
 605 425 l 2
 605 411 604.333 398.667 603 388 c 1
 598.333 368.667 595.333 354 594 344 c 1
 537 358 l 1
 548 419 l 1
 553 504 l 1
 553 642.647 409.591 717 286 717 c 2
 266 717 l 1
 238 712 l 1
 532 347 l 1
 532 -3 l 1
 474 -3 l 1
 474 83 l 1
 458.667 73.6667 443.667 69 429 69 c 0
 387.626 69 359.53 94.6788 342 120 c 1
 333.403 109.493 298 69 232 69 c 0
 148.665 69 107 130.076 107 207 c 0
 107 231.667 112 257.333 122 284 c 1
429 128 m 0
 453.384 128 467.493 148.688 476 164 c 1
 476 319 l 1
 183 685 l 1
 83.0641 630.133 70 537.363 70 496 c 0
 70 477.892 70 374 144 336 c 1
 156 357.333 171.333 377.333 190 396 c 1
 230 354 l 1
 201.004 325.004 165 265.8 165 207 c 0
 165 172.678 178.4 128 232 128 c 0
 263.333 128 290.667 149.667 314 193 c 1
 314 318 l 1
 371 318 l 1
 371 193 l 1
 389.667 149.667 409 128 429 128 c 0
EndSplineSet
Ligature2: "'blws' Below Base Substitutions in Oriya lookup 9 subtable" u0B26 u0B27 u0B4D
EndChar

StartChar: u0B26_u0B4D_u0B26
Encoding: 200 -1 200
Width: 627
Flags: HW
AnchorPoint: "C" 266 800 basechar 0
LayerCount: 2
Fore
SplineSet
4 500 m 0
 4 615.176 54 775 254 775 c 0
 329.333 775 392.667 763 444 739 c 128
 495.333 715 525 676.333 533 623 c 1
 537 584 l 1
 537 557.333 530.667 526 518 490 c 1
 464 508 l 1
 474 538.667 479 566.333 479 591 c 1
 478 613 l 1
 462.126 695.255 366.276 717 254 717 c 0
 101.2 717 63 592.399 63 501 c 0
 63 482.892 63 379 137 341 c 1
 149 362.333 164.333 382.333 183 401 c 1
 223 359 l 1
 194.004 330.004 158 270.8 158 212 c 0
 158 177.678 171.4 133 225 133 c 0
 256.333 133 283.667 154.667 307 198 c 1
 307 323 l 1
 364 323 l 1
 364 198 l 1
 382.667 154.667 402 133 422 133 c 0
 440 133 456.139 143.131 467 173 c 1
 467 341 l 1
 525 341 l 1
 525 1 l 1
 467 1 l 1
 467 87 l 1
 451.667 77.6667 436.667 73 422 73 c 0
 380.626 73 352.53 98.6788 335 124 c 1
 326.403 113.493 291 73 225 73 c 0
 141.665 73 100 134.076 100 211 c 0
 100 235.667 105 261.333 115 288 c 1
 70.9038 308.698 4 372.8 4 500 c 0
EndSplineSet
Ligature2: "'blws' Below Base Substitutions in Oriya lookup 9 subtable" u0B26 u0B26 u0B4D
EndChar

StartChar: u0B28_u0B4D_u0B28
Encoding: 201 -1 201
Width: 620
Flags: HW
AnchorPoint: "C" 266 800 basechar 0
LayerCount: 2
Fore
SplineSet
364 389 m 1
 222.458 372.51 113 201.09 113 72 c 1
 55 72 l 1
 55 141.333 79 211.333 127 282 c 1
 47 324 7 400.333 7 511 c 0
 7 658.271 100.695 772 268 772 c 0
 354.667 772 424.333 742.333 477 683 c 1
 523 629 545.333 566.667 544 496 c 1
 486 496 l 1
 486 606.215 410.117 716 266 716 c 0
 141.528 716 62 634.4 62 512 c 0
 62 423.333 94.6667 362.333 160 329 c 1
 263.327 447.089 384.345 449 420 449 c 1
 424 238 l 1
 463 247 l 1
 509 251 l 1
 509 -3 l 1
 452 -3 l 1
 451 191 l 1
 366.855 174.171 302 71.9543 302 0 c 1
 244 0 l 1
 244 82.8 300.779 162.375 366 207 c 1
 364 389 l 1
EndSplineSet
Ligature2: "'blws' Below Base Substitutions in Oriya lookup 9 subtable" u0B28 u0B28.sub
EndChar

StartChar: u0B2A_u0B4D_u0B38
Encoding: 202 -1 202
Width: 492
Flags: HW
AnchorPoint: "C" 266 800 basechar 0
LayerCount: 2
Fore
SplineSet
239 771 m 0
 369.2 771 439.799 706.94 456 693 c 1
 456 774 l 1
 514 774 l 1
 514 284 l 1
 551.267 278.267 574.078 265.948 601 248 c 1
 601 280 l 1
 658 280 l 1
 660 -275 l 1
 317 -67 l 1
 366 -27 l 1
 354 -15 l 1
 335 13 l 1
 298 2 l 1
 264 0 l 1
 156.137 0 76 83.2475 76 200 c 0
 76 260.879 84.7989 286.598 107 331 c 1
 65.3003 353.935 5 412.2 5 534 c 0
 5 723.6 127.625 771 239 771 c 0
305 122 m 0
 305 229.016 373.78 288 454 288 c 1
 454 614 l 1
 393.039 677.864 323.8 712 237 712 c 0
 120.519 712 61 651.571 61 534 c 0
 61 442.2 105.701 398.915 133 381 c 1
 159 417 l 1
 202 378 l 1
 167 325 l 1
 143 279.667 131 237.667 131 199 c 0
 131 117.932 182.6 57 260 57 c 1
 285 59 l 1
 311 64 l 1
 306.446 86.7692 305 98.8 305 122 c 0
470 230 m 0
 417.767 230 366 195.697 366 122 c 0
 366 71.7502 380.585 31.8103 411 11 c 1
 507 93 l 1
 546 49 l 1
 416 -61 l 1
 601 -176 l 1
 601 169 l 1
 568.394 205.519 530.239 230 470 230 c 0
EndSplineSet
Ligature2: "'blws' Below Base Substitutions in Oriya lookup 9 subtable" u0B2A u0B38 u0B4D
EndChar

StartChar: u0B2E_u0B4D_u0B2E
Encoding: 203 -1 203
Width: 726
Flags: HW
AnchorPoint: "C" 266 800 basechar 0
LayerCount: 2
Fore
SplineSet
265 776 m 0
 347.625 776 413.509 749.409 462 709 c 1
 462 777 l 1
 519 777 l 1
 519 306 l 1
 545 297 l 1
 571 285 l 1
 571 324 l 1
 629 324 l 1
 630 -148 l 1
 572 -148 l 1
 572 204 l 1
 562.979 219.788 531.6 251 471 251 c 0
 435.181 251 370 222.466 370 132 c 0
 370 101.333 377.333 77.3333 392 60 c 0
 400 49.3333 414 40 434 32 c 1
 509 92 l 1
 545 46 l 1
 357 -103 l 1
 321 -57 l 1
 382 -7 l 1
 337.828 17.371 311 60.4324 311 133 c 0
 311 241.437 387.751 310 463 310 c 1
 463 623 l 1
 443.952 652.074 384.6 717 267 717 c 0
 186.904 717 66 650.472 66 488 c 0
 66 376.386 116.449 315.586 206 290 c 1
 344 396 l 1
 380 350 l 1
 51 94 l 1
 15 140 l 1
 152 246 l 1
 60.5405 284.108 6 359.931 6 488 c 0
 6 582.667 37.6667 657 101 711 c 0
 145.191 749.219 199.4 776 265 776 c 0
EndSplineSet
Ligature2: "'blws' Below Base Substitutions in Oriya lookup 9 subtable" u0B2E u0B2E.sub
EndChar

StartChar: u0B33_u0B4D_u0B2B
Encoding: 204 -1 204
Width: 310
Flags: HW
AnchorPoint: "C" 266 800 basechar 0
LayerCount: 2
Fore
SplineSet
784 243 m 0
 849.6 243 868.457 193.999 866 151 c 1
 866 116.973 842.151 67 788 67 c 0
 774 67 758.333 73 741 85 c 1
 741 -253 l 1
 683 -253 l 1
 683 -220 l 1
 652.068 -240.173 605 -262 553 -262 c 0
 474.691 -262 410 -209.175 410 -121 c 2
 410 -104 l 130
 410 -97.8641 416.931 -64.3674 428 -41 c 1
 388.022 -18.9431 359 32.7427 359 94 c 1
 363 143 l 1
 363 268 l 1
 361.596 279.229 354.654 282.543 335 285 c 0
 327 285 319.333 282.333 312 277 c 1
 307 268 l 1
 308 -3 l 1
 250 -3 l 1
 250 268 l 2
 249.8 269 248.278 285 222 285 c 0
 216 285 210 283.333 204 280 c 1
 195 271 l 1
 195 -3 l 1
 138 -3 l 1
 138 272 l 1
 65.5395 306.981 13 389.825 13 496 c 0
 13 571.333 40.5 636 95.5 690 c 128
 150.5 744 212.333 771 281 771 c 0
 402.09 771 552 695.955 552 508 c 0
 552 446.858 539.012 407.159 525 366 c 1
 471 384 l 1
 486.333 433.333 494 474.667 494 508 c 0
 494 576.667 469.333 629.667 420 667 c 1
 381.333 697.667 335.667 713 283 713 c 256
 230.333 713 182.333 691.667 139 649 c 128
 95.6667 606.333 74 555.667 74 497 c 0
 74 413.612 109.674 351.883 166 325 c 1
 171.333 330.333 179 334.667 189 338 c 1
 225 343 l 1
 247 343 265.667 337 281 325 c 1
 295.667 337 315 343 339 343 c 0
 413.646 343 421.357 284.803 424 270 c 1
 424 228 l 1
 452.667 246.667 491 256 539 256 c 0
 597.8 256 638.168 245.337 686 212 c 1
 686 248 l 1
 744 248 l 1
 744 229 l 1
 756 238.333 769.333 243 784 243 c 0
811 149 m 0
 811 173 801.667 185 783 185 c 0
 775 185 768.333 182 763 176 c 1
 748 153 l 1
 770 131 l 2
 773.333 128.333 780 126.333 790 125 c 1
 804 125 811 133 811 149 c 0
552 -204 m 0
 604.284 -204 654.987 -172.012 684 -145 c 1
 684 137 l 1
 647.784 174.222 606.976 200 536 200 c 0
 461.494 200 417 167.918 417 96 c 0
 417 77.3333 420.667 60.6667 428 46 c 1
 437.333 31.3333 447.333 19 458 9 c 1
 467 21 l 1
 472 26 l 1
 514 -14 l 1
 491 -46 l 1
 474.333 -72.6667 466 -98 466 -122 c 0
 466 -165.444 503.574 -204 552 -204 c 0
EndSplineSet
Ligature2: "'blws' Below Base Substitutions in Oriya lookup 9 subtable" u0B33 u0B2B u0B4D
EndChar

StartChar: u0B37_u0B4D_u0B2B
Encoding: 205 -1 205
Width: 266
Flags: HW
AnchorPoint: "C" 266 800 basechar 0
LayerCount: 2
Fore
SplineSet
740 246 m 0
 808.8 246 823.911 190.701 826 151 c 1
 826 107.425 794.8 67 748 67 c 0
 734 67 718.333 73 701 85 c 1
 701 -253 l 1
 643 -253 l 1
 643 -220 l 1
 612.068 -240.173 565 -262 513 -262 c 0
 434.746 -262 369 -204.212 369 -121 c 1
 373 -81 l 1
 375.053 -70.7367 382.341 -50.2493 387 -40 c 1
 359 -18 l 1
 349.667 -8.66667 342.667 0.333333 338 9 c 1
 296 3 l 1
 267 1 l 1
 159.137 1 79 84.2475 79 201 c 0
 79 253.8 89.393 290.47 108 333 c 1
 42.7761 371.824 8 442.94 8 536 c 0
 8 725.6 133.306 773 244 773 c 0
 374.2 773 444.799 708.94 461 695 c 1
 461 776 l 1
 519 776 l 1
 519 257 l 1
 569.795 257 610.352 235.896 641 215 c 1
 641 251 l 1
 699 251 l 1
 699 232 l 1
 711 241.333 724.667 246 740 246 c 0
766 152 m 0
 766 176 757.333 188 740 188 c 0
 732.667 188 726 185 720 179 c 1
 705 156 l 1
 727 134 l 1
 731.667 131.333 738 129.333 746 128 c 1
 760 128 766.667 136 766 152 c 0
458 621 m 1
 397.039 684.864 327.8 719 241 719 c 0
 193.667 719 155.333 709 126 689 c 1
 458 273 l 1
 458 621 l 1
217 484 m 1
 87 644 l 1
 79.6667 629.333 74.3333 614.667 71 600 c 1
 66 542 l 1
 66 518.92 64.5915 439.406 135 391 c 1
 147.667 410.333 162.333 429.333 179 448 c 1
 217 484 l 1
316 103 m 1
 316 181.933 346.818 225.434 405 250 c 1
 253 440 l 1
 188.717 384.9 135 302.736 135 208 c 0
 135 126.152 187 66 265 66 c 0
 283.667 66 301.333 68.3333 318 73 c 1
 316 103 l 1
510 -198 m 0
 575.759 -198 613.722 -162.575 641 -140 c 1
 641 142 l 1
 604.356 179.662 566.041 205 494 205 c 0
 441.56 205 375 184 375 100 c 0
 375 57.9285 391.429 30.9284 414 14 c 1
 429 32 l 1
 471 -8 l 1
 448 -40 l 1
 432.667 -66 425 -91.3333 425 -116 c 0
 425 -165.2 463.1 -198 510 -198 c 0
EndSplineSet
Ligature2: "'blws' Below Base Substitutions in Oriya lookup 9 subtable" u0B37 u0B2B u0B4D
EndChar

StartChar: u0B37_u0B4D_u0B15
Encoding: 206 -1 206
Width: 746
Flags: HW
AnchorPoint: "C" 266 800 basechar 0
LayerCount: 2
Fore
SplineSet
545 24 m 1
 617 24 635 -19.8 635 -64 c 2
 635 -253 l 1
 577 -253 l 1
 577 -60 l 2
 577 -40 566.333 -30 545 -30 c 0
 525 -30 515 -40 515 -60 c 2
 515 -250 l 1
 457 -250 l 1
 457 -201 l 1
 444.333 -208.333 429.333 -212 412 -212 c 0
 372.8 -212 314 -187 314 -87 c 0
 314 -19.3704 351.203 27 415 27 c 0
 431.667 27 446.333 24 459 18 c 1
 459 75 l 1
 412.859 37.1407 345.084 1.77399e-18 266 0 c 0
 158.137 0 78 83.2475 78 200 c 0
 78 260.879 86.7989 286.598 109 331 c 1
 67.3003 353.935 7 412.2 7 534 c 0
 7 723.6 129.625 771 241 771 c 0
 371.2 771 441.799 706.94 458 693 c 1
 458 774 l 1
 516 774 l 1
 516 23 l 1
 545 24 l 1
456 614 m 1
 395.039 677.864 325.8 712 239 712 c 0
 191.667 712 153.333 702 124 682 c 1
 456 267 l 1
 456 614 l 1
264 57 m 0
 369.732 57 435.31 131.728 458 153 c 1
 458 172 l 1
 86 636 l 1
 78.6667 621.333 73.3333 606.667 70 592 c 1
 65 534 l 1
 65 442.2 109.701 398.915 137 381 c 1
 163 417 l 1
 206 378 l 1
 171 325 l 1
 147 279.667 135 237.667 135 199 c 0
 135 117.932 186.6 57 264 57 c 0
409 -155 m 0
 440.174 -155 448.151 -123.87 452 -95 c 1
 452 -63.2531 444 -33 412 -33 c 0
 376.8 -33 368 -69.4 368 -90 c 0
 368 -121.991 375.957 -155 409 -155 c 0
EndSplineSet
Ligature2: "'blws' Below Base Substitutions in Oriya lookup 9 subtable" u0B37 u0B15.sub
EndChar

StartChar: u0B38_u0B4D_u0B2A
Encoding: 207 -1 207
Width: 823
Flags: HW
AnchorPoint: "C" 266 800 basechar 0
LayerCount: 2
Fore
SplineSet
241 773 m 0
 371.2 773 441.799 708.94 458 695 c 1
 458 776 l 1
 516 776 l 1
 516 211 l 1
 566 216 l 1
 602.116 216 611.519 216.088 638 206 c 1
 659.333 200.667 678.667 190.667 696 176 c 1
 696 208 l 1
 754 208 l 1
 756 -298 l 1
 698 -298 l 1
 698 -269 l 1
 656.173 -295.617 629.6 -306 584 -306 c 0
 508.02 -306 450 -249.743 450 -167 c 1
 454 -125 l 1
 456.667 -111 461 -97.6667 467 -85 c 1
 436.081 -60.5904 420.303 -35.375 411 3 c 1
 32 238 l 1
 104 299 l 1
 34.8293 354.337 6 443.736 6 531 c 0
 6 692.173 117.961 773 241 773 c 0
402 79 m 1
 402 103.106 404.293 145.434 455 186 c 1
 455 618 l 1
 394.039 681.864 324.8 716 238 716 c 0
 166.702 716 61 678.77 61 534 c 0
 61 450.954 89.0791 373.097 148 342 c 1
 306 476 l 1
 345 432 l 1
 127 249 l 1
 402 79 l 1
580 -246 m 0
 637.565 -246 679.926 -208.871 695 -188 c 1
 695 99 l 1
 662.499 138.888 618.608 159 565 159 c 0
 517.391 159 461 138 461 54 c 0
 461 16.4437 469.685 -9.73771 494 -30 c 1
 506 -15 l 1
 550 -54 l 1
 528 -86 l 1
 512.667 -114.667 505 -140.667 505 -164 c 0
 505 -207.575 535 -246 580 -246 c 0
EndSplineSet
Ligature2: "'blws' Below Base Substitutions in Oriya lookup 9 subtable" u0B38 u0B2A u0B4D
EndChar

StartChar: u0B37_u0B4D_u0B2A
Encoding: 208 -1 208
Width: 760
Flags: HW
AnchorPoint: "C" 266 800 basechar 0
LayerCount: 2
Fore
SplineSet
242 770 m 0
 372.2 770 442.799 705.94 459 692 c 1
 459 773 l 1
 517 773 l 1
 517 213 l 1
 550.637 213 559.805 213.187 584 203 c 1
 603.333 197.667 621.667 187.667 639 173 c 1
 639 205 l 1
 697 205 l 1
 698 -298 l 1
 640 -298 l 1
 640 -269 l 1
 598.173 -295.617 571.6 -306 526 -306 c 0
 455.344 -306 393 -256.237 393 -167 c 0
 393 -139 399 -111.667 411 -85 c 1
 381.309 -63.1228 360.676 -31.7498 351 13 c 1
 308 1 l 1
 267 -1 l 1
 159.137 -1 79 82.2475 79 199 c 0
 79 259.879 87.7989 285.598 110 330 c 1
 68.3003 352.935 8 411.2 8 533 c 0
 8 722.6 130.625 770 242 770 c 0
455 615 m 1
 394.039 678.864 324.8 713 238 713 c 0
 192.667 713 155.667 703.667 127 685 c 1
 455 272 l 1
 455 615 l 1
343 75 m 1
 343 125.328 376.593 183.741 437 201 c 1
 86 642 l 1
 69.3333 617.333 61 581.667 61 535 c 0
 61 443.2 105.701 399.915 133 382 c 1
 159 418 l 1
 202 379 l 1
 167 326 l 1
 143 280.667 131 238.667 131 200 c 0
 131 118.932 182.6 58 260 58 c 1
 300 62 l 1
 314.667 64.6667 329 69 343 75 c 1
519 -251 m 0
 565.4 -251 608.867 -224.36 635 -193 c 1
 635 94 l 1
 602.499 133.888 558.608 154 505 154 c 0
 457.391 154 401 133 401 49 c 0
 401 11.4437 409.685 -14.7377 434 -35 c 1
 446 -20 l 1
 490 -59 l 1
 468 -91 l 1
 452.667 -119.667 445 -145.667 445 -169 c 0
 445 -213.575 474.6 -251 519 -251 c 0
EndSplineSet
Ligature2: "'blws' Below Base Substitutions in Oriya lookup 9 subtable" u0B37 u0B2A u0B4D
EndChar

StartChar: u0B2E_u0B4D_u0B16
Encoding: 209 -1 209
Width: 679
Flags: HW
AnchorPoint: "C" 266 800 basechar 0
LayerCount: 2
Fore
SplineSet
148 278 m 1
 72.1126 295.182 5 348 5 453 c 0
 5 569.343 54.4617 659.321 124 713 c 1
 181.469 762.703 256.943 774 362 774 c 1
 306 715.333 278 662.333 278 615 c 0
 278 570.333 305.333 548 360 548 c 0
 410.72 548 438.562 564.562 463 589 c 1
 375 729 l 1
 425 759 l 1
 497 643 l 1
 497 774 l 1
 555 774 l 1
 555 550 l 1
 753 246 l 1
 704 216 l 1
 559 445 l 1
 559 0 l 1
 501 0 l 1
 501 536 l 1
 499 543 l 1
 467.021 516.731 417.4 492 363 492 c 0
 231.1 492 214 575.33 214 619 c 0
 214 647.667 221.333 677.333 236 708 c 1
 221.333 705.333 209 700.333 199 693 c 1
 163 671 l 1
 97.6667 617 65 545 65 455 c 0
 65 408.333 83.3333 373.333 120 350 c 0
 144.667 335.333 168 328 190 328 c 1
 220 354 l 1
 252 377 l 1
 279 324 l 1
 207.937 285.239 106.663 135.45 71 -1 c 1
 14 11 l 1
 33.0935 98.512 96.945 209.565 148 278 c 1
EndSplineSet
Ligature2: "'blws' Below Base Substitutions in Oriya lookup 9 subtable" u0B2E u0B16 u0B4D
EndChar

StartChar: u0B1E_u0B4D_u0B1A
Encoding: 210 -1 210
Width: 627
Flags: HW
AnchorPoint: "C" 266 800 basechar 0
LayerCount: 2
Fore
SplineSet
389 772 m 0
 456.794 772 511.178 747.679 513 642 c 0
 513 622 504.667 598 488 570 c 1
 488 1 l 1
 430 1 l 1
 430 73 l 1
 382.705 33.8129 312.765 2 209 2 c 0
 32.4875 2 4 87.8 4 145 c 0
 4 183.667 23.3333 217.667 62 247 c 1
 90.6667 267 134.667 286.667 194 306 c 1
 290 334 l 1
 319.333 344.667 334 360.667 334 382 c 0
 334 410.8 319.3 454 229 454 c 0
 146.75 454 125 405.036 125 375 c 1
 126 359 l 1
 69 350 l 1
 67 380 l 1
 67 439.4 96.0891 466.475 111 479 c 1
 28.0086 511.883 -3 557.6 -3 610 c 0
 -3 657.333 0 689.333 6 706 c 1
 35 766 l 1
 89 743 l 1
 63 693 l 1
 57.6667 679 55 651.667 55 611 c 0
 55 532.521 171.833 515 264 515 c 0
 397.708 515 455 596.497 455 640 c 0
 455 683.395 443.69 714 391 714 c 0
 365 714 347 703 337 681 c 1
 337 609 l 1
 279 609 l 1
 279 679 l 1
 264 697 l 1
 249.333 709 232 715 212 715 c 0
 197.91 715 163.09 700.359 160 671 c 1
 160 649.932 166.1 637.9 171 633 c 1
 134 589 l 1
 119 610 l 1
 108.333 629.333 103 650 103 672 c 0
 103 725.829 175.373 774 212 774 c 0
 245.429 774 284.589 762.087 306 738 c 1
 314.765 746.766 339.2 772 389 772 c 0
360 471 m 1
 375.723 455.277 391 420.876 391 384 c 0
 391 282.774 199.623 262.311 109 217 c 1
 77 198.333 61 174.667 61 146 c 0
 61 89.3333 110 61 208 61 c 0
 325.598 61 411.075 115.225 427 163 c 1
 428 506 l 1
 408.667 490.667 386 479 360 471 c 1
EndSplineSet
Ligature2: "'blws' Below Base Substitutions in Oriya lookup 9 subtable" u0B1E u0B1A u0B4D
EndChar

StartChar: u0B38_u0B4D_u0B16
Encoding: 211 -1 211
Width: 715
Flags: HW
AnchorPoint: "C" 266 800 basechar 0
LayerCount: 2
Fore
SplineSet
551 348 m 1
 523.979 320.014 497.969 283.638 494 238 c 1
 494 214.667 504.667 203 526 203 c 0
 552.667 203 571 225.333 581 270 c 1
 589 326 l 1
 647 322 l 1
 645 -166 l 1
 587 -166 l 1
 587 174 l 1
 558 152 l 1
 548 146.667 536.667 144 524 144 c 0
 468.8 144 432 192.986 432 252 c 0
 432 266.667 432.667 276.333 434 281 c 1
 386.639 265.64 346 216.903 346 161 c 0
 346 140.397 351.498 78.7506 397 63 c 1
 416.333 69 433 72 447 72 c 0
 511.806 72 546 16.9604 546 -54 c 256
 546 -125.594 514.19 -174 444 -174 c 0
 378.288 -174 345 -120.004 345 -47 c 0
 345 -20.3333 348.667 0.333333 356 15 c 1
 334.667 27.6667 317 50.3333 303 83 c 1
 301 78 l 1
 34 240 l 1
 106 301 l 1
 36.8293 356.337 8 445.736 8 533 c 0
 8 694.173 119.961 775 243 775 c 0
 373.2 775 443.799 710.94 460 697 c 1
 460 778 l 1
 518 778 l 1
 518 347 l 1
 551 348 l 1
287 162 m 2
 287 233.6 333.366 311.674 458 341 c 1
 458 619 l 1
 397.039 682.864 327.8 717 241 717 c 0
 169.702 717 64 679.77 64 535 c 0
 64 451.954 92.0791 374.097 151 343 c 1
 309 477 l 1
 348 433 l 1
 132 250 l 1
 287 157 l 1
 287 162 l 2
442 -113 m 0
 478 -113 487 -75.8 487 -51 c 0
 487 -3.41953 470.6 13 446 13 c 0
 427.6 13 400 1.4 400 -45 c 0
 400 -96.25 416.8 -113 442 -113 c 0
EndSplineSet
Ligature2: "'blws' Below Base Substitutions in Oriya lookup 9 subtable" u0B38 u0B16 u0B4D
EndChar

StartChar: u0B23_u0B4D_u0B22
Encoding: 212 -1 212
Width: 638
Flags: HW
AnchorPoint: "C" 266 800 basechar 0
LayerCount: 2
Fore
SplineSet
518 49 m 1
 575.367 36.2518 593 -19.4 593 -65 c 0
 593 -119.667 574.333 -158 537 -180 c 1
 651 -273 l 1
 612 -317 l 1
 447 -176 l 1
 430.333 -168 416.667 -154 406 -134 c 1
 396.667 -112.667 392 -90 392 -66 c 0
 392 -4.55039 411.595 32.7469 459 49 c 1
 459 611 l 1
 426.348 661.938 367.967 712 288 712 c 0
 223.41 712 184 672.234 184 605 c 0
 184 578.333 189 561.333 199 554 c 1
 215.667 544.667 238.667 528 268 504 c 1
 301 475 l 1
 259 433 l 1
 231 459 l 1
 209 477.667 188.667 491.667 170 501 c 1
 102.137 501 77.469 443.127 68 380 c 1
 249.566 380 400 334.4 400 152 c 0
 400 56.3748 337.885 1 256 1 c 0
 119.396 1 7 137.836 7 318 c 0
 7 442.007 40.9847 526.286 138 553 c 1
 132 589 l 1
 132 608 l 2
 132 676.725 163.4 770 289 770 c 0
 314.451 770 381.532 768.749 460 699 c 1
 460 771 l 1
 518 771 l 1
 518 49 l 1
497 -132 m 0
 528.2 -132 536 -92.4 536 -66 c 0
 536 -35.5195 527 -6 491 -6 c 0
 459 -6 451 -36.9281 451 -67 c 0
 451 -101.088 464.324 -132 497 -132 c 0
253 57 m 0
 290.151 57 338.429 83.0266 340 149 c 1
 340 282.6 229.475 316 95 316 c 2
 63 316 l 1
 63 200.817 127.912 57 253 57 c 0
EndSplineSet
Ligature2: "'blws' Below Base Substitutions in Oriya lookup 9 subtable" u0B23 u0B22 u0B4D
EndChar

StartChar: u0B23_u0B4D_u0B20
Encoding: 213 -1 213
Width: 866
Flags: HW
AnchorPoint: "C" 266 800 basechar 0
LayerCount: 2
Fore
SplineSet
599 346 m 0
 706.2 346 733 239.2 733 168 c 0
 733 89.1516 704.6 -2.05276e-18 591 0 c 0
 563 0 538.333 7.66667 517 23 c 1
 517 0 l 1
 459 0 l 1
 459 616 l 1
 426.348 666.938 367.967 717 288 717 c 0
 223.41 717 184 677.234 184 610 c 0
 184 583.333 189 566.333 199 559 c 1
 215.667 549.667 238.667 533 268 509 c 1
 301 480 l 1
 259 438 l 1
 231 464 l 1
 209 482.667 188.667 496.667 170 506 c 1
 102.137 506 77.469 448.127 68 385 c 1
 249.566 385 400 339.4 400 157 c 0
 400 61.3748 337.885 6 256 6 c 0
 119.396 6 7 142.836 7 323 c 0
 7 447.007 40.9847 531.286 138 558 c 1
 132 594 l 1
 132 613 l 2
 132 681.725 163.4 775 289 775 c 0
 314.451 775 381.532 773.749 460 704 c 1
 460 776 l 1
 518 776 l 1
 518 323 l 1
 539.333 338.333 566.333 346 599 346 c 0
591 60 m 0
 648.929 60 674.734 104.411 676 169 c 0
 676 203 670.167 231.333 658.5 254 c 128
 646.833 276.667 626.667 288 598 288 c 0
 549.606 288 530.011 261.034 518 225 c 1
 518 126 l 1
 520.183 114.213 532.6 60 591 60 c 0
253 61 m 0
 294.496 61 339.473 91.113 338 153 c 1
 338 293 215.7 328 105 328 c 2
 82 328 l 1
 63 326 l 1
 63 321 l 2
 63 183.46 135.542 61 253 61 c 0
EndSplineSet
Ligature2: "'blws' Below Base Substitutions in Oriya lookup 9 subtable" u0B23 u0B20 u0B4D
EndChar

StartChar: u0B36_u0B4D_u0B1A
Encoding: 214 -1 214
Width: 645
Flags: HW
AnchorPoint: "C" 266 800 basechar 0
LayerCount: 2
Fore
SplineSet
365 785 m 0
 449 785 527.776 749.321 575 708 c 1
 575 769 l 1
 633 769 l 1
 633 303 l 1
 649.667 308.333 667.333 311 686 311 c 0
 719 311 773.236 305.506 851 237 c 1
 811 200 l 1
 770.333 240.667 728.333 261 685 261 c 0
 612.729 261 558 201.514 558 131 c 0
 558 112.704 562.942 45.9432 609 30 c 1
 623 38 639.667 42 659 42 c 0
 718.4 42 758 -5.925 758 -84 c 256
 758 -142.4 737.2 -204 654 -204 c 0
 594.6 -204 555 -156.475 555 -79 c 0
 555 -56.3333 559.667 -35.3333 569 -16 c 1
 523.667 13.3333 501 61.3333 501 128 c 0
 501 192 525 242 573 278 c 1
 573 625 l 1
 542.909 690.915 444.161 731 369 731 c 0
 259.016 731 226 659.6 226 612 c 0
 226 595.333 230.667 581 240 569 c 1
 349 484 l 1
 313 438 l 1
 199 526 l 1
 184.333 536 167.667 541 149 541 c 0
 82.4329 541 66 483.844 66 452 c 0
 66 427 76.0609 361.592 182 327 c 1
 203.333 341 229.333 348 260 348 c 0
 367.2 348 394 241.2 394 170 c 0
 394 93.925 365.6 2 252 2 c 0
 143.2 2 116 108.625 116 179 c 0
 116 217 124.333 250.667 141 280 c 1
 60.497 314.935 11 382.6 11 451 c 1
 12 481 l 2
 12 488.333 15 499 21 513 c 1
 44.58 583.74 120.116 599 156 599 c 1
 171 598 l 1
 171 629.2 173.263 647.31 185 676 c 1
 202.596 725.018 239.883 764.787 325 781 c 128
 339 783.667 352.333 785 365 785 c 0
655 -153 m 256
 696.633 -153 699.934 -110.465 703 -89 c 1
 703 -39.6141 685.8 -25 660 -25 c 256
 625.572 -25 613 -50.5479 613 -85 c 0
 613 -136.25 629.8 -153 655 -153 c 256
246 53 m 0
 303.867 53 330 97.0502 330 163 c 0
 330 220.225 314.6 282 253 282 c 256
 196.826 282 166 238.721 166 173 c 0
 166 119 182 53 246 53 c 0
EndSplineSet
Ligature2: "'blws' Below Base Substitutions in Oriya lookup 9 subtable" u0B36 u0B1A u0B4D
EndChar

StartChar: u0B37_u0B4D_u0B23
Encoding: 215 -1 215
Width: 803
Flags: HW
AnchorPoint: "C" 266 800 basechar 0
LayerCount: 2
Fore
SplineSet
657 20 m 1
 677.387 -1.74605 691 -40.4993 691 -84 c 0
 691 -184.319 594.613 -210 537 -210 c 0
 413.766 -210 340.425 -110.654 323 9 c 1
 303.667 3.66667 284 1 264 1 c 0
 156.137 1 76 84.2475 76 201 c 0
 76 261.879 84.7989 287.598 107 332 c 1
 65.3003 354.935 5 413.2 5 535 c 0
 5 724.6 127.625 772 239 772 c 0
 369.2 772 439.799 707.94 456 694 c 1
 456 775 l 1
 514 775 l 1
 514 304 l 1
 571 309 l 1
 583 309 l 1
 592 308 l 1
 587 251 l 1
 423.8 251 383 142.202 383 31 c 0
 383 -109.699 468.188 -151 536 -151 c 0
 591.133 -151 629 -129.975 629 -83 c 0
 629 -55.212 623.36 -37.1066 611 -22 c 1
 592 -36 l 1
 559 10 l 1
 598 42 l 1
 614.667 58.6667 623 78.6667 623 102 c 0
 623 125.061 611.435 136.507 589 139 c 1
 569.667 139 560 126 560 100 c 1
 502 100 l 1
 502 156.032 535.421 198 589 198 c 256
 640.512 198 682 161.671 682 101 c 0
 682 84.3333 679.667 70 675 58 c 1
 672.993 45.9577 671.832 39.776 657 20 c 1
456 620 m 1
 395.039 683.864 325.8 718 239 718 c 0
 193.667 718 156.667 708.667 128 690 c 1
 449 285 l 1
 456 290 l 1
 456 620 l 1
318 73 m 1
 318 159.886 346.819 215.114 400 255 c 1
 87 648 l 1
 70.3333 623.333 62 587.667 62 541 c 0
 62 449.2 106.701 405.915 134 388 c 1
 160 424 l 1
 203 385 l 1
 168 332 l 1
 144 286.667 132 244.667 132 206 c 0
 132 124.932 183.6 64 261 64 c 0
 283.667 64 302.667 67 318 73 c 1
EndSplineSet
Ligature2: "'blws' Below Base Substitutions in Oriya lookup 9 subtable" u0B37 u0B23 u0B4D
EndChar

StartChar: u0B23_u0B4D_u0B13
Encoding: 216 -1 216
Width: 679
Flags: HW
AnchorPoint: "C" 266 800 basechar 0
LayerCount: 2
Fore
SplineSet
822 230 m 1
 847.933 202.338 855.968 160.032 855 131 c 0
 855 52.7656 769.59 2 677 2 c 0
 619.667 2 570 24.3333 528 69 c 0
 483.333 116.333 461 180 461 260 c 2
 460 615 l 1
 443.333 641 421 664 393 684 c 0
 361.667 705.333 327 716 289 716 c 0
 224.41 716 185 676.234 185 609 c 0
 185 582.333 190 565.333 200 558 c 1
 216.667 548.667 239.667 532 269 508 c 1
 302 479 l 1
 260 437 l 1
 232 463 l 1
 210 481.667 189.667 495.667 171 505 c 1
 103.137 505 78.469 447.127 69 384 c 1
 250.566 384 401 338.4 401 156 c 0
 401 60.3748 338.885 5 257 5 c 0
 120.396 5 8 141.836 8 322 c 0
 8 446.007 41.9847 530.286 139 557 c 1
 133 593 l 1
 133 612 l 2
 133 680.725 164.4 774 290 774 c 0
 315.451 774 382.532 772.749 461 703 c 1
 461 775 l 1
 519 775 l 1
 519 441 l 1
 536.202 460.352 598.2 521 717 521 c 2
 726 521 l 1
 734 520 l 1
 729 463 l 1
 702.333 463 680.667 461.667 664 459 c 1
 567.333 437 519 370 519 258 c 0
 519 138.311 588.85 58 678 58 c 0
 776.488 58 797 99.4 797 127 c 0
 797 152.158 790.551 174.493 780 189 c 1
 761 175 l 1
 728 221 l 1
 761.175 245.881 791 265.897 791 311 c 0
 791 337 779.333 350 756 350 c 0
 736.667 350 727 337 727 311 c 1
 669 311 l 1
 669 367.211 702.412 407 756 407 c 0
 811.649 407 849 369.301 849 311 c 0
 849 291.121 842.855 253.462 822 230 c 1
255 55 m 0
 296.496 55 341.473 85.1131 340 147 c 1
 340 287 217.7 322 107 322 c 2
 84 322 l 1
 65 320 l 1
 65 315 l 2
 65 177.46 137.542 55 255 55 c 0
EndSplineSet
Ligature2: "'blws' Below Base Substitutions in Oriya lookup 9 subtable" u0B23 u0B13 u0B4D
EndChar

StartChar: u0B37_u0B4D_u0B36
Encoding: 217 -1 217
Width: 489
Flags: HW
AnchorPoint: "C" 266 800 basechar 0
LayerCount: 2
Fore
SplineSet
246 777 m 0
 376.2 777 446.799 712.94 463 699 c 1
 463 780 l 1
 521 780 l 1
 521 345 l 1
 552.741 341.473 584.193 316.672 597 306 c 1
 597 335 l 1
 655 335 l 1
 652 158 l 1
 594 158 l 1
 594 207 l 1
 581.014 241.236 537.675 289 497 289 c 0
 468.1 289 436 265 436 229 c 0
 436 223 438.333 216.333 443 209 c 1
 514 155 l 1
 478 109 l 1
 403 166 l 2
 395.667 171.333 387 174 377 174 c 0
 357.667 174 345.333 167.667 340 155 c 1
 335 126 l 1
 335 87.9204 369.215 65.7551 397 54 c 1
 412.333 62 429.667 66 449 66 c 0
 513.556 66 546 10.9519 546 -59 c 0
 546 -111.65 525.8 -178 445 -178 c 0
 381.546 -178 345 -119.826 345 -51 c 0
 345 -29.6667 349 -9.33333 357 10 c 1
 343 17 l 1
 304 9 l 1
 267 5 l 1
 201.825 5 116.143 38.7626 87 144 c 1
 34 21 l 1
 -20 44 l 1
 110 338 l 1
 48.8245 374.414 10 440.363 10 540 c 0
 10 729.6 135.306 777 246 777 c 0
417 315 m 1
 424.3 322.3 441.998 335.555 461 344 c 1
 461 621 l 1
 400.039 684.864 330.8 719 244 719 c 0
 196.667 719 158.333 708.333 129 687 c 1
 417 315 l 1
217 478 m 1
 90 640 l 1
 82.6667 625.333 77.3333 610.667 74 596 c 1
 69 539 l 1
 69 515.92 67.5915 436.406 138 388 c 1
 180 441 l 1
 217 478 l 1
277 126 m 0
 277 209.2 344.905 230 381 230 c 1
 388 261 l 1
 254 434 l 1
 211.198 398.166 139 311.403 139 205 c 0
 139 123.152 191 63 269 63 c 1
 295 65 l 1
 283 84.3333 277 104.667 277 126 c 0
448 -124 m 256
 481.017 -124 492.211 -94.1307 491 -59 c 1
 491 -7.51016 475.4 7 452 7 c 0
 413.6 7 404 -26 404 -56 c 0
 404 -89.7177 414.807 -124 448 -124 c 256
EndSplineSet
Ligature2: "'blws' Below Base Substitutions in Oriya lookup 9 subtable" u0B37 u0B36 u0B4D
EndChar

StartChar: u0B13_u0B01
Encoding: 218 -1 218
Width: 634
Flags: HMW
LayerCount: 2
Fore
SplineSet
254 1025 m 0
 254 1049.67 247 1065 233 1065 c 0
 218.333 1065 211 1045.45 211 1029 c 24
 211 1012.88 212.967 995.432 233 994 c 0
 247 994 254 1003 254 1025 c 0
235 1125 m 0
 277.487 1125 314.4 1087.79 313 1029 c 0
 313 974.446 280.596 937 235 937 c 0
 201.025 937 154 965.502 154 1033 c 0
 154 1085 187.587 1125 235 1125 c 0
189.617 826.807 m 1
 203.612 821.804 218.155 819 233 819 c 0
 336.667 819 390 910 409 987 c 1
 353 1003 l 1
 332.667 941.333 309.333 877 233 877 c 0
 156.667 877 126.83 944.899 110 1001 c 1
 53 986 l 1
 63.0183 942.656 95.7327 889.655 139.609 855.151 c 1
 92.3574 782.343 0 596.355 0 408 c 0
 0 98 127 0 267 0 c 0
 374.557 0 523.5 78 524 261 c 0
 524.219 341.068 506.71 401.29 454 454 c 1
 489.874 491.111 515 544.289 515 614 c 0
 515 709.487 453.625 770 364 770 c 0
 270.677 770 224 692.67 224 614 c 1
 282 614 l 1
 282 673.4 314.8 713 364 713 c 0
 419.8 713 457 672.237 457 614 c 0
 457 498.8 346.056 436.966 323 422 c 1
 358 372 l 1
 412 414 l 1
 432.059 396.256 469 353.2 469 262 c 0
 469 132.375 374.03 59 269 59 c 0
 161 59 59 135 59 409 c 0
 59 567.14 143.904 752.295 189.617 826.807 c 1
EndSplineSet
Ligature2: "'abvs' Above Base Substitutions in Oriya lookup 6 subtable" u0B13 u0B01
EndChar

StartChar: u0B3E_u0B02
Encoding: 219 -1 219
Width: 285
Flags: W
HStem: 821 56<108.502 184.875> 1040 59<108.63 185.073>
VStem: 31 59<894.71 1021.71> 116 58<-2 774> 204 57<897.731 1022.77>
LayerCount: 2
Fore
SplineSet
147 1099 m 0
 199.657 1099 262.457 1043.07 261 960 c 1
 261 878.628 206.573 821 146 821 c 0
 82.0362 821 31 880.467 31 959 c 0
 31 1035.28 79.49 1099 147 1099 c 0
173 -2 m 1
 116 -2 l 1
 116 774 l 1
 174 774 l 1
 174 338 l 1
 173 -2 l 1
147 877 m 0
 170.559 877 204 904.502 204 958 c 0
 204 1000.08 181.2 1040 147 1040 c 0
 123.944 1040 90 1013.72 90 958 c 0
 90 917.257 111.499 877 147 877 c 0
EndSplineSet
Ligature2: "'abvs' Above Base Substitutions in Oriya lookup 6 subtable" u0B3E u0B02
EndChar

StartChar: u0021
Encoding: 221 33 221
Width: 299
Flags: HW
LayerCount: 2
Fore
SplineSet
147 776 m 0
 166.2 776 195 763.6 195 690 c 2
 195 668 l 1
 194 653 l 1
 177.866 502.035 172 432.935 172 330 c 1
 168 179 l 1
 129 179 l 1
 128 267 l 1
 128 421.4 119.26 519.096 101 653 c 1
 101 742.955 110.2 776 147 776 c 0
147 118 m 1
 165.4 118 193 93.6 193 57 c 0
 193 22.6541 174.307 -2.3041 146 -5 c 1
 120.419 -5 98 23.5862 98 56 c 0
 98 90.4617 118.859 115.32 147 118 c 1
EndSplineSet
EndChar

StartChar: u0027
Encoding: 222 39 222
Width: 228
Flags: HW
LayerCount: 2
Fore
SplineSet
121 637 m 0
 139 637 166 614.85 166 576 c 0
 166 539.397 150.235 519.839 119 517 c 1
 77.9969 517 61 577.507 61 621 c 0
 61 693.197 95.995 750.869 143 781 c 1
 158 732 l 1
 118 710.667 98 676.333 98 629 c 1
 106 634.333 113.667 637 121 637 c 0
EndSplineSet
EndChar

StartChar: u25CC
Encoding: 223 9676 223
Width: 749
Flags: HW
LayerCount: 2
Fore
SplineSet
494 615 m 1
 483.032 618.988 473.748 620.777 471 651 c 1
 471 676.928 488.648 708.665 510 710 c 0
 514.667 709.333 517.333 709 518 709 c 0
 522.667 704.333 525.667 694.667 527 680 c 1
 527 655.332 515.709 615 494 615 c 1
557 533 m 1
 557 563.142 586.387 583 606 583 c 0
 647.543 583 611.459 503 576 503 c 0
 570 503 564.333 508.333 559 519 c 1
 557 533 l 1
401 701 m 1
 401 661.714 384.541 655.635 378 654 c 1
 372 654 366.333 658 361 666 c 1
 356 701 l 1
 356 733.667 363.667 750 379 750 c 0
 387 750 392.667 745.333 396 736 c 1
 401 701 l 1
625 353 m 0
 596.95 353 591.015 367.778 590 383 c 1
 590 404.333 602.333 415 627 415 c 0
 653 415 665.333 404.667 664 384 c 0
 664 377.8 657.75 353 625 353 c 0
281 643 m 0
 281 621.149 265.101 600.986 244 630 c 128
 233.333 644.667 228 660.667 228 678 c 0
 228 687.333 231 695 237 701 c 1
 253.58 712.053 281 674.122 281 643 c 0
580 254 m 0
 596.13 254 626 234.241 626 208 c 2
 626 198 l 1
 621.333 190 614.333 186 605 186 c 256
 588.45 186 558 204 558 231 c 0
 558 251.026 574.869 254 580 254 c 0
187 517 m 2
 184.333 509 178.333 504.667 169 504 c 0
 161.667 504 151.667 509.333 139 520 c 1
 131 530 126.333 541.333 125 554 c 1
 129 568 l 1
 131.667 573.333 137.667 576.333 147 577 c 0
 157 577 166.667 572 176 562 c 1
 185.333 554.667 190.333 544 191 530 c 1
 187 517 l 2
521 59 m 1
 501.831 46.6769 472 81.5222 472 117 c 0
 472 125.667 475 133 481 139 c 1
 499.927 151.168 530 117.603 530 79 c 0
 530 68.3333 527 61.6667 521 59 c 1
128 349 m 1
 116.4 349 87 355.8 87 383 c 0
 87 402.333 99.3333 412 124 412 c 0
 148 412 159.667 400.667 159 378 c 0
 159 367.333 155 359.333 147 354 c 1
 128 349 l 1
399 53 m 1
 399 13.7144 382.541 7.63529 376 6 c 1
 370 6 364.333 10 359 18 c 1
 354 53 l 1
 354 81.2 360.961 98.6635 377 100 c 0
 385 100 390.667 95.3333 394 86 c 1
 399 53 l 1
192 227 m 1
 192 209.4 174.826 186.35 143 183 c 1
 102.324 183 125.524 259 166 259 c 0
 175.333 259 182.667 253.333 188 242 c 1
 192 227 l 1
221 88 m 0
 221 116.763 235.691 143.211 258 146 c 1
 268 145 l 1
 274 141.667 277.333 134 278 122 c 0
 278 90.768 251.843 60 241 60 c 0
 233 60 221 65.6 221 88 c 0
EndSplineSet
EndChar

StartChar: u002C
Encoding: 224 44 224
Width: 228
Flags: HW
LayerCount: 2
Fore
SplineSet
126 770 m 0
 167.51 770 187 710.55 187 667 c 0
 187 593.46 147.379 537.075 105 510 c 1
 89 556 l 1
 125.554 575.072 151 620.977 151 660 c 1
 143 654.667 135.333 652 128 652 c 0
 101.879 652 81 681.062 81 711 c 0
 81 746.4 99 770 126 770 c 0
EndSplineSet
EndChar

StartChar: u0028
Encoding: 225 40 225
Width: 274
Flags: HW
LayerCount: 2
Fore
SplineSet
101 264 m 0
 101 109.373 137.19 -65.7042 259 -189 c 1
 254 -221 l 1
 103.32 -114.387 34 81.7141 34 267 c 0
 34 464.536 103.235 649.464 254 755 c 1
 259 725 l 1
 135.2 601.2 101 394.499 101 264 c 0
EndSplineSet
EndChar

StartChar: u0029
Encoding: 226 41 226
Width: 343
Flags: HW
LayerCount: 2
Fore
SplineSet
192 252 m 0
 192 390.852 154.935 582.375 33 709 c 1
 42 743 l 1
 192.843 634.627 261 428.085 261 252 c 0
 261 57.2 191.352 -127.02 41 -235 c 1
 33 -200 l 1
 131.305 -100.419 192 63.3899 192 252 c 0
EndSplineSet
EndChar

StartChar: u002E
Encoding: 227 46 227
Width: 228
Flags: HW
LayerCount: 2
Fore
SplineSet
95 118 m 1
 122.42 118 141 88.7166 141 56 c 0
 141 23.2213 122.57 -2.40273 94 -5 c 1
 68.4188 -5 46 23.5862 46 56 c 0
 46 90.4617 66.8593 115.32 95 118 c 1
EndSplineSet
EndChar

StartChar: u002D
Encoding: 228 45 228
Width: 361
Flags: HW
LayerCount: 2
Fore
SplineSet
294 267 m 1
 68 267 l 1
 68 346 l 1
 294 346 l 1
 294 267 l 1
EndSplineSet
EndChar

StartChar: u002F
Encoding: 229 47 229
Width: 306
Flags: HW
LayerCount: 2
Fore
SplineSet
299 757 m 1
 31 -263 l 1
 -13 -263 l 1
 255 757 l 1
 299 757 l 1
EndSplineSet
EndChar

StartChar: u003A
Encoding: 230 58 230
Width: 228
Flags: HW
LayerCount: 2
Fore
SplineSet
107 367 m 1
 131.811 367 154.772 341.038 152 305 c 1
 152 270.976 133.318 247.732 106 245 c 1
 78.9723 245 60 274.213 60 306 c 0
 60 338.779 78.4301 364.403 107 367 c 1
109 123 m 1
 133.811 123 156.772 97.0382 154 61 c 1
 154 26.9762 135.318 3.73183 108 1 c 1
 80.9723 1 62 30.2132 62 62 c 0
 62 94.7787 80.4301 120.403 109 123 c 1
EndSplineSet
EndChar

StartChar: u003B
Encoding: 231 59 231
Width: 228
Flags: HW
LayerCount: 2
Fore
SplineSet
107 367 m 1
 131.811 367 154.772 341.038 152 305 c 1
 152 270.976 133.318 247.732 106 245 c 1
 78.9723 245 60 274.213 60 306 c 0
 60 338.779 78.4301 364.403 107 367 c 1
109 117 m 0
 146.913 117 167 56.2423 167 13 c 0
 167 -60.9128 127.362 -118.045 84 -145 c 1
 68 -98 l 1
 105.522 -82.4738 131 -39.396 131 7 c 1
 125 2.33333 117 -0.666667 107 -2 c 1
 89.4 -2 63 18 63 59 c 0
 63 105.4 89.5394 116.073 109 117 c 0
EndSplineSet
EndChar

StartChar: u003F
Encoding: 232 63 232
Width: 485
Flags: HW
LayerCount: 2
Fore
SplineSet
236 777 m 0
 358.4 777 392.192 677.774 389 582 c 1
 389 527.333 362 451.667 308 355 c 1
 285.27 310.736 270 271 270 215 c 1
 216 215 l 1
 216 402.311 332 451.607 332 584 c 0
 332 643.06 312.6 702 235 702 c 0
 201.4 702 151 677.006 151 600 c 1
 152 567 l 1
 163 534 l 1
 116 509 l 1
 102 545 95 580.667 95 616 c 0
 95 719.394 165.387 777 236 777 c 0
245 118 m 1
 272.353 118 292 88.7956 292 56 c 0
 292 23.2213 273.57 -2.40273 245 -5 c 1
 219.316 -5 198 27.2072 198 57 c 0
 198 89.7787 216.43 115.403 245 118 c 1
EndSplineSet
EndChar

StartChar: u0030
Encoding: 233 48 233
Width: 467
Flags: W
HStem: 0 76<168.397 289.778> 707 81<176.308 279.711>
VStem: 44 56<180.533 584.471> 356 58<178.565 569.498>
LayerCount: 2
Fore
SplineSet
228 788 m 0
 376.8 788 413.075 500.697 414 386 c 0
 414 212.377 377 0 229 0 c 0
 83.3771 0 44 192.011 44 385 c 0
 44 570.678 97.9999 788 228 788 c 0
229 76 m 256
 339.987 76 356 229.085 356 384 c 0
 356 538.482 328.91 707 228 707 c 0
 126.464 707 100 532.471 100 383 c 0
 100 214.925 125.8 76 229 76 c 256
EndSplineSet
EndChar

StartChar: u0031
Encoding: 234 49 234
Width: 467
Flags: W
HStem: 0 78<105 204 265 363>
VStem: 204 61<79 691>
LayerCount: 2
Fore
SplineSet
364 0 m 1
 105 0 l 1
 105 78 l 1
 204 78 l 1
 204 691 l 1
 143 640 l 1
 111 703 l 1
 213 791 l 1
 246 791 l 1
 265 756 l 1
 265 79 l 1
 363 79 l 1
 364 0 l 1
EndSplineSet
EndChar

StartChar: u0032
Encoding: 235 50 235
Width: 467
Flags: HW
LayerCount: 2
Fore
SplineSet
206 787 m 0
 275.6 787 380 751.05 380 542 c 0
 380 421.395 217.909 179.136 137 78 c 1
 401 78 l 1
 399 0 l 1
 56 0 l 1
 37 67 l 1
 151.721 191.745 317 432.826 317 543 c 0
 317 635.32 294.2 708 203 708 c 0
 159.667 708 125.667 686.667 101 644 c 1
 64 551 l 1
 16 587 l 1
 66 708 l 1
 98.6667 760.667 145.333 787 206 787 c 0
EndSplineSet
EndChar

StartChar: u0033
Encoding: 236 51 236
Width: 467
Flags: HW
LayerCount: 2
Fore
SplineSet
272 410 m 1
 371.678 360.905 375.915 254.881 375 200 c 0
 375 71.627 285.613 -1 198 -1 c 1
 180 0 l 1
 112.303 5.88668 61.0471 50.5379 18 98 c 1
 54 156 l 1
 85.7219 119.322 124.004 78 191 78 c 0
 244.899 78 312 116.42 312 203 c 0
 312 326.2 237.875 357 166 357 c 1
 137 393 l 1
 138 411 l 1
 159 447 l 1
 208.333 461 240.667 473.333 256 484 c 0
 284.667 505.333 299 540.667 299 590 c 0
 299.667 597.333 300 602.667 300 606 c 0
 300 622.667 295 640.333 285 659 c 0
 272.333 683 248 697.667 212 703 c 1
 150.035 708.764 100.67 646.028 96 611 c 1
 38 622 l 1
 49.6359 696.179 126.943 783 206 783 c 0
 330.8 783 362 681.9 362 582 c 0
 362 478.8 309.694 431.915 272 410 c 1
EndSplineSet
EndChar

StartChar: u0034
Encoding: 237 52 237
Width: 467
Flags: HW
LayerCount: 2
Fore
SplineSet
427 203 m 1
 335 203 l 1
 335 0 l 1
 275 0 l 1
 275 203 l 1
 38 203 l 1
 15 239 l 1
 15 304 l 1
 239 772 l 1
 264 788 l 1
 305 788 l 1
 335 752 l 1
 335 281 l 1
 427 281 l 1
 427 203 l 1
275 281 m 1
 275 703 l 1
 72 281 l 1
 275 281 l 1
EndSplineSet
EndChar

StartChar: u0035
Encoding: 238 53 238
Width: 467
Flags: HW
LayerCount: 2
Fore
SplineSet
139 566 m 1
 217.281 555.041 383 506.2 383 267 c 0
 383 187 365.167 122.5 329.5 73.5 c 128
 293.833 24.5 250 0 198 0 c 0
 111.705 0 86.6588 8.97905 24 73 c 1
 63 131 l 1
 98.733 92.7147 135.31 78 198 78 c 0
 272.4 78 322 156.009 322 266 c 0
 322 444.4 194.196 489 105 489 c 0
 83 489 72 504.667 72 536 c 0
 72 546.667 72.6667 554.333 74 559 c 2
 146 766 l 1
 171 787 l 1
 354 787 l 1
 354 708 l 1
 192 708 l 1
 139 566 l 1
EndSplineSet
EndChar

StartChar: u0036
Encoding: 239 54 239
Width: 467
Flags: HW
LayerCount: 2
Fore
SplineSet
253 463 m 0
 343.808 463 423.397 357.54 422 222 c 1
 422 97.516 353.67 1 240 1 c 0
 162.4 1 46 59.3 46 341 c 0
 46 475.667 69.3333 582 116 660 c 0
 166 745.333 240 788 338 788 c 1
 338 709 l 1
 156.4 709 111 524.265 111 385 c 1
 139 437 186.333 463 253 463 c 0
243 79 m 0
 312 79 360.633 147.378 358 229 c 1
 358 313.641 311.6 382 242 382 c 256
 173.595 382 126 316.541 126 229 c 0
 126 147.775 172.8 79 243 79 c 0
EndSplineSet
EndChar

StartChar: u0037
Encoding: 240 55 240
Width: 467
Flags: HW
LayerCount: 2
Fore
SplineSet
411 723 m 1
 214 0 l 1
 160 23 l 1
 344 710 l 1
 104 710 l 1
 71 632 l 1
 20 665 l 1
 62 771 l 1
 85 789 l 1
 384 789 l 1
 412 761 l 1
 411 723 l 1
EndSplineSet
EndChar

StartChar: u0038
Encoding: 241 56 241
Width: 467
Flags: HW
LayerCount: 2
Fore
SplineSet
315 427 m 1
 363.686 388.051 401 317.986 401 235 c 0
 401 101.912 312.734 -3.36631e-18 217 0 c 0
 117.632 0 35 98.535 35 234 c 0
 35 350.4 96.5515 410.401 118 428 c 1
 86.6474 459.353 61 519.288 61 585 c 0
 61 694.987 123.4 787 217 787 c 0
 292.73 787 376 705.284 376 584 c 0
 376 572.262 378.377 496.933 315 427 c 1
217 462 m 0
 267.757 462 313 511.409 313 585 c 0
 313 653.7 274.219 707 217 707 c 0
 166.243 707 121 657.591 121 584 c 0
 121 516.8 159.4 462 217 462 c 0
216 77 m 0
 284.342 77 337.672 148.026 339 233 c 1
 339 318.795 288.62 384 216 384 c 0
 159.771 384 95 333.712 95 233 c 0
 95 144.646 143.4 77 216 77 c 0
EndSplineSet
EndChar

StartChar: u0039
Encoding: 242 57 242
Width: 467
Flags: HW
LayerCount: 2
Fore
SplineSet
215 789 m 0
 293 789 410 731.969 410 449 c 0
 410 313.667 386.667 207 340 129 c 0
 290 43.6667 215.667 1 117 1 c 1
 117 79 l 1
 192.333 79 250.667 111 292 175 c 0
 328 232.333 346 308.333 346 403 c 1
 315.333 350.333 268 324 204 324 c 0
 98.1246 324 35 443.712 35 567 c 0
 35 692.664 100.317 789 215 789 c 0
215 408 m 0
 279.921 408 334.372 476.297 333 560 c 1
 333 639.314 284.596 709 215 709 c 256
 144.8 709 98 642.499 98 560 c 0
 98 471.725 144.8 408 215 408 c 0
EndSplineSet
EndChar

StartChar: u0952
Encoding: 243 2386 243
Width: 14
Flags: HW
LayerCount: 2
Fore
SplineSet
-148 -417 m 1
 -401 -417 l 1
 -401 -359 l 1
 -148 -359 l 1
 -148 -417 l 1
EndSplineSet
EndChar

StartChar: u007E
Encoding: 244 126 244
Width: 165
Flags: HW
LayerCount: 2
Fore
SplineSet
53 480 m 1
 68.6299 476.874 94.2859 454 109 454 c 0
 119.667 454 126.667 463.333 130 482 c 1
 162 481 l 1
 162 433 146.333 409 115 409 c 0
 95.5 409 66.25 432 50 432 c 0
 40 432 35 424.333 35 409 c 1
 5 409 l 1
 5 446.686 18.8922 480 53 480 c 1
EndSplineSet
EndChar

StartChar: u0B41
Encoding: 245 2881 245
Width: 14
Flags: HW
LayerCount: 2
Fore
SplineSet
-144 -298 m 1
 -108.28 -352.196 -68.4 -389 45 -389 c 1
 46 -438 l 1
 -66.7824 -438 -118.714 -410.576 -162 -347 c 1
 -205.43 -413.179 -245.2 -421 -266 -421 c 0
 -337.35 -421 -376 -364.858 -376 -314 c 0
 -376 -253.19 -335.888 -211 -272 -211 c 0
 -250.161 -211 -221.218 -204.399 -173 -257 c 1
 -164 -199 l 1
 -160 -135 l 1
 -116 -135 l 1
 -116 -187 l 1
 -123.206 -232.039 -122.336 -259.486 -144 -298 c 1
-333 -310 m 0
 -333 -337.65 -312.375 -371 -268 -371 c 0
 -237.6 -371 -208.617 -341.794 -192 -305 c 1
 -209.513 -279.703 -229.393 -252 -273 -252 c 0
 -310.536 -252 -333 -274.96 -333 -310 c 0
EndSplineSet
EndChar

StartChar: u0B42
Encoding: 246 2882 246
Width: 14
Flags: HW
LayerCount: 2
Fore
SplineSet
-220 -375 m 0
 -170.457 -375 -119.607 -324.187 -115 -300 c 1
 -91.6667 -340 -72.3333 -365.333 -57 -376 c 0
 -28.3333 -394.667 6.33333 -404 47 -404 c 1
 46 -449 l 1
 -54.2 -449 -93.1629 -404.317 -121 -373 c 1
 -132.235 -385.099 -177.273 -420 -227 -420 c 0
 -280.62 -420 -338 -373.867 -338 -304 c 0
 -338 -252.731 -305.319 -210.022 -259 -195 c 1
 -205 -186 l 1
 -180 -178 l 1
 -172.667 -173.333 -165 -160 -157 -138 c 1
 -113 -138 l 1
 -122.343 -200.735 -162.069 -222.621 -193 -228 c 2
 -237 -235 l 1
 -289.984 -249.129 -290 -289.003 -290 -299 c 0
 -290 -335.525 -262 -375 -220 -375 c 0
EndSplineSet
EndChar

StartChar: u0951
Encoding: 247 2385 247
Width: 14
Flags: MW
LayerCount: 2
Fore
SplineSet
-246 1118 m 1
 -304 1118 l 1
 -304 1372 l 1
 -246 1372 l 1
 -246 1118 l 1
EndSplineSet
EndChar

StartChar: u0953
Encoding: 248 2387 248
Width: 14
Flags: HW
LayerCount: 2
Fore
SplineSet
-194 1118 m 1
 -252 1118 l 1
 -252 1372 l 1
 -194 1372 l 1
 -194 1118 l 1
-310 1118 m 1
 -368 1118 l 1
 -368 1372 l 1
 -310 1372 l 1
 -310 1118 l 1
EndSplineSet
EndChar

StartChar: u0B38_u0B4D_u0B0F
Encoding: 249 -1 249
Width: 645
Flags: HW
AnchorPoint: "C" 266 800 basechar 0
LayerCount: 2
Fore
SplineSet
237 776 m 0
 367.2 776 437.799 711.94 454 698 c 1
 454 779 l 1
 512 779 l 1
 512 250 l 1
 536 258 562 262 590 262 c 1
 593 -331 l 1
 183 18 l 1
 220 61 l 1
 533 -205 l 1
 533 201 l 1
 445.865 183.859 384 80.3292 384 9 c 1
 326 9 l 1
 326 25.6667 328.667 42.3333 334 59 c 1
 28 241 l 1
 100 302 l 1
 30.8293 357.337 2 446.736 2 534 c 0
 2 695.173 113.961 776 237 776 c 0
353 115 m 1
 385.423 177.685 432.045 208.665 453 222 c 1
 453 619 l 1
 392.039 682.864 322.8 717 236 717 c 0
 164.702 717 59 679.77 59 535 c 0
 59 451.954 87.0791 374.097 146 343 c 1
 304 477 l 1
 343 433 l 1
 125 250 l 1
 353 115 l 1
EndSplineSet
Ligature2: "'blws' Below Base Substitutions in Oriya lookup 9 subtable" u0B38 u0B0F u0B4D
EndChar

StartChar: u0B1A_u0B4D_u0B38
Encoding: 250 -1 250
Width: 798
Flags: HW
AnchorPoint: "C" 266 800 basechar 0
LayerCount: 2
Fore
SplineSet
432 490 m 0
 505.657 490 583 395.108 583 251 c 1
 619.598 251 628.926 250.845 656 241 c 1
 678 235.667 697.333 226 714 212 c 1
 714 244 l 1
 772 244 l 1
 774 -315 l 1
 430 -107 l 1
 480 -65 l 1
 460 -49.6667 445 -28.3333 435 -1 c 1
 387 -1 343.963 33.1741 315 99 c 1
 284.333 32.3333 245.333 -1 198 -1 c 0
 126.378 -1 49 98.8695 49 244 c 0
 49 290.901 54.2926 325.862 68 362 c 1
 44.5478 377.99 6 426.4 6 523 c 0
 6 695.619 173.619 770 366 770 c 0
 559.124 770 726 698.788 726 521 c 0
 726 439.053 716.608 427.038 712 404 c 1
 708.667 394 704 382 698 368 c 1
 644 386 l 1
 655 415 l 2
 665 443.667 670 479 670 521 c 0
 670 673.8 504.023 712 369 712 c 0
 230.355 712 67 674.4 67 524 c 0
 67 493.398 71.1805 449.508 97 420 c 1
 137.419 481.591 179.4 489 200 489 c 0
 246 489 288.599 450.002 315 390 c 1
 345.667 456.667 384.667 490 432 490 c 0
421 87 m 1
 421 181.2 474.625 224.432 522 244 c 1
 522 345.78 486.334 432 431 432 c 0
 378.8 432 344 350.048 344 247 c 0
 344 172.1 367.397 74.134 422 62 c 1
 421 87 l 1
585 195 m 0
 532.767 195 481 160.697 481 87 c 0
 481 39.9342 493.121 4.33655 525 -24 c 1
 622 58 l 1
 659 14 l 1
 531 -95 l 1
 715 -211 l 1
 715 134 l 1
 701.157 151.619 663 195 585 195 c 0
198 64 m 0
 249.933 64 287.309 147.894 286 250 c 0
 286 325.902 262.569 435 198 435 c 0
 131.372 435 107 328.188 107 250 c 0
 107 170.338 130.064 64 198 64 c 0
EndSplineSet
Ligature2: "'blws' Below Base Substitutions in Oriya lookup 9 subtable" u0B1A u0B38 u0B4D
EndChar

StartChar: u0B33_u0B4D_u0B38
Encoding: 251 -1 251
Width: 572
Flags: HW
AnchorPoint: "C" 266 800 basechar 0
LayerCount: 2
Fore
SplineSet
528 290 m 0
 580.8 290 613.958 281.654 660 250 c 1
 660 282 l 1
 717 282 l 1
 714 -275 l 1
 371 -67 l 1
 420 -27 l 1
 377.484 13.5834 361 63.6 361 124 c 2
 361 269 l 1
 359.596 280.229 352.654 283.543 333 286 c 0
 325 286 317.333 283.333 310 278 c 1
 305 269 l 1
 306 -2 l 1
 248 -2 l 1
 248 269 l 2
 247.8 270 246.278 286 220 286 c 0
 214 286 208 284.333 202 281 c 1
 193 272 l 1
 193 -2 l 1
 136 -2 l 1
 136 273 l 1
 63.5395 307.981 11 390.825 11 497 c 0
 11 572.333 38.5 637 93.5 691 c 128
 148.5 745 210.333 772 279 772 c 0
 400.09 772 550 696.955 550 509 c 0
 550 447.858 537.012 408.159 523 367 c 1
 469 385 l 1
 484.333 434.333 492 475.667 492 509 c 0
 492 577.667 467.333 630.667 418 668 c 1
 379.333 698.667 333.667 714 281 714 c 256
 228.333 714 180.333 692.667 137 650 c 128
 93.6667 607.333 72 556.667 72 498 c 0
 72 414.612 107.674 352.883 164 326 c 1
 169.333 331.333 177 335.667 187 339 c 1
 223 344 l 1
 245 344 263.667 338 279 326 c 1
 293.667 338 313 344 337 344 c 0
 411.646 344 419.357 285.803 422 271 c 1
 422 255 l 1
 450.667 278.333 486 290 528 290 c 0
529 232 m 0
 476.767 232 425 197.697 425 124 c 0
 425 70.0979 440.675 37.178 469 12 c 1
 567 94 l 1
 606 50 l 1
 476 -60 l 1
 660 -174 l 1
 660 171 l 1
 627.394 207.519 589.239 232 529 232 c 0
EndSplineSet
Ligature2: "'blws' Below Base Substitutions in Oriya lookup 9 subtable" u0B33 u0B38 u0B4D
EndChar

StartChar: u0B38_u0B4D_u0B2B
Encoding: 253 -1 253
Width: 327
Flags: HW
AnchorPoint: "C" 266 800 basechar 0
LayerCount: 2
Fore
SplineSet
796 246 m 0
 864.8 246 879.911 190.701 882 151 c 1
 882 107.425 850.8 67 804 67 c 0
 790 67 774.333 73 757 85 c 1
 757 -253 l 1
 699 -253 l 1
 699 -220 l 1
 668.068 -240.173 621 -262 569 -262 c 0
 490.691 -262 426 -209.175 426 -121 c 2
 426 -104 l 130
 426 -97.8641 432.931 -64.3674 444 -41 c 1
 414 -16 l 2
 406.667 -8.66667 399.333 2.33333 392 17 c 1
 34 239 l 1
 106 300 l 1
 36.8293 355.337 8 444.736 8 532 c 0
 8 693.173 119.961 774 243 774 c 0
 373.2 774 443.799 709.94 460 696 c 1
 460 777 l 1
 518 777 l 1
 518 258 l 1
 550 259 l 1
 608.8 259 649.168 248.337 697 215 c 1
 697 251 l 1
 755 251 l 1
 755 232 l 1
 767 241.333 780.667 246 796 246 c 0
822 152 m 0
 822 176 813.333 188 796 188 c 0
 788.667 188 782 185 776 179 c 1
 761 156 l 1
 783 134 l 1
 787.667 131.333 794 129.333 802 128 c 1
 816 128 822.667 136 822 152 c 0
371 102 m 1
 371 149.788 381.907 214.817 457 247 c 1
 457 622 l 1
 396.039 685.864 326.8 720 240 720 c 0
 168.702 720 63 682.77 63 538 c 0
 63 454.954 91.0791 377.097 150 346 c 1
 308 480 l 1
 347 436 l 1
 129 253 l 1
 371 102 l 1
565 -199 m 0
 634.622 -199 674.913 -158.179 696 -140 c 1
 696 142 l 1
 659.784 179.222 618.976 205 548 205 c 0
 494.032 205 430 184 430 100 c 0
 430 25.2559 452.562 19.3924 469 13 c 1
 484 31 l 1
 526 -9 l 1
 503 -41 l 1
 487.667 -67 480 -92.3333 480 -117 c 0
 480 -166.2 518.1 -199 565 -199 c 0
EndSplineSet
Ligature2: "'blws' Below Base Substitutions in Oriya lookup 9 subtable" u0B38 u0B2B u0B4D
EndChar

StartChar: u0B1E_u0B4D_u0B25
Encoding: 254 -1 254
Width: 588
Flags: HW
AnchorPoint: "C" 266 800 basechar 0
LayerCount: 2
Fore
SplineSet
395 774 m 0
 483.51 774 517.581 712.057 519 617 c 0
 519 586.333 507.333 552.333 484 515 c 1
 484 0 l 1
 427 0 l 1
 427 68 l 1
 327 25 l 1
 282.333 8.33333 249 8.67362e-19 227 0 c 0
 115.995 0 4 71.6678 4 199 c 0
 4 250.333 20.3333 295 53 333 c 0
 63 343.667 79.6667 357.333 103 374 c 1
 91 403 l 1
 89 435 l 1
 90 454 l 1
 39.681 495.513 6 559.905 6 610 c 0
 6 658 8.66667 689.667 14 705 c 1
 44 765 l 1
 98 742 l 1
 72 692 l 1
 66.6667 678 64 650.667 64 610 c 0
 64 576.667 81 542.333 115 507 c 1
 130.333 523.667 149.667 532 173 532 c 0
 220.355 532 259 495.811 259 441 c 1
 275 441 l 2
 390.131 441 461 551.387 461 614 c 0
 461 672.43 446.588 714 395 714 c 0
 371 714 353.667 703 343 681 c 1
 343 609 l 1
 285 609 l 1
 285 679 l 1
 270 697 l 1
 255.333 709 238 715 218 715 c 0
 203.91 715 169.09 700.359 166 671 c 1
 166 649.932 172.1 637.9 177 633 c 1
 138 589 l 1
 123 610 l 1
 112.333 629.333 107 650 107 672 c 0
 107 725.742 178.627 774 218 774 c 256
 250.774 774 289.867 761.775 311 738 c 1
 329.293 756.293 359.731 774 395 774 c 0
199 437 m 0
 199 463.667 189.333 477 170 477 c 0
 160.667 477 153.667 473.333 149 466 c 1
 144 437 l 1
 144 409 152.667 395 170 395 c 0
 189.333 395 199 409 199 437 c 0
227 61 m 0
 266.6 61 342.314 90.2252 425 134 c 1
 425 443 l 1
 381.569 406.808 334.4 385 274 385 c 1
 246 386 l 1
 232 354.667 207 339 171 339 c 0
 156.333 339 142.333 343 129 351 c 1
 84.0038 314.039 63 257.961 63 202 c 0
 63 104.908 157.571 61 227 61 c 0
EndSplineSet
Ligature2: "'blws' Below Base Substitutions in Oriya lookup 9 subtable" u0B1E u0B25.sub
EndChar

StartChar: u0B26_u0B4D_u0B2D
Encoding: 255 -1 255
Width: 742
Flags: HW
AnchorPoint: "C" 266 800 basechar 0
LayerCount: 2
Fore
SplineSet
628 414 m 0
 628 247.696 594.808 183.575 572 141 c 1
 656 -16 l 1
 605 -44 l 1
 506 133 l 1
 534 191 l 1
 558 247.667 570 320.333 570 409 c 0
 570 595.24 466.659 715 292 715 c 0
 230.667 715 177.167 692.167 131.5 646.5 c 128
 85.8333 600.833 63 547 63 485 c 0
 63 455.667 67.3333 429 76 405 c 1
 86 383 98 364.333 112 349 c 1
 167 438 l 1
 214 402 l 1
 138.333 302.687 120 227.6 120 184 c 0
 120 86.4 213.038 62 256 62 c 0
 317.673 62 385 106.315 385 184 c 0
 385 198.667 382.333 213 377 227 c 1
 291.922 227 254 322.787 254 374 c 0
 254 388.667 256.333 402 261 414 c 1
 248.333 418.667 236.667 428.333 226 443 c 1
 204 480 l 1
 194 503.333 189 525 189 545 c 0
 189 585.038 201.344 607.229 228 625 c 1
 246.667 639 267 646 289 646 c 0
 301.667 646 310.333 645.333 315 644 c 1
 319.667 644 327 641.333 337 636 c 1
 311 585 l 1
 289 590 l 2
 287.309 590 250 588.006 250 544 c 0
 250 511.607 271.046 472.514 297 468 c 1
 308 468 l 1
 320 471.333 331.333 476 342 482 c 1
 351 489 l 1
 384 443 l 1
 366 432 l 1
 329 413 l 1
 318 397 l 1
 315.333 389.667 314 381 314 371 c 0
 314 359 317.5 344.167 324.5 326.5 c 128
 331.5 308.833 348 297 374 291 c 1
 411 289 l 1
 442.244 234.734 443 212.618 443 187 c 0
 443 78.4 357.477 6 255 6 c 0
 194.203 6 62 42.2 62 187 c 0
 62 221 69.6667 258 85 298 c 1
 39.0225 332.831 3 402.524 3 490 c 0
 3 567.333 31.1667 634.833 87.5 692.5 c 128
 143.833 750.167 211.333 779 290 779 c 0
 388 779 467.333 749.333 528 690 c 0
 594.667 626 628 534 628 414 c 0
EndSplineSet
Ligature2: "'blws' Below Base Substitutions in Oriya lookup 9 subtable" u0B26 u0B2D u0B4D
EndChar

StartChar: u0B37_u0B4D_u0B20
Encoding: 256 -1 256
Width: 718
Flags: HW
AnchorPoint: "C" 266 800 basechar 0
LayerCount: 2
Fore
SplineSet
514 310 m 1
 581.177 293.878 616.676 222.719 618 138 c 1
 618 61.925 589.6 -30 476 -30 c 0
 432.667 -30 397.667 -12 371 24 c 1
 337.667 7.33333 302 -1 264 -1 c 0
 156.137 -1 76 82.2475 76 199 c 0
 76 259.879 84.7989 285.598 107 330 c 1
 65.3003 352.935 5 411.2 5 533 c 0
 5 722.6 127.625 770 239 770 c 0
 369.2 770 439.799 705.94 456 692 c 1
 456 773 l 1
 514 773 l 1
 514 310 l 1
455 614 m 1
 394.039 677.864 324.8 712 238 712 c 0
 192.667 712 155.667 702.667 127 684 c 1
 424 301 l 1
 455 312 l 1
 455 614 l 1
477 22 m 0
 544.2 22 562.005 85.7803 561 135 c 1
 561 203.289 541.375 254 483 254 c 256
 424.491 254 395 204.816 395 142 c 0
 395 85.8961 411.4 22 477 22 c 0
133 197 m 0
 133 115.932 184.6 55 262 55 c 1
 302 59 l 1
 316.667 61.6667 331 66 345 72 c 1
 339.667 93.3333 337 117 337 143 c 0
 337 194.333 350.667 235.333 378 266 c 1
 240 445 l 1
 88 639 l 1
 71.3333 614.333 63 578.667 63 532 c 0
 63 440.2 107.701 396.915 135 379 c 1
 161 415 l 1
 204 376 l 1
 169 323 l 1
 145 277.667 133 235.667 133 197 c 0
EndSplineSet
Ligature2: "'blws' Below Base Substitutions in Oriya lookup 9 subtable" u0B37 u0B20 u0B4D
EndChar

StartChar: u0B30.sub
Encoding: 257 -1 257
Width: 14
Flags: W
HStem: -227 44<-473 -181.837> -21 20G<-157 -112.765> -21 20G<-157 -112.765>
VStem: -157 45<-158.666 -1>
LayerCount: 2
Fore
SplineSet
2 0 m 1x90
 0 2 l 1
 2 0 l 1x90
2 0 m 1
 0 2 l 1
 2 0 l 1
-258 -183 m 2
 -185.419 -183 -157 -159.862 -157 -86 c 2
 -157 -1 l 1
 -113 -1 l 1xd0
 -112 -86 l 1
 -112 -183.121 -139.954 -227 -258 -227 c 2
 -473 -227 l 1
 -473 -183 l 1
 -258 -183 l 2
EndSplineSet
Ligature2: "'blwf' Below Base Forms in Oriya lookup 3 subtable" u0B30 u0B4D
EndChar

StartChar: u0B33.sub
Encoding: 258 -1 258
Width: 14
Flags: W
HStem: -79 44<-225.195 -154.252 -106.428 -34.9533>
VStem: -272 44<-322 -82.1504> -152 44<-322 -81.8477> -32 44<-323 -83.8516>
CounterMasks: 1 70
LayerCount: 2
Fore
SplineSet
-71 -35 m 0
 -29.8 -35 11 -51 11 -115 c 2
 12 -323 l 1
 -32 -323 l 1
 -32 -116 l 2
 -32 -92 -45 -80 -71 -80 c 0
 -93 -80 -105.333 -88.6667 -108 -106 c 1
 -108 -322 l 1
 -152 -322 l 1
 -152 -115 l 2
 -152 -91 -165 -79 -191 -79 c 0
 -215.667 -79 -228 -91 -228 -115 c 2
 -228 -322 l 1
 -272 -322 l 1
 -272 -115 l 2
 -272 -75.0242 -255.6 -35 -190 -35 c 0
 -165.333 -35 -145.333 -41.3333 -130 -54 c 1
 -115.333 -41.3333 -95.6667 -35 -71 -35 c 0
EndSplineSet
Ligature2: "'blwf' Below Base Forms in Oriya lookup 3 subtable" u0B33 u0B4D
EndChar

StartChar: u0B1F.sub
Encoding: 259 -1 259
Width: 14
Flags: W
HStem: -461 50<-311.03 -247.609> -298 53<-310.69 -245.879> -77 53<-317.377 -188.569>
VStem: -408 53<-245.51 -114.369> -367 49<-407.348 -321> -239 54<-404.315 -302.324> -163 51<-237 -101.187 -52 -33>
LayerCount: 2
Fore
SplineSet
-257 -24 m 0xf6
 -213.676 -24 -190.605 -34.8835 -166 -52 c 1
 -166 -33 l 1
 -115 -33 l 1
 -112 -237 l 1
 -163 -237 l 1
 -163 -120 l 1
 -191.667 -91.3333 -222.333 -77 -255 -77 c 0
 -310.464 -77 -355 -118.745 -355 -179 c 0xf6
 -355 -187.737 -354.76 -238.12 -319 -256 c 1
 -307 -248.667 -291.667 -245 -273 -245 c 0
 -217.181 -245 -185 -288.974 -185 -356 c 0
 -185 -418.186 -219.536 -461 -278 -461 c 0
 -336.429 -461 -367 -411.858 -367 -349 c 1xee
 -363 -321 l 1
 -354 -293 l 1
 -390 -268.333 -408 -229.667 -408 -177 c 0
 -408 -124.111 -389.83 -94.8637 -364 -68 c 0
 -336 -38.6667 -300.333 -24 -257 -24 c 0xf6
-281 -411 m 256
 -255.8 -411 -242.037 -390.927 -239 -356 c 1
 -239 -330.589 -246.4 -298 -276 -298 c 256
 -309.6 -298 -318 -331.6 -318 -354 c 0xee
 -318 -383.754 -308.785 -411 -281 -411 c 256
EndSplineSet
Ligature2: "'blwf' Below Base Forms in Oriya lookup 3 subtable" u0B1F u0B4D
EndChar

StartChar: u0B24.sub
Encoding: 260 -1 260
Width: 14
Flags: W
HStem: -300 52<-447.209 -236.309> -83 52<-205.689 -135.086>
VStem: -269 53<-209.837 -91.411> -126 49<-207.073 -88.2707>
LayerCount: 2
Fore
SplineSet
-169 -31 m 0
 -120.506 -31 -73.9326 -68.579 -77 -156 c 1
 -77 -204 -91.6667 -237 -121 -255 c 1
 -144.269 -278.269 -225.114 -300 -332 -300 c 0
 -486.2 -300 -560.902 -223.013 -589 -193 c 1
 -550 -157 l 1
 -498.631 -211.871 -427.427 -248 -332 -248 c 1
 -268 -247 l 1
 -236 -243 l 1
 -258 -221 -269 -189 -269 -147 c 0
 -269 -77.5057 -233.752 -31 -169 -31 c 0
-173 -215 m 256
 -135.4 -215 -124.92 -181.167 -126 -152 c 1
 -126 -101 -142.8 -83 -168 -83 c 256
 -201.409 -83 -216 -109.708 -216 -146 c 0
 -216 -199.923 -198.8 -215 -173 -215 c 256
EndSplineSet
Ligature2: "'blwf' Below Base Forms in Oriya lookup 3 subtable" u0B24 u0B4D
EndChar

StartChar: u0B5F.sub
Encoding: 261 -1 261
Width: 456
Flags: W
HStem: 0 21G<292 350.026> 0 21G<292 350.026> 314 58<114.789 244>
VStem: 6 58<430.978 695.835> 293 58<0 338 393.047 777>
LayerCount: 2
Fore
SplineSet
172 372 m 0xb8
 232.542 372 261.986 379.51 293 412 c 1
 293 777 l 1
 351 777 l 1
 350 0 l 1
 292 0 l 1
 292 338 l 1
 281.333 330.667 265.333 324.333 244 319 c 1
 169 314 l 1
 38.6 314 6 468.711 6 538 c 0
 6 645.079 19.1234 694.462 55 776 c 1
 109 753 l 1
 68.4001 664.55 64 631.745 64 539 c 0
 64 470.85 85.6 372 172 372 c 0xb8
EndSplineSet
Ligature2: "'pstf' Post Base Forms in Oriya lookup 4 subtable" u0B5F u0B4D
EndChar

StartChar: u0B3E_u0B01
Encoding: 262 -1 262
Width: 285
Flags: W
HStem: 810 59<96.3485 208.708> 964 106<108.69 178.62>
VStem: 104 83<971.508 1066.75> 116 58<2 778> 277 55<948.393 977.418>
LayerCount: 2
Fore
SplineSet
183 1041 m 1xe8
 187 1018 l 1
 187 996 178.667 979.667 162 969 c 1
 144 964 l 1
 125.333 964 112 974.667 104 996 c 1
 100 1019 l 1
 100 1042.33 108.667 1059.33 126 1070 c 1
 144 1074 l 1
 161.333 1074 174.333 1063 183 1041 c 1xe8
152 869 m 0
 202 869 249.785 918.404 277 994 c 1
 332 975 l 1
 310.26 904.947 234.967 810 153 810 c 0
 70.5606 810 -1.3196 897.87 -30 980 c 1
 24 998 l 1
 42.9456 938.637 93.6175 869 152 869 c 0
174 2 m 1xd8
 116 2 l 1
 116 778 l 1
 174 778 l 1
 174 2 l 1xd8
EndSplineSet
Ligature2: "'abvs' Above Base Substitutions in Oriya lookup 6 subtable" u0B3E u0B01
EndChar

StartChar: u0B2C.sub
Encoding: 263 -1 263
Width: 14
Flags: W
HStem: -277 44<-256.349 -158.97> -47 46<-257.305 -218>
VStem: -325 45<-210.077 -70.6062> -147 45<-323 -266 -205 -36>
LayerCount: 2
Fore
SplineSet
-218 -47 m 1
 -246.239 -47 -280 -79.9859 -280 -140 c 0
 -280 -202 -251.667 -233 -195 -233 c 0
 -180.333 -233 -170.333 -230.667 -165 -226 c 1
 -147 -205 l 1
 -147 -36 l 1
 -101 -36 l 1
 -102 -323 l 1
 -148 -323 l 1
 -148 -266 l 1
 -160 -273.333 -176 -277 -196 -277 c 0
 -281.689 -277 -325 -227.177 -325 -140 c 0
 -325 -65.1684 -273.18 -1 -218 -1 c 1
 -218 -47 l 1
EndSplineSet
Ligature2: "'blwf' Below Base Forms in Oriya lookup 3 subtable" u0B2C u0B4D
EndChar

StartChar: u0B2E.sub
Encoding: 264 -1 264
Width: 14
Flags: W
HStem: -321 45<-191.743 -104.207> -80 44<-89 69>
VStem: -249 44<-263.991 -144.175> -94 48<-265.765 -149.395> 69 44<-323 -80>
LayerCount: 2
Fore
SplineSet
-249 -206 m 0
 -249 -158 -231.555 -125.154 -187 -86 c 1
 -224 -63 l 1
 -263 -42 l 1
 -243 -3 l 1
 -235.667 -6.33333 -228.167 -10.3333 -220.5 -15 c 2
 -153 -59 l 1
 -123.667 -43.6667 -94.3333 -36 -65 -36 c 2
 110 -36 l 1
 113 -323 l 1
 69 -323 l 1
 69 -80 l 1
 -61 -80 l 1
 -89 -82 l 1
 -111 -89 l 1
 -67.6667 -125 -46 -164 -46 -206 c 0
 -46 -275.191 -81.8617 -321 -144 -321 c 0
 -190.142 -321 -249 -288.578 -249 -206 c 0
-205 -206 m 0
 -205 -247.277 -186.324 -276 -147 -276 c 0
 -111 -276 -93.3333 -253.333 -94 -208 c 0
 -94 -175.333 -113.333 -143.667 -152 -113 c 1
 -188.695 -141.718 -205 -168.8 -205 -206 c 0
EndSplineSet
Ligature2: "'blwf' Below Base Forms in Oriya lookup 3 subtable" u0B2E u0B4D
EndChar

StartChar: u0B32.sub
Encoding: 265 -1 265
Width: 14
Flags: HW
LayerCount: 2
Fore
SplineSet
-66 -36 m 256
 -24.8 -36 16 -52 16 -116 c 2
 16 -278 l 1
 93 -278 l 1
 93 -323 l 1
 -28 -323 l 1
 -28 -116 l 2
 -28 -92 -41 -80 -67 -80 c 0
 -89.2 -80 -104 -87.2 -104 -116 c 2
 -104 -323 l 1
 -148 -323 l 1
 -148 -116 l 2
 -148 -92 -161 -80 -187 -80 c 0
 -209.2 -80 -224 -87.2 -224 -116 c 2
 -224 -323 l 1
 -268 -323 l 1
 -268 -116 l 2
 -268 -76.0242 -251.6 -36 -186 -36 c 0
 -160 -36 -140 -43 -126 -57 c 1
 -112.667 -43 -92.6667 -36 -66 -36 c 256
EndSplineSet
Ligature2: "'blwf' Below Base Forms in Oriya lookup 3 subtable" u0B32 u0B4D
EndChar

StartChar: u0B28.sub
Encoding: 266 -1 266
Width: 14
Flags: W
HStem: -80 45<-239.071 -133>
VStem: -324 44<-323 -134.678> -133 44<-323 -80>
LayerCount: 2
Fore
SplineSet
-324 -323 m 1
 -324 -114.3 -274.4 -35 -200 -35 c 2
 -87 -35 l 1
 -89 -323 l 1
 -133 -323 l 1
 -133 -80 l 1
 -201 -80 l 2
 -248.4 -80 -280 -144.4 -280 -323 c 1
 -324 -323 l 1
EndSplineSet
Ligature2: "'blwf' Below Base Forms in Oriya lookup 3 subtable" u0B28 u0B4D
EndChar

StartChar: u0B15.sub
Encoding: 267 -1 267
Width: 12
Flags: W
HStem: -198 123<-257 -192.033> -76 58<-120.254 -60.4245>
VStem: -322 201<-167 -86> -266 84<-152.058 -112.05> -59 58<-106 -77.5055>
LayerCount: 2
Fore
SplineSet
-1 -106 m 2x68
 -1 -61.8 -19 -18 -91 -18 c 0
 -122.333 -18 -145 -25.6667 -159 -41 c 1
 -197 -21 l 1
 -261.638 -3.16882 -318.136 -50.8877 -322 -133 c 1
 -324.667 -167 -316.333 -197 -297 -223 c 1
 -277.667 -246.333 -253.333 -258 -224 -258 c 0
 -206.667 -258 -191.667 -254.333 -179 -247 c 1
 -179 -296 l 1
 -121 -296 l 1
 -121 -106 l 2
 -121 -86 -111 -76 -91 -76 c 0
 -69.6667 -76 -59 -86 -59 -106 c 2
 -59 -299 l 1
 -1 -299 l 1
 -1 -106 l 2x68
-225 -198 m 0x98
 -188.31 -198 -183.882 -152.058 -182 -137 c 1
 -182 -105.918 -192.033 -77.7588 -221 -75 c 1
 -257 -75 -266 -112.05 -266 -133 c 0
 -266 -165.492 -257.334 -198 -225 -198 c 0x98
EndSplineSet
Ligature2: "'blwf' Below Base Forms in Oriya lookup 3 subtable" u0B15 u0B4D
EndChar

StartChar: u0B25.sub
Encoding: 268 -1 268
Width: 14
Flags: W
HStem: -262 47<-490.795 -396.613 -256.89 -164.631> -98 42<-489.371 -398.973 -250.704 -163.222>
VStem: -546 45<-205.336 -108.215> -151 45<-203.657 -109.884>
LayerCount: 2
Fore
SplineSet
-205 -56 m 0
 -125.8 -56 -107.118 -125.226 -106 -161 c 1
 -106 -214.234 -141.297 -263 -205 -263 c 0
 -226.333 -263 -251 -253.333 -279 -234 c 1
 -326 -192 l 1
 -383.916 -249.916 -421.409 -262 -445 -262 c 0
 -525.8 -262 -546 -193.225 -546 -160 c 0
 -546 -103.912 -505.6 -56 -445 -56 c 0
 -412.333 -56 -372.333 -80 -325 -128 c 1
 -293.499 -92.5617 -253 -56 -205 -56 c 0
-205 -215 m 0
 -161.8 -215 -153.569 -171.846 -151 -159 c 1
 -151 -135 -161.8 -99 -205 -99 c 0
 -217.667 -99 -231.667 -104.333 -247 -115 c 0
 -254.333 -121 -263 -128.833 -273 -138.5 c 2
 -293 -158 l 1
 -260.885 -193.969 -235.46 -215 -205 -215 c 0
-501 -159 m 0
 -501 -194.415 -479.495 -215 -448 -215 c 0
 -430.2 -215 -413.088 -213.953 -359 -158 c 1
 -389.211 -122.955 -414.621 -100.816 -447 -98 c 1
 -481.269 -98 -501 -122.196 -501 -159 c 0
EndSplineSet
Ligature2: "'blwf' Below Base Forms in Oriya lookup 3 subtable" u0B25 u0B4D
EndChar

StartChar: u0B2D.sub
Encoding: 269 -1 269
Width: 14
Flags: HW
LayerCount: 2
Fore
SplineSet
-97 -9 m 2
 -60.0134 -9 7 -38.1262 7 -113 c 0
 7 -173.83 -21.711 -200.933 -60 -225 c 1
 -7 -329 l 1
 -49 -350 l 1
 -131 -197 l 1
 -89.6 -197 -38 -180.2 -38 -113 c 0
 -38 -80.7156 -61.2911 -55.1051 -97 -52 c 1
 -174 -52 l 1
 -174 -9 l 1
 -97 -9 l 2
EndSplineSet
EndChar

StartChar: u0B38.sub
Encoding: 270 -1 270
Width: 14
Flags: HW
LayerCount: 2
Fore
SplineSet
-234 -151 m 1
 -200.278 -222.491 -56.3674 -281 8 -281 c 1
 7 -323 l 1
 -22 -323 -71.455 -314.76 -138 -283 c 1
 -215.333 -249 -262.333 -204.667 -279 -150 c 1
 -256.925 -83.776 -193.203 -25.5856 -124 -6 c 1
 -124 -49 l 1
 -149.328 -54.7564 -201.664 -89.4082 -234 -151 c 1
EndSplineSet
EndChar

StartChar: u0B30.reph
Encoding: 271 -1 271
Width: 14
Flags: W
HStem: 785 279
VStem: -206 65<860.621 916.742>
LayerCount: 2
Fore
SplineSet
95 1064 m 1
 79 1017 l 1
 42.3521 950.023 -7.76738 937.872 -85 925 c 1
 -122.333 920.333 -141 908.667 -141 890 c 0
 -141 882.667 -130 869.333 -108 850 c 1
 -75 827 l 1
 -114 785 l 1
 -160 824 l 1
 -190.667 852 -206 873.333 -206 888 c 0
 -206 930 -187 957 -149 969 c 1
 -35 994 l 1
 -11 1003.33 6.33333 1018 17 1038 c 1
 25 1066 l 1
 95 1064 l 1
EndSplineSet
Ligature2: "'rphf' Reph Form in Oriya lookup 2 subtable" u0B30 u0B4D
EndChar

StartChar: u0B30.sub.alt
Encoding: 272 -1 272
Width: 14
Flags: HW
LayerCount: 2
Fore
SplineSet
-258 -306 m 2
 -186.121 -306 -157 -282.948 -157 -211 c 2
 -157 -175 l 1
 -113 -175 l 1
 -112 -211 l 1
 -112 -308.121 -139.954 -352 -258 -352 c 2
 -525 -352 l 1
 -525 -306 l 1
 -258 -306 l 2
EndSplineSet
EndChar

StartChar: u0B20.small
Encoding: 273 -1 273
Width: 558
Flags: HW
LayerCount: 2
Fore
SplineSet
227 652 m 0
 361.885 652 444.597 538.923 446 393 c 1
 446 256.076 358.4 132 227 132 c 0
 168.333 132 116.5 156.333 71.5 205 c 128
 26.5 253.667 4 316 4 392 c 0
 4 538.505 93.2 652 227 652 c 0
227 190 m 256
 319.851 190 390.33 287.61 389 394 c 1
 389 509.315 334.555 595 227 595 c 0
 127.02 595 63 508.01 63 393 c 0
 63 268.18 139.713 190 227 190 c 256
EndSplineSet
EndChar

StartChar: u0B38_u0B25.sub
Encoding: 274 -1 274
Width: 627
Flags: HW
AnchorPoint: "C" 266 800 basechar 0
LayerCount: 2
Fore
SplineSet
240 776 m 0
 370.2 776 440.799 711.94 457 698 c 1
 457 779 l 1
 515 779 l 1
 515 -54 l 1
 514 -61 l 1
 514 -127.65 469.425 -182 395 -182 c 0
 357 -182 311.667 -155.667 259 -103 c 1
 226.813 -136.927 177.4 -182 123 -182 c 0
 30.2 -182 7 -101.55 7 -60 c 0
 7 6.24727 51.9094 61 124 61 c 0
 178 61 233.828 7.10855 259 -20 c 1
 291.667 12.6667 321 35.3333 347 48 c 1
 31 241 l 1
 103 302 l 1
 33.8293 357.337 5 446.736 5 534 c 0
 5 695.173 116.961 776 240 776 c 0
240 717 m 0
 168.702 717 63 679.77 63 535 c 0
 63 451.954 91.0791 374.097 150 343 c 1
 308 477 l 1
 347 433 l 1
 131 250 l 1
 457 50 l 1
 457 619 l 1
 396.039 682.864 326.8 717 240 717 c 0
396 -123 m 0
 436.464 -123 455.424 -92.1021 457 -59 c 1
 457 -37.6 445 2 397 2 c 0
 382.333 2 366.667 -3.33333 350 -14 c 1
 328 -33 l 2
 315.333 -45 306.667 -53.6667 302 -59 c 1
 336.666 -98.4472 363.502 -123 396 -123 c 0
66 -58 m 0
 66 -84 77.4 -123 123 -123 c 0
 161.4 -123 188.568 -91.285 219 -58 c 1
 194.5 -33.5 l 130
 186.167 -25.1667 179 -18.6667 173 -14 c 0
 154.333 -2 137.667 4 123 4 c 0
 100.2 4 66 -8.04375 66 -58 c 0
EndSplineSet
Ligature2: "'blws' Below Base Substitutions in Oriya lookup 8 subtable" u0B38 u0B25.sub
EndChar

StartChar: u0B28_u0B25.sub
Encoding: 275 -1 275
Width: 445
Flags: HW
AnchorPoint: "C" 266 800 basechar 0
LayerCount: 2
Fore
SplineSet
269 773 m 0
 392.03 773 539.608 695.768 541 512 c 0
 541 450.858 528.012 411.159 514 370 c 1
 460 388 l 1
 475.333 437.333 483 478.667 483 512 c 0
 483 580.667 458.333 633.667 409 671 c 1
 370.333 701.667 324.667 717 272 717 c 0
 165.869 717 63 650.462 63 528 c 0
 63 489.333 71.6667 456.667 89 430 c 1
 103 410.667 120 395.667 140 385 c 1
 184.029 476.887 279.023 619 403 619 c 1
 403 247 l 1
 479.219 247 513 182.543 513 127 c 0
 513 85.2375 489.2 4 394 4 c 0
 356 4 310.667 30.3333 258 83 c 1
 225.813 49.073 176.4 4 122 4 c 0
 29.2 4 6 88.8 6 126 c 0
 6 166.919 26.1882 226.047 90 242 c 1
 97.9794 294.664 100.029 295.92 115 328 c 1
 67.9819 349.27 2 406.8 2 525 c 0
 2 596.333 28.6667 655.5 82 702.5 c 128
 135.333 749.5 197.667 773 269 773 c 0
147 239 m 1
 170.478 234.731 210.103 212.445 255 166 c 1
 301 206 l 2
 313 216 327 224.333 343 231 c 1
 343 551 l 1
 297.667 537 253.667 491.333 211 414 c 1
 178.333 352.667 157 294.333 147 239 c 1
393 58 m 0
 441 58 449.81 95.4136 453 122 c 1
 453 142.3 441 184 393 184 c 0
 361.411 184 331.291 156.852 298 121 c 1
 328.227 86.1223 359.978 58 393 58 c 0
61 122 m 0
 61 82.1006 82.1065 59 118 59 c 0
 135.333 59 151.667 65 167 77 c 0
 175 82.3333 191 97.3333 215 122 c 1
 190.5 146.5 l 130
 182.167 154.833 175 161.333 169 166 c 0
 150.333 178 133.667 184 119 184 c 0
 84.2 184 61 159.2 61 122 c 0
EndSplineSet
Ligature2: "'blws' Below Base Substitutions in Oriya lookup 8 subtable" u0B28 u0B25.sub
EndChar

StartChar: u0B36_u0B25.sub
Encoding: 276 -1 276
Width: 627
Flags: HW
AnchorPoint: "C" 266 800 basechar 0
LayerCount: 2
Fore
SplineSet
323 780 m 0
 396.191 780 457.896 729.807 494 690 c 1
 494 774 l 1
 551 774 l 1
 551 -46 l 1
 553 -61 l 1
 553 -127.65 508.425 -182 434 -182 c 0
 396 -182 350.667 -155.667 298 -103 c 1
 248 -155.667 202.667 -182 162 -182 c 256
 69.2 -182 46 -101.55 46 -60 c 0
 46 6.24727 90.9094 61 163 61 c 1
 174 60 l 1
 164 88.6667 159 119.667 159 153 c 0
 159 188.333 165.333 219 178 245 c 1
 109.541 267.82 7 353.482 7 460 c 0
 7 478.667 10.8333 499.667 18.5 523 c 128
 32.9971 567.122 89.7308 602 151 602 c 1
 166 601 l 1
 166 735.185 260.2 780 323 780 c 0
306 321 m 0
 395.416 321 439 241.532 439 144 c 0
 439 110 434 81.3333 424 58 c 1
 439 59 l 1
 461 59 480 52.3333 496 39 c 1
 495 585 l 1
 478.333 621 455.333 652.333 426 679 c 1
 392 708.333 359.333 723 328 723 c 0
 268.468 723 225 667.819 225 612 c 0
 225 595.333 229.667 581 239 569 c 1
 348 484 l 1
 312 438 l 1
 198 526 l 1
 183.333 536 166.667 541 148 541 c 0
 126.22 541 89.2616 534.002 74 495 c 1
 69 470 l 1
 68 455 l 1
 68 374.7 161.211 292 219 292 c 1
 243.667 311.333 272.667 321 306 321 c 0
300 31 m 0
 366.4 31 383 93.0777 383 145 c 0
 383 206.228 367.8 261 307 261 c 0
 272.2 261 220 241.175 220 151 c 0
 220 97 236 31 300 31 c 0
344 -62 m 1
 378.666 -101.447 405.502 -126 438 -126 c 256
 466.121 -126 497.056 -103.738 500 -64 c 1
 496 -41 l 1
 486 -14.3333 467 -1 439 -1 c 0
 424.333 -1 408.667 -6.33333 392 -17 c 1
 370 -36 l 2
 357.333 -48 348.667 -56.6667 344 -62 c 1
104 -61 m 0
 104 -96.45 127.6 -125 163 -125 c 0
 195.392 -125 224.687 -95.3126 259 -61 c 1
 226 -26 l 1
 204.667 -8 184 1 164 1 c 0
 131.1 1 104 -22.3 104 -61 c 0
EndSplineSet
Ligature2: "'blws' Below Base Substitutions in Oriya lookup 8 subtable" u0B36 u0B25.sub
EndChar

StartChar: u0B1A_u0B33.sub
Encoding: 277 -1 277
Width: 532
Flags: HW
AnchorPoint: "C" 266 800 basechar 0
LayerCount: 2
Fore
SplineSet
365 772 m 0
 556.412 772 725.964 700.893 723 526 c 1
 723 444.053 713.608 432.038 709 409 c 1
 705.667 399 701 387 695 373 c 1
 641 391 l 1
 652 420 l 2
 662 448.667 667 484 667 526 c 0
 667 678.8 501.023 717 366 717 c 0
 227.355 717 64 679.4 64 529 c 0
 64 498.398 68.1805 454.508 94 425 c 1
 122 471.667 156.333 495 197 495 c 0
 243 495 285.599 456.002 312 396 c 1
 342.667 462.667 381.667 496 429 496 c 0
 467.667 496 502.333 472.5 533 425.5 c 128
 563.667 378.5 579 320.667 579 252 c 2
 579 63 l 1
 605.667 60.3333 626 47.3333 640 24 c 1
 651 -9 l 1
 651 -193 l 1
 594 -193 l 1
 594 -13 l 2
 593.533 -11.1313 592.645 -1.04152 575 4 c 1
 554 4 l 2
 546.865 3.35134 537.4 -1 535 -13 c 1
 536 -193 l 1
 479 -193 l 1
 479 -13 l 1
 475.46 -5.03479 475.531 1.20724 449 4 c 1
 431 0 l 1
 422 -11 l 1
 422 -195 l 1
 364 -195 l 1
 364 -8 l 2
 364.667 -2 365.333 1.66667 366 3 c 2
 374 22 l 1
 339 55 l 1
 329.667 67.6667 321 83.3333 313 102 c 1
 282.333 35.3333 243.333 2 196 2 c 0
 124.004 2 48 102.511 48 247 c 0
 48 293.901 53.2926 328.862 67 365 c 1
 29.1708 392.512 5 447.608 5 525 c 0
 5 697.619 172.619 772 365 772 c 0
453 57 m 2
 480.76 57 500.167 46.9628 508 40 c 1
 524 47 l 1
 524 244 l 2
 524 320.776 497.502 429 433 429 c 0
 380.8 429 346 347.048 346 244 c 0
 346 168.116 369.996 57 434 57 c 2
 453 57 l 2
197 59 m 0
 249.2 59 284 146.45 284 245 c 0
 284 323.022 265.499 430 197 430 c 0
 130.372 430 106 323.188 106 245 c 0
 106 165.338 129.064 59 197 59 c 0
EndSplineSet
Ligature2: "'blws' Below Base Substitutions in Oriya lookup 8 subtable" u0B1A u0B33.sub
EndChar

StartChar: u0B1A_u0B15.sub
Encoding: 278 -1 278
Width: 550
Flags: HW
AnchorPoint: "C" 266 800 basechar 0
LayerCount: 2
Fore
SplineSet
367 775 m 0
 558.931 775 728.895 704.313 723 526 c 1
 723 444.053 713.608 432.038 709 409 c 1
 705.667 399 701 387 695 373 c 1
 641 391 l 1
 652 420 l 2
 662 448.667 667 484 667 526 c 0
 667 678.8 501.023 717 366 717 c 0
 227.355 717 64 679.4 64 529 c 0
 64 498.398 68.1805 454.508 94 425 c 1
 122 471.667 156.333 495 197 495 c 0
 243 495 285.599 456.002 312 396 c 1
 342.667 462.667 381.667 496 429 496 c 0
 467.667 496 502.333 472.5 533 425.5 c 128
 563.667 378.5 579 320.667 579 252 c 0
 579 163.776 548.286 84.0051 506 43 c 1
 510 39 l 1
 524 55.6667 546.667 64 578 64 c 0
 650 64 668 15.7 668 -24 c 2
 668 -217 l 1
 610 -217 l 1
 610 -24 l 2
 610 -4.66667 599.333 5 578 5 c 0
 558 5 548 -4.66667 548 -24 c 2
 548 -214 l 1
 490 -214 l 1
 490 -167 l 1
 477.333 -174.333 462.333 -178 445 -178 c 0
 405.8 -178 347 -153 347 -53 c 0
 347 -22.3333 355.667 4.66667 373 28 c 1
 349 48 329.667 73.6667 315 105 c 1
 284.333 38.3333 245.333 5 198 5 c 0
 126.004 5 50 105.511 50 250 c 0
 50 296.901 55.2926 331.862 69 368 c 1
 31.1708 395.512 7 450.608 7 528 c 0
 7 700.619 174.619 775 367 775 c 0
436 61 m 0
 490 61 527.298 149.639 526 247 c 1
 526 323.776 499.502 432 435 432 c 0
 382.8 432 348 350.048 348 247 c 0
 348 141.45 383.2 61 436 61 c 0
201 61 m 0
 253.2 61 288 148.45 288 247 c 0
 288 325.022 269.499 432 201 432 c 0
 134.372 432 110 325.188 110 247 c 0
 110 167.338 133.064 61 201 61 c 0
449 -122 m 0
 474.8 -122 490.699 -93.8391 492 -60 c 1
 492 -30.7563 484 1 452 1 c 0
 416.8 1 408 -37.1 408 -57 c 0
 408 -88.9909 415.957 -122 449 -122 c 0
EndSplineSet
Ligature2: "'blws' Below Base Substitutions in Oriya lookup 8 subtable" u0B1A u0B15.sub
EndChar

StartChar: u0B33_u0B15.sub
Encoding: 279 -1 279
Width: 687
Flags: HW
AnchorPoint: "C" 266 800 basechar 0
LayerCount: 2
Fore
SplineSet
529 27 m 0
 601 27 619 -16.8 619 -61 c 1
 614 -253 l 1
 556 -253 l 1
 556 -60 l 2
 556 -40 545.333 -30 524 -30 c 0
 504 -30 494 -40 494 -60 c 2
 494 -250 l 1
 436 -250 l 1
 436 -201 l 1
 423.333 -208.333 408.333 -212 391 -212 c 0
 351.8 -212 293 -187 293 -87 c 0
 293 -31 316.667 6.33333 364 25 c 1
 364 271 l 1
 362.596 282.229 355.654 285.543 336 288 c 0
 328 288 320.333 285.333 313 280 c 1
 308 271 l 1
 308 0 l 1
 251 0 l 1
 251 271 l 2
 250.8 272 249.278 288 223 288 c 0
 217 288 211 286.333 205 283 c 1
 196 274 l 1
 196 0 l 1
 139 0 l 1
 139 275 l 1
 66.5395 309.981 14 392.825 14 499 c 0
 14 574.333 41.5 639 96.5 693 c 128
 151.5 747 213.333 774 282 774 c 0
 403.09 774 553 698.955 553 511 c 0
 553 449.858 540.012 410.159 526 369 c 1
 472 387 l 1
 487.333 436.333 495 477.667 495 511 c 0
 495 579.667 470.333 632.667 421 670 c 1
 382.333 700.667 336.667 716 284 716 c 256
 231.333 716 183.333 694.667 140 652 c 128
 96.6667 609.333 75 558.667 75 500 c 0
 75 416.612 110.674 354.883 167 328 c 1
 172.333 333.333 180 337.667 190 341 c 1
 226 346 l 1
 248 346 266.667 340 282 328 c 1
 296.667 340 316 346 340 346 c 0
 414.646 346 422.357 287.803 425 273 c 1
 425 24 l 1
 440.333 20.6667 452.333 14 461 4 c 1
 475 19.3333 497.667 27 529 27 c 0
393 -154 m 0
 429.69 -154 434.118 -108.058 436 -93 c 1
 436 -61.2688 425.982 -34.7602 397 -32 c 1
 361 -32 352 -68.45 352 -89 c 0
 352 -121.492 360.666 -154 393 -154 c 0
EndSplineSet
Ligature2: "'blws' Below Base Substitutions in Oriya lookup 8 subtable" u0B33 u0B15.sub
EndChar

StartChar: u0B38_u0B15.sub
Encoding: 280 -1 280
Width: 749
Flags: HW
AnchorPoint: "C" 266 800 basechar 0
LayerCount: 2
Fore
SplineSet
524 27 m 2
 596 27 614 -16.8 614 -61 c 2
 614 -253 l 1
 556 -253 l 1
 556 -60 l 2
 556 -40 545.333 -30 524 -30 c 0
 504 -30 494 -40 494 -60 c 2
 494 -250 l 1
 436 -250 l 1
 436 -201 l 1
 423.333 -208.333 408.333 -212 391 -212 c 0
 351.8 -212 293 -187 293 -87 c 0
 293 -25.8519 326.558 25 382 25 c 1
 32 239 l 1
 104 300 l 1
 34.8293 355.337 6 444.736 6 532 c 0
 6 693.173 117.961 774 241 774 c 0
 371.2 774 441.799 709.94 458 696 c 1
 458 777 l 1
 516 777 l 1
 516 27 l 1
 524 27 l 2
239 715 m 0
 167.702 715 62 677.77 62 533 c 0
 62 449.954 90.0791 372.097 149 341 c 1
 307 475 l 1
 346 431 l 1
 130 248 l 1
 456 48 l 1
 456 617 l 1
 395.039 680.864 325.8 715 239 715 c 0
389 -153 m 0
 425.69 -153 430.118 -107.058 432 -92 c 1
 432 -60.2688 421.982 -33.7602 393 -31 c 1
 357 -31 348 -67.45 348 -88 c 0
 348 -120.492 356.666 -153 389 -153 c 0
EndSplineSet
Ligature2: "'blws' Below Base Substitutions in Oriya lookup 8 subtable" u0B38 u0B15.sub
EndChar

StartChar: u0B37_u0B1F.sub
Encoding: 281 -1 281
Width: 498
Flags: HW
AnchorPoint: "C" 266 800 basechar 0
LayerCount: 2
Fore
SplineSet
241 768 m 0
 371.2 768 441.799 703.94 458 690 c 1
 458 771 l 1
 516 771 l 1
 516 314 l 1
 549.333 314 584.667 301 622 275 c 1
 622 304 l 1
 679 304 l 1
 679 26 l 1
 622 26 l 1
 622 206 l 1
 596.362 228.562 550 260 502 260 c 0
 432.164 260 377 200.336 377 130 c 0
 377 111.704 381.942 44.9432 428 29 c 1
 442 37 458.667 41 478 41 c 0
 542.806 41 577 -14.0396 577 -85 c 256
 577 -143.4 556.2 -205 473 -205 c 0
 433.8 -205 375 -180 375 -80 c 0
 375 -57.3333 379 -36.3333 387 -17 c 1
 369 -3 l 1
 354 13 l 1
 310 2 l 1
 266 -3 l 1
 158.137 -3 78 80.2475 78 197 c 0
 78 257.879 86.7989 283.598 109 328 c 1
 67.3003 350.935 7 409.2 7 531 c 0
 7 720.6 129.625 768 241 768 c 0
457 611 m 1
 396.039 674.864 326.8 709 240 709 c 0
 194.667 709 157.667 699.667 129 681 c 1
 432 298 l 1
 457 306 l 1
 457 611 l 1
316 125 m 0
 316 188.193 342.894 236.51 383 266 c 1
 88 637 l 1
 71.3333 612.333 63 576.667 63 530 c 0
 63 438.2 107.701 394.915 135 377 c 1
 161 413 l 1
 204 374 l 1
 169 321 l 1
 145 275.667 133 233.667 133 195 c 0
 133 113.932 184.6 53 262 53 c 0
 286 53 306.667 56.6667 324 64 c 1
 318.667 83.3333 316 103.667 316 125 c 0
471 -150 m 1
 511.177 -150 514.136 -111.186 518 -88 c 1
 518 -40.4195 501.6 -24 477 -24 c 0
 459.275 -24 429 -33.4 429 -83 c 0
 429 -137.791 452.013 -148.349 471 -150 c 1
EndSplineSet
Ligature2: "'blws' Below Base Substitutions in Oriya lookup 8 subtable" u0B37 u0B1F.sub
EndChar

